%TF.GenerationSoftware,KiCad,Pcbnew,10.0.4*%
%TF.CreationDate,2026-08-18T10:01:22+02:00*%
%TF.ProjectId,keyboard,6b657962-6f61-4726-942e-6b696361645f,rev?*%
%TF.SameCoordinates,Original*%
%TF.FileFunction,Paste,Bot*%
%TF.FilePolarity,Positive*%
%FSLAX46Y46*%
G04 Gerber Fmt 4.6, Leading zero omitted, Abs format (unit mm)*
G04 Created by KiCad (PCBNEW 10.0.4) date 2026-08-18 10:01:22*
%MOMM*%
%LPD*%
G01*
G04 APERTURE LIST*
G04 Aperture macros list*
%AMRoundRect*
0 Rectangle with rounded corners*
0 $1 Rounding radius*
0 $2 $3 $4 $5 $6 $7 $8 $9 X,Y pos of 4 corners*
0 Add a 4 corners polygon primitive as box body*
4,1,4,$2,$3,$4,$5,$6,$7,$8,$9,$2,$3,0*
0 Add four circle primitives for the rounded corners*
1,1,$1+$1,$2,$3*
1,1,$1+$1,$4,$5*
1,1,$1+$1,$6,$7*
1,1,$1+$1,$8,$9*
0 Add four rect primitives between the rounded corners*
20,1,$1+$1,$2,$3,$4,$5,0*
20,1,$1+$1,$4,$5,$6,$7,0*
20,1,$1+$1,$6,$7,$8,$9,0*
20,1,$1+$1,$8,$9,$2,$3,0*%
G04 Aperture macros list end*
%ADD10RoundRect,0.250000X0.300000X-0.300000X0.300000X0.300000X-0.300000X0.300000X-0.300000X-0.300000X0*%
G04 APERTURE END LIST*
D10*
%TO.C,D41*%
X142658750Y-90871250D03*
X142658750Y-88071250D03*
%TD*%
%TO.C,D77*%
X2165000Y-148021250D03*
X2165000Y-145221250D03*
%TD*%
%TO.C,D49*%
X309346250Y-90871250D03*
X309346250Y-88071250D03*
%TD*%
%TO.C,D72*%
X175996250Y-128971250D03*
X175996250Y-126171250D03*
%TD*%
%TO.C,D59*%
X166471250Y-109921250D03*
X166471250Y-107121250D03*
%TD*%
%TO.C,D80*%
X121227500Y-148021250D03*
X121227500Y-145221250D03*
%TD*%
%TO.C,D28*%
X209333750Y-71821250D03*
X209333750Y-69021250D03*
%TD*%
%TO.C,D57*%
X128371250Y-109921250D03*
X128371250Y-107121250D03*
%TD*%
%TO.C,D5*%
X95033750Y-52771250D03*
X95033750Y-49971250D03*
%TD*%
%TO.C,D32*%
X309346250Y-71821250D03*
X309346250Y-69021250D03*
%TD*%
%TO.C,D40*%
X123608750Y-90871250D03*
X123608750Y-88071250D03*
%TD*%
%TO.C,D33*%
X328396250Y-71821250D03*
X328396250Y-69021250D03*
%TD*%
%TO.C,D45*%
X218858750Y-90871250D03*
X218858750Y-88071250D03*
%TD*%
%TO.C,D82*%
X216477500Y-148021250D03*
X216477500Y-145221250D03*
%TD*%
%TO.C,D39*%
X104558750Y-90871250D03*
X104558750Y-88071250D03*
%TD*%
%TO.C,D43*%
X180758750Y-90871250D03*
X180758750Y-88071250D03*
%TD*%
%TO.C,D76*%
X309346250Y-128971250D03*
X309346250Y-126171250D03*
%TD*%
%TO.C,D4*%
X75983750Y-52771250D03*
X75983750Y-49971250D03*
%TD*%
%TO.C,D35*%
X28358750Y-90871250D03*
X28358750Y-88071250D03*
%TD*%
%TO.C,D22*%
X95033750Y-71821250D03*
X95033750Y-69021250D03*
%TD*%
%TO.C,D65*%
X42646250Y-128971250D03*
X42646250Y-126171250D03*
%TD*%
%TO.C,D2*%
X37883750Y-52771250D03*
X37883750Y-49971250D03*
%TD*%
%TO.C,D86*%
X309346250Y-148021250D03*
X309346250Y-145221250D03*
%TD*%
%TO.C,D51*%
X6927500Y-109921250D03*
X6927500Y-107121250D03*
%TD*%
%TO.C,D84*%
X264102500Y-148021250D03*
X264102500Y-145221250D03*
%TD*%
%TO.C,D58*%
X147421250Y-109921250D03*
X147421250Y-107121250D03*
%TD*%
%TO.C,D38*%
X85508750Y-90871250D03*
X85508750Y-88071250D03*
%TD*%
%TO.C,D52*%
X33121250Y-109921250D03*
X33121250Y-107121250D03*
%TD*%
%TO.C,D34*%
X4546250Y-90871250D03*
X4546250Y-88071250D03*
%TD*%
%TO.C,D12*%
X247433750Y-52771250D03*
X247433750Y-49971250D03*
%TD*%
%TO.C,D16*%
X328396250Y-52771250D03*
X328396250Y-49971250D03*
%TD*%
%TO.C,D3*%
X56933750Y-52771250D03*
X56933750Y-49971250D03*
%TD*%
%TO.C,D7*%
X142658750Y-52771250D03*
X142658750Y-49971250D03*
%TD*%
%TO.C,D48*%
X290296250Y-90871250D03*
X290296250Y-88071250D03*
%TD*%
%TO.C,D69*%
X118846250Y-128971250D03*
X118846250Y-126171250D03*
%TD*%
%TO.C,D53*%
X52171250Y-109921250D03*
X52171250Y-107121250D03*
%TD*%
%TO.C,D81*%
X192665000Y-148021250D03*
X192665000Y-145221250D03*
%TD*%
%TO.C,D64*%
X11690000Y-128971250D03*
X11690000Y-126171250D03*
%TD*%
%TO.C,D37*%
X66458750Y-90871250D03*
X66458750Y-88071250D03*
%TD*%
%TO.C,D87*%
X328396250Y-148021250D03*
X328396250Y-145221250D03*
%TD*%
%TO.C,D75*%
X249815000Y-128971250D03*
X249815000Y-126171250D03*
%TD*%
%TO.C,D26*%
X171233750Y-71821250D03*
X171233750Y-69021250D03*
%TD*%
%TO.C,D31*%
X290296250Y-71821250D03*
X290296250Y-69021250D03*
%TD*%
%TO.C,D1*%
X-216250Y-52771250D03*
X-216250Y-49971250D03*
%TD*%
%TO.C,D30*%
X256958750Y-71821250D03*
X256958750Y-69021250D03*
%TD*%
%TO.C,D6*%
X123608750Y-52771250D03*
X123608750Y-49971250D03*
%TD*%
%TO.C,D63*%
X254577500Y-109921250D03*
X254577500Y-107121250D03*
%TD*%
%TO.C,D67*%
X80746250Y-128971250D03*
X80746250Y-126171250D03*
%TD*%
%TO.C,D85*%
X290296250Y-148021250D03*
X290296250Y-145221250D03*
%TD*%
%TO.C,D9*%
X180758750Y-52771250D03*
X180758750Y-49971250D03*
%TD*%
%TO.C,D11*%
X228383750Y-52771250D03*
X228383750Y-49971250D03*
%TD*%
%TO.C,D21*%
X75983750Y-71821250D03*
X75983750Y-69021250D03*
%TD*%
%TO.C,D54*%
X71221250Y-109921250D03*
X71221250Y-107121250D03*
%TD*%
%TO.C,D70*%
X137896250Y-128971250D03*
X137896250Y-126171250D03*
%TD*%
%TO.C,D83*%
X240290000Y-148021250D03*
X240290000Y-145221250D03*
%TD*%
%TO.C,D19*%
X37883750Y-71821250D03*
X37883750Y-69021250D03*
%TD*%
%TO.C,D42*%
X161708750Y-90871250D03*
X161708750Y-88071250D03*
%TD*%
%TO.C,D61*%
X204571250Y-109921250D03*
X204571250Y-107121250D03*
%TD*%
%TO.C,D29*%
X228383750Y-71821250D03*
X228383750Y-69021250D03*
%TD*%
%TO.C,D14*%
X290296250Y-52771250D03*
X290296250Y-49971250D03*
%TD*%
%TO.C,D15*%
X309346250Y-52771250D03*
X309346250Y-49971250D03*
%TD*%
%TO.C,D66*%
X61696250Y-128971250D03*
X61696250Y-126171250D03*
%TD*%
%TO.C,D23*%
X114083750Y-71821250D03*
X114083750Y-69021250D03*
%TD*%
%TO.C,D20*%
X56933750Y-71821250D03*
X56933750Y-69021250D03*
%TD*%
%TO.C,D78*%
X25977500Y-148021250D03*
X25977500Y-145221250D03*
%TD*%
%TO.C,D25*%
X152183750Y-71821250D03*
X152183750Y-69021250D03*
%TD*%
%TO.C,D62*%
X223621250Y-109921250D03*
X223621250Y-107121250D03*
%TD*%
%TO.C,D56*%
X109321250Y-109921250D03*
X109321250Y-107121250D03*
%TD*%
%TO.C,D74*%
X214096250Y-128971250D03*
X214096250Y-126171250D03*
%TD*%
%TO.C,D17*%
X-216250Y-71821250D03*
X-216250Y-69021250D03*
%TD*%
%TO.C,D73*%
X195046250Y-128971250D03*
X195046250Y-126171250D03*
%TD*%
%TO.C,D68*%
X99796250Y-128971250D03*
X99796250Y-126171250D03*
%TD*%
%TO.C,D46*%
X237908750Y-90871250D03*
X237908750Y-88071250D03*
%TD*%
%TO.C,D60*%
X185521250Y-109921250D03*
X185521250Y-107121250D03*
%TD*%
%TO.C,D44*%
X199808750Y-90871250D03*
X199808750Y-88071250D03*
%TD*%
%TO.C,D50*%
X328396250Y-90871250D03*
X328396250Y-88071250D03*
%TD*%
%TO.C,D55*%
X90271250Y-109921250D03*
X90271250Y-107121250D03*
%TD*%
%TO.C,D36*%
X47408750Y-90871250D03*
X47408750Y-88071250D03*
%TD*%
%TO.C,D27*%
X190283750Y-71821250D03*
X190283750Y-69021250D03*
%TD*%
%TO.C,D79*%
X49790000Y-148021250D03*
X49790000Y-145221250D03*
%TD*%
%TO.C,D24*%
X133133750Y-71821250D03*
X133133750Y-69021250D03*
%TD*%
%TO.C,D47*%
X261721250Y-90871250D03*
X261721250Y-88071250D03*
%TD*%
%TO.C,D10*%
X209333750Y-52771250D03*
X209333750Y-49971250D03*
%TD*%
%TO.C,D18*%
X18833750Y-71821250D03*
X18833750Y-69021250D03*
%TD*%
%TO.C,D13*%
X266483750Y-52771250D03*
X266483750Y-49971250D03*
%TD*%
%TO.C,D71*%
X156946250Y-128971250D03*
X156946250Y-126171250D03*
%TD*%
%TO.C,D8*%
X161708750Y-52771250D03*
X161708750Y-49971250D03*
%TD*%
M02*
