%TF.GenerationSoftware,KiCad,Pcbnew,10.0.4*%
%TF.CreationDate,2026-08-18T10:01:22+02:00*%
%TF.ProjectId,keyboard,6b657962-6f61-4726-942e-6b696361645f,rev?*%
%TF.SameCoordinates,Original*%
%TF.FileFunction,Copper,L1,Top*%
%TF.FilePolarity,Positive*%
%FSLAX46Y46*%
G04 Gerber Fmt 4.6, Leading zero omitted, Abs format (unit mm)*
G04 Created by KiCad (PCBNEW 10.0.4) date 2026-08-18 10:01:22*
%MOMM*%
%LPD*%
G01*
G04 APERTURE LIST*
G04 Aperture macros list*
%AMRoundRect*
0 Rectangle with rounded corners*
0 $1 Rounding radius*
0 $2 $3 $4 $5 $6 $7 $8 $9 X,Y pos of 4 corners*
0 Add a 4 corners polygon primitive as box body*
4,1,4,$2,$3,$4,$5,$6,$7,$8,$9,$2,$3,0*
0 Add four circle primitives for the rounded corners*
1,1,$1+$1,$2,$3*
1,1,$1+$1,$4,$5*
1,1,$1+$1,$6,$7*
1,1,$1+$1,$8,$9*
0 Add four rect primitives between the rounded corners*
20,1,$1+$1,$2,$3,$4,$5,0*
20,1,$1+$1,$4,$5,$6,$7,0*
20,1,$1+$1,$6,$7,$8,$9,0*
20,1,$1+$1,$8,$9,$2,$3,0*%
%AMFreePoly0*
4,1,37,0.603843,0.796157,0.639018,0.796157,0.711114,0.766294,0.766294,0.711114,0.796157,0.639018,0.796157,0.603843,0.800000,0.600000,0.800000,-0.600000,0.796157,-0.603843,0.796157,-0.639018,0.766294,-0.711114,0.711114,-0.766294,0.639018,-0.796157,0.603843,-0.796157,0.600000,-0.800000,0.000000,-0.800000,0.000000,-0.796148,-0.078414,-0.796148,-0.232228,-0.765552,-0.377117,-0.705537,
-0.507515,-0.618408,-0.618408,-0.507515,-0.705537,-0.377117,-0.765552,-0.232228,-0.796148,-0.078414,-0.796148,0.078414,-0.765552,0.232228,-0.705537,0.377117,-0.618408,0.507515,-0.507515,0.618408,-0.377117,0.705537,-0.232228,0.765552,-0.078414,0.796148,0.000000,0.796148,0.000000,0.800000,0.600000,0.800000,0.603843,0.796157,0.603843,0.796157,$1*%
%AMFreePoly1*
4,1,37,0.000000,0.796148,0.078414,0.796148,0.232228,0.765552,0.377117,0.705537,0.507515,0.618408,0.618408,0.507515,0.705537,0.377117,0.765552,0.232228,0.796148,0.078414,0.796148,-0.078414,0.765552,-0.232228,0.705537,-0.377117,0.618408,-0.507515,0.507515,-0.618408,0.377117,-0.705537,0.232228,-0.765552,0.078414,-0.796148,0.000000,-0.796148,0.000000,-0.800000,-0.600000,-0.800000,
-0.603843,-0.796157,-0.639018,-0.796157,-0.711114,-0.766294,-0.766294,-0.711114,-0.796157,-0.639018,-0.796157,-0.603843,-0.800000,-0.600000,-0.800000,0.600000,-0.796157,0.603843,-0.796157,0.639018,-0.766294,0.711114,-0.711114,0.766294,-0.639018,0.796157,-0.603843,0.796157,-0.600000,0.800000,0.000000,0.800000,0.000000,0.796148,0.000000,0.796148,$1*%
G04 Aperture macros list end*
%TA.AperFunction,ComponentPad*%
%ADD10C,2.500000*%
%TD*%
%TA.AperFunction,ComponentPad*%
%ADD11RoundRect,0.170000X-0.680000X0.680000X-0.680000X-0.680000X0.680000X-0.680000X0.680000X0.680000X0*%
%TD*%
%TA.AperFunction,ComponentPad*%
%ADD12C,1.700000*%
%TD*%
%TA.AperFunction,ComponentPad*%
%ADD13RoundRect,0.200000X0.600000X0.600000X-0.600000X0.600000X-0.600000X-0.600000X0.600000X-0.600000X0*%
%TD*%
%TA.AperFunction,ComponentPad*%
%ADD14C,1.600000*%
%TD*%
%TA.AperFunction,ComponentPad*%
%ADD15FreePoly0,180.000000*%
%TD*%
%TA.AperFunction,ComponentPad*%
%ADD16FreePoly1,180.000000*%
%TD*%
%TA.AperFunction,Conductor*%
%ADD17C,0.200000*%
%TD*%
G04 APERTURE END LIST*
D10*
%TO.P,SW71,1,1*%
%TO.N,COL8*%
X148056250Y-121031250D03*
%TO.P,SW71,2,2*%
%TO.N,Net-(D71-A)*%
X154406250Y-118491250D03*
%TD*%
%TO.P,SW50,1,1*%
%TO.N,COL17*%
X319506250Y-82931250D03*
%TO.P,SW50,2,2*%
%TO.N,Net-(D50-A)*%
X325856250Y-80391250D03*
%TD*%
%TO.P,SW83,1,1*%
%TO.N,COL12*%
X231400000Y-140081250D03*
%TO.P,SW83,2,2*%
%TO.N,Net-(D83-A)*%
X237750000Y-137541250D03*
%TD*%
%TO.P,SW47,1,1*%
%TO.N,COL13*%
X252831250Y-82931250D03*
%TO.P,SW47,2,2*%
%TO.N,Net-(D47-A)*%
X259181250Y-80391250D03*
%TD*%
%TO.P,SW82,1,1*%
%TO.N,COL11*%
X207587500Y-140081250D03*
%TO.P,SW82,2,2*%
%TO.N,Net-(D82-A)*%
X213937500Y-137541250D03*
%TD*%
%TO.P,SW70,1,1*%
%TO.N,COL7*%
X129006250Y-121031250D03*
%TO.P,SW70,2,2*%
%TO.N,Net-(D70-A)*%
X135356250Y-118491250D03*
%TD*%
%TO.P,SW8,1,1*%
%TO.N,COL8*%
X152818750Y-44831250D03*
%TO.P,SW8,2,2*%
%TO.N,Net-(D8-A)*%
X159168750Y-42291250D03*
%TD*%
%TO.P,SW27,1,1*%
%TO.N,COL10*%
X181393750Y-63881250D03*
%TO.P,SW27,2,2*%
%TO.N,Net-(D27-A)*%
X187743750Y-61341250D03*
%TD*%
%TO.P,SW80,1,1*%
%TO.N,COL6*%
X112337500Y-140081250D03*
%TO.P,SW80,2,2*%
%TO.N,Net-(D80-A)*%
X118687500Y-137541250D03*
%TD*%
%TO.P,SW60,1,1*%
%TO.N,COL9*%
X176631250Y-101981250D03*
%TO.P,SW60,2,2*%
%TO.N,Net-(D60-A)*%
X182981250Y-99441250D03*
%TD*%
%TO.P,SW42,1,1*%
%TO.N,COL8*%
X152818750Y-82931250D03*
%TO.P,SW42,2,2*%
%TO.N,Net-(D42-A)*%
X159168750Y-80391250D03*
%TD*%
%TO.P,SW13,1,1*%
%TO.N,COL14*%
X257593750Y-44831250D03*
%TO.P,SW13,2,2*%
%TO.N,Net-(D13-A)*%
X263943750Y-42291250D03*
%TD*%
%TO.P,SW31,1,1*%
%TO.N,COL15*%
X281406250Y-63881250D03*
%TO.P,SW31,2,2*%
%TO.N,Net-(D31-A)*%
X287756250Y-61341250D03*
%TD*%
%TO.P,SW36,1,1*%
%TO.N,COL2*%
X38518750Y-82931250D03*
%TO.P,SW36,2,2*%
%TO.N,Net-(D36-A)*%
X44868750Y-80391250D03*
%TD*%
%TO.P,SW67,1,1*%
%TO.N,COL4*%
X71856250Y-121031250D03*
%TO.P,SW67,2,2*%
%TO.N,Net-(D67-A)*%
X78206250Y-118491250D03*
%TD*%
%TO.P,SW29,1,1*%
%TO.N,COL12*%
X219493750Y-63881250D03*
%TO.P,SW29,2,2*%
%TO.N,Net-(D29-A)*%
X225843750Y-61341250D03*
%TD*%
%TO.P,SW2,1,1*%
%TO.N,COL2*%
X28993750Y-44831250D03*
%TO.P,SW2,2,2*%
%TO.N,Net-(D2-A)*%
X35343750Y-42291250D03*
%TD*%
%TO.P,SW11,1,1*%
%TO.N,COL12*%
X219493750Y-44831250D03*
%TO.P,SW11,2,2*%
%TO.N,Net-(D11-A)*%
X225843750Y-42291250D03*
%TD*%
%TO.P,SW44,1,1*%
%TO.N,COL10*%
X190918750Y-82931250D03*
%TO.P,SW44,2,2*%
%TO.N,Net-(D44-A)*%
X197268750Y-80391250D03*
%TD*%
%TO.P,SW41,1,1*%
%TO.N,COL7*%
X133768750Y-82931250D03*
%TO.P,SW41,2,2*%
%TO.N,Net-(D41-A)*%
X140118750Y-80391250D03*
%TD*%
%TO.P,SW19,1,1*%
%TO.N,COL2*%
X28993750Y-63881250D03*
%TO.P,SW19,2,2*%
%TO.N,Net-(D19-A)*%
X35343750Y-61341250D03*
%TD*%
%TO.P,SW24,1,1*%
%TO.N,COL7*%
X124243750Y-63881250D03*
%TO.P,SW24,2,2*%
%TO.N,Net-(D24-A)*%
X130593750Y-61341250D03*
%TD*%
%TO.P,SW6,1,1*%
%TO.N,COL6*%
X114718750Y-44831250D03*
%TO.P,SW6,2,2*%
%TO.N,Net-(D6-A)*%
X121068750Y-42291250D03*
%TD*%
%TO.P,SW40,1,1*%
%TO.N,COL6*%
X114718750Y-82931250D03*
%TO.P,SW40,2,2*%
%TO.N,Net-(D40-A)*%
X121068750Y-80391250D03*
%TD*%
%TO.P,SW4,1,1*%
%TO.N,COL4*%
X67093750Y-44831250D03*
%TO.P,SW4,2,2*%
%TO.N,Net-(D4-A)*%
X73443750Y-42291250D03*
%TD*%
%TO.P,SW28,1,1*%
%TO.N,COL11*%
X200443750Y-63881250D03*
%TO.P,SW28,2,2*%
%TO.N,Net-(D28-A)*%
X206793750Y-61341250D03*
%TD*%
%TO.P,SW30,1,1*%
%TO.N,COL13*%
X248068750Y-63881250D03*
%TO.P,SW30,2,2*%
%TO.N,Net-(D30-A)*%
X254418750Y-61341250D03*
%TD*%
%TO.P,SW9,1,1*%
%TO.N,COL9*%
X171868750Y-44831250D03*
%TO.P,SW9,2,2*%
%TO.N,Net-(D9-A)*%
X178218750Y-42291250D03*
%TD*%
%TO.P,SW61,1,1*%
%TO.N,COL10*%
X195681250Y-101981250D03*
%TO.P,SW61,2,2*%
%TO.N,Net-(D61-A)*%
X202031250Y-99441250D03*
%TD*%
%TO.P,SW35,1,1*%
%TO.N,COL1*%
X19468750Y-82931250D03*
%TO.P,SW35,2,2*%
%TO.N,Net-(D35-A)*%
X25818750Y-80391250D03*
%TD*%
%TO.P,SW52,1,1*%
%TO.N,COL1*%
X24231250Y-101981250D03*
%TO.P,SW52,2,2*%
%TO.N,Net-(D52-A)*%
X30581250Y-99441250D03*
%TD*%
%TO.P,SW75,1,1*%
%TO.N,COL13*%
X240925000Y-121031250D03*
%TO.P,SW75,2,2*%
%TO.N,Net-(D75-A)*%
X247275000Y-118491250D03*
%TD*%
%TO.P,SW34,1,1*%
%TO.N,COL0*%
X-4343750Y-82931250D03*
%TO.P,SW34,2,2*%
%TO.N,Net-(D34-A)*%
X2006250Y-80391250D03*
%TD*%
%TO.P,SW26,1,1*%
%TO.N,COL9*%
X162343750Y-63881250D03*
%TO.P,SW26,2,2*%
%TO.N,Net-(D26-A)*%
X168693750Y-61341250D03*
%TD*%
%TO.P,SW14,1,1*%
%TO.N,COL15*%
X281406250Y-44831250D03*
%TO.P,SW14,2,2*%
%TO.N,Net-(D14-A)*%
X287756250Y-42291250D03*
%TD*%
%TO.P,SW49,1,1*%
%TO.N,COL16*%
X300456250Y-82931250D03*
%TO.P,SW49,2,2*%
%TO.N,Net-(D49-A)*%
X306806250Y-80391250D03*
%TD*%
%TO.P,SW68,1,1*%
%TO.N,COL5*%
X90906250Y-121031250D03*
%TO.P,SW68,2,2*%
%TO.N,Net-(D68-A)*%
X97256250Y-118491250D03*
%TD*%
%TO.P,SW33,1,1*%
%TO.N,COL17*%
X319506250Y-63881250D03*
%TO.P,SW33,2,2*%
%TO.N,Net-(D33-A)*%
X325856250Y-61341250D03*
%TD*%
%TO.P,SW1,1,1*%
%TO.N,COL0*%
X-9106250Y-44831250D03*
%TO.P,SW1,2,2*%
%TO.N,Net-(D1-A)*%
X-2756250Y-42291250D03*
%TD*%
D11*
%TO.P,U1,1,GND_1*%
%TO.N,Net-(U1-GND)*%
X324900000Y-24290000D03*
D12*
%TO.P,U1,2,VCC_2*%
%TO.N,Net-(A1-3V3)*%
X324900000Y-26830000D03*
%TO.P,U1,3,SCL_3*%
%TO.N,Net-(A1-GPIO26_ADC0)*%
X324900000Y-29370000D03*
%TO.P,U1,4,SDA_4*%
%TO.N,Net-(A1-GPIO27_ADC1)*%
X324900000Y-31910000D03*
%TD*%
D10*
%TO.P,SW56,1,1*%
%TO.N,COL5*%
X100431250Y-101981250D03*
%TO.P,SW56,2,2*%
%TO.N,Net-(D56-A)*%
X106781250Y-99441250D03*
%TD*%
%TO.P,SW64,1,1*%
%TO.N,COL0*%
X2800000Y-121031250D03*
%TO.P,SW64,2,2*%
%TO.N,Net-(D64-A)*%
X9150000Y-118491250D03*
%TD*%
%TO.P,SW79,1,1*%
%TO.N,COL2*%
X40900000Y-140081250D03*
%TO.P,SW79,2,2*%
%TO.N,Net-(D79-A)*%
X47250000Y-137541250D03*
%TD*%
%TO.P,SW7,1,1*%
%TO.N,COL7*%
X133768750Y-44831250D03*
%TO.P,SW7,2,2*%
%TO.N,Net-(D7-A)*%
X140118750Y-42291250D03*
%TD*%
%TO.P,SW58,1,1*%
%TO.N,COL7*%
X138531250Y-101981250D03*
%TO.P,SW58,2,2*%
%TO.N,Net-(D58-A)*%
X144881250Y-99441250D03*
%TD*%
%TO.P,SW86,1,1*%
%TO.N,COL16*%
X300456250Y-140081250D03*
%TO.P,SW86,2,2*%
%TO.N,Net-(D86-A)*%
X306806250Y-137541250D03*
%TD*%
%TO.P,SW84,1,1*%
%TO.N,COL13*%
X255212500Y-140081250D03*
%TO.P,SW84,2,2*%
%TO.N,Net-(D84-A)*%
X261562500Y-137541250D03*
%TD*%
%TO.P,SW15,1,1*%
%TO.N,COL16*%
X300456250Y-44831250D03*
%TO.P,SW15,2,2*%
%TO.N,Net-(D15-A)*%
X306806250Y-42291250D03*
%TD*%
%TO.P,SW59,1,1*%
%TO.N,COL8*%
X157581250Y-101981250D03*
%TO.P,SW59,2,2*%
%TO.N,Net-(D59-A)*%
X163931250Y-99441250D03*
%TD*%
%TO.P,SW66,1,1*%
%TO.N,COL3*%
X52806250Y-121031250D03*
%TO.P,SW66,2,2*%
%TO.N,Net-(D66-A)*%
X59156250Y-118491250D03*
%TD*%
%TO.P,SW78,1,1*%
%TO.N,COL1*%
X17087500Y-140081250D03*
%TO.P,SW78,2,2*%
%TO.N,Net-(D78-A)*%
X23437500Y-137541250D03*
%TD*%
%TO.P,SW51,1,1*%
%TO.N,COL0*%
X-1962500Y-101981250D03*
%TO.P,SW51,2,2*%
%TO.N,Net-(D51-A)*%
X4387500Y-99441250D03*
%TD*%
%TO.P,SW25,1,1*%
%TO.N,COL8*%
X143293750Y-63881250D03*
%TO.P,SW25,2,2*%
%TO.N,Net-(D25-A)*%
X149643750Y-61341250D03*
%TD*%
%TO.P,SW62,1,1*%
%TO.N,COL11*%
X214731250Y-101981250D03*
%TO.P,SW62,2,2*%
%TO.N,Net-(D62-A)*%
X221081250Y-99441250D03*
%TD*%
%TO.P,SW46,1,1*%
%TO.N,COL12*%
X229018750Y-82931250D03*
%TO.P,SW46,2,2*%
%TO.N,Net-(D46-A)*%
X235368750Y-80391250D03*
%TD*%
%TO.P,SW45,1,1*%
%TO.N,COL11*%
X209968750Y-82931250D03*
%TO.P,SW45,2,2*%
%TO.N,Net-(D45-A)*%
X216318750Y-80391250D03*
%TD*%
%TO.P,SW72,1,1*%
%TO.N,COL9*%
X167106250Y-121031250D03*
%TO.P,SW72,2,2*%
%TO.N,Net-(D72-A)*%
X173456250Y-118491250D03*
%TD*%
%TO.P,SW53,1,1*%
%TO.N,COL2*%
X43281250Y-101981250D03*
%TO.P,SW53,2,2*%
%TO.N,Net-(D53-A)*%
X49631250Y-99441250D03*
%TD*%
%TO.P,SW85,1,1*%
%TO.N,COL15*%
X281406250Y-140081250D03*
%TO.P,SW85,2,2*%
%TO.N,Net-(D85-A)*%
X287756250Y-137541250D03*
%TD*%
%TO.P,SW37,1,1*%
%TO.N,COL3*%
X57568750Y-82931250D03*
%TO.P,SW37,2,2*%
%TO.N,Net-(D37-A)*%
X63918750Y-80391250D03*
%TD*%
%TO.P,SW73,1,1*%
%TO.N,COL10*%
X186156250Y-121031250D03*
%TO.P,SW73,2,2*%
%TO.N,Net-(D73-A)*%
X192506250Y-118491250D03*
%TD*%
%TO.P,SW54,1,1*%
%TO.N,COL3*%
X62331250Y-101981250D03*
%TO.P,SW54,2,2*%
%TO.N,Net-(D54-A)*%
X68681250Y-99441250D03*
%TD*%
%TO.P,SW43,1,1*%
%TO.N,COL9*%
X171868750Y-82931250D03*
%TO.P,SW43,2,2*%
%TO.N,Net-(D43-A)*%
X178218750Y-80391250D03*
%TD*%
%TO.P,SW21,1,1*%
%TO.N,COL4*%
X67093750Y-63881250D03*
%TO.P,SW21,2,2*%
%TO.N,Net-(D21-A)*%
X73443750Y-61341250D03*
%TD*%
%TO.P,SW81,1,1*%
%TO.N,COL10*%
X183775000Y-140081250D03*
%TO.P,SW81,2,2*%
%TO.N,Net-(D81-A)*%
X190125000Y-137541250D03*
%TD*%
%TO.P,SW20,1,1*%
%TO.N,COL3*%
X48043750Y-63881250D03*
%TO.P,SW20,2,2*%
%TO.N,Net-(D20-A)*%
X54393750Y-61341250D03*
%TD*%
%TO.P,SW63,1,1*%
%TO.N,COL13*%
X245687500Y-101981250D03*
%TO.P,SW63,2,2*%
%TO.N,Net-(D63-A)*%
X252037500Y-99441250D03*
%TD*%
%TO.P,SW57,1,1*%
%TO.N,COL6*%
X119481250Y-101981250D03*
%TO.P,SW57,2,2*%
%TO.N,Net-(D57-A)*%
X125831250Y-99441250D03*
%TD*%
%TO.P,SW10,1,1*%
%TO.N,COL11*%
X200443750Y-44831250D03*
%TO.P,SW10,2,2*%
%TO.N,Net-(D10-A)*%
X206793750Y-42291250D03*
%TD*%
%TO.P,SW69,1,1*%
%TO.N,COL6*%
X109956250Y-121031250D03*
%TO.P,SW69,2,2*%
%TO.N,Net-(D69-A)*%
X116306250Y-118491250D03*
%TD*%
%TO.P,SW55,1,1*%
%TO.N,COL4*%
X81381250Y-101981250D03*
%TO.P,SW55,2,2*%
%TO.N,Net-(D55-A)*%
X87731250Y-99441250D03*
%TD*%
%TO.P,SW3,1,1*%
%TO.N,COL3*%
X48043750Y-44831250D03*
%TO.P,SW3,2,2*%
%TO.N,Net-(D3-A)*%
X54393750Y-42291250D03*
%TD*%
%TO.P,SW22,1,1*%
%TO.N,COL5*%
X86143750Y-63881250D03*
%TO.P,SW22,2,2*%
%TO.N,Net-(D22-A)*%
X92493750Y-61341250D03*
%TD*%
%TO.P,SW39,1,1*%
%TO.N,COL5*%
X95668750Y-82931250D03*
%TO.P,SW39,2,2*%
%TO.N,Net-(D39-A)*%
X102018750Y-80391250D03*
%TD*%
%TO.P,SW65,1,1*%
%TO.N,COL2*%
X33756250Y-121031250D03*
%TO.P,SW65,2,2*%
%TO.N,Net-(D65-A)*%
X40106250Y-118491250D03*
%TD*%
%TO.P,SW16,1,1*%
%TO.N,COL17*%
X319506250Y-44831250D03*
%TO.P,SW16,2,2*%
%TO.N,Net-(D16-A)*%
X325856250Y-42291250D03*
%TD*%
%TO.P,SW48,1,1*%
%TO.N,COL15*%
X281406250Y-82931250D03*
%TO.P,SW48,2,2*%
%TO.N,Net-(D48-A)*%
X287756250Y-80391250D03*
%TD*%
%TO.P,SW17,1,1*%
%TO.N,COL0*%
X-9106250Y-63881250D03*
%TO.P,SW17,2,2*%
%TO.N,Net-(D17-A)*%
X-2756250Y-61341250D03*
%TD*%
%TO.P,SW18,1,1*%
%TO.N,COL1*%
X9943750Y-63881250D03*
%TO.P,SW18,2,2*%
%TO.N,Net-(D18-A)*%
X16293750Y-61341250D03*
%TD*%
%TO.P,SW77,1,1*%
%TO.N,COL0*%
X-6725000Y-140081250D03*
%TO.P,SW77,2,2*%
%TO.N,Net-(D77-A)*%
X-375000Y-137541250D03*
%TD*%
%TO.P,SW76,1,1*%
%TO.N,COL16*%
X300456250Y-121031250D03*
%TO.P,SW76,2,2*%
%TO.N,Net-(D76-A)*%
X306806250Y-118491250D03*
%TD*%
%TO.P,SW32,1,1*%
%TO.N,COL16*%
X300456250Y-63881250D03*
%TO.P,SW32,2,2*%
%TO.N,Net-(D32-A)*%
X306806250Y-61341250D03*
%TD*%
%TO.P,SW5,1,1*%
%TO.N,COL5*%
X86143750Y-44831250D03*
%TO.P,SW5,2,2*%
%TO.N,Net-(D5-A)*%
X92493750Y-42291250D03*
%TD*%
%TO.P,SW12,1,1*%
%TO.N,COL13*%
X238543750Y-44831250D03*
%TO.P,SW12,2,2*%
%TO.N,Net-(D12-A)*%
X244893750Y-42291250D03*
%TD*%
%TO.P,SW38,1,1*%
%TO.N,COL4*%
X76618750Y-82931250D03*
%TO.P,SW38,2,2*%
%TO.N,Net-(D38-A)*%
X82968750Y-80391250D03*
%TD*%
%TO.P,SW87,1,1*%
%TO.N,COL17*%
X319506250Y-140081250D03*
%TO.P,SW87,2,2*%
%TO.N,Net-(D87-A)*%
X325856250Y-137541250D03*
%TD*%
%TO.P,SW74,1,1*%
%TO.N,COL11*%
X205206250Y-121031250D03*
%TO.P,SW74,2,2*%
%TO.N,Net-(D74-A)*%
X211556250Y-118491250D03*
%TD*%
%TO.P,SW23,1,1*%
%TO.N,COL6*%
X105193750Y-63881250D03*
%TO.P,SW23,2,2*%
%TO.N,Net-(D23-A)*%
X111543750Y-61341250D03*
%TD*%
D13*
%TO.P,A1,1,GPIO0_1*%
%TO.N,ROW0*%
X357090000Y-100670000D03*
D14*
%TO.P,A1,2,GPIO1_2*%
%TO.N,ROW1*%
X357090000Y-103210000D03*
D15*
%TO.P,A1,3,GND_3*%
%TO.N,Net-(U1-GND)*%
X357090000Y-105750000D03*
D14*
%TO.P,A1,4,GPIO2_4*%
%TO.N,ROW2*%
X357090000Y-108290000D03*
%TO.P,A1,5,GPIO3_5*%
%TO.N,ROW3*%
X357090000Y-110830000D03*
%TO.P,A1,6,GPIO4_6*%
%TO.N,ROW4*%
X357090000Y-113370000D03*
%TO.P,A1,7,GPIO5_7*%
%TO.N,ROW5*%
X357090000Y-115910000D03*
D15*
%TO.P,A1,8,GND_8*%
%TO.N,Net-(U1-GND)*%
X357090000Y-118450000D03*
D14*
%TO.P,A1,9,GPIO6_9*%
%TO.N,COL0*%
X357090000Y-120990000D03*
%TO.P,A1,10,GPIO7_10*%
%TO.N,COL1*%
X357090000Y-123530000D03*
%TO.P,A1,11,GPIO8_11*%
%TO.N,COL2*%
X357090000Y-126070000D03*
%TO.P,A1,12,GPIO9_12*%
%TO.N,COL3*%
X357090000Y-128610000D03*
D15*
%TO.P,A1,13,GND_13*%
%TO.N,Net-(U1-GND)*%
X357090000Y-131150000D03*
D14*
%TO.P,A1,14,GPIO10_14*%
%TO.N,COL4*%
X357090000Y-133690000D03*
%TO.P,A1,15,GPIO11_15*%
%TO.N,COL5*%
X357090000Y-136230000D03*
%TO.P,A1,16,GPIO12_16*%
%TO.N,COL6*%
X357090000Y-138770000D03*
%TO.P,A1,17,GPIO13_17*%
%TO.N,COL7*%
X357090000Y-141310000D03*
D15*
%TO.P,A1,18,GND_18*%
%TO.N,Net-(U1-GND)*%
X357090000Y-143850000D03*
D14*
%TO.P,A1,19,GPIO14_19*%
%TO.N,COL8*%
X357090000Y-146390000D03*
%TO.P,A1,20,GPIO15_20*%
%TO.N,COL9*%
X357090000Y-148930000D03*
%TO.P,A1,21,GPIO16_21*%
%TO.N,COL10*%
X339310000Y-148930000D03*
%TO.P,A1,22,GPIO17_22*%
%TO.N,COL11*%
X339310000Y-146390000D03*
D16*
%TO.P,A1,23,GND_23*%
%TO.N,Net-(U1-GND)*%
X339310000Y-143850000D03*
D14*
%TO.P,A1,24,GPIO18_24*%
%TO.N,COL12*%
X339310000Y-141310000D03*
%TO.P,A1,25,GPIO19_25*%
%TO.N,COL13*%
X339310000Y-138770000D03*
%TO.P,A1,26,GPIO20_26*%
%TO.N,COL14*%
X339310000Y-136230000D03*
%TO.P,A1,27,GPIO21_27*%
%TO.N,COL15*%
X339310000Y-133690000D03*
D16*
%TO.P,A1,28,GND_28*%
%TO.N,Net-(U1-GND)*%
X339310000Y-131150000D03*
D14*
%TO.P,A1,29,GPIO22_29*%
%TO.N,COL16*%
X339310000Y-128610000D03*
%TO.P,A1,30,RUN_30*%
%TO.N,unconnected-(A1-RUN-Pad30)*%
X339310000Y-126070000D03*
%TO.P,A1,31,GPIO26_ADC0_31*%
%TO.N,Net-(A1-GPIO26_ADC0)*%
X339310000Y-123530000D03*
%TO.P,A1,32,GPIO27_ADC1_32*%
%TO.N,Net-(A1-GPIO27_ADC1)*%
X339310000Y-120990000D03*
D16*
%TO.P,A1,33,AGND_33*%
%TO.N,unconnected-(A1-AGND-Pad33)*%
X339310000Y-118450000D03*
D14*
%TO.P,A1,34,GPIO28_ADC2_34*%
%TO.N,COL17*%
X339310000Y-115910000D03*
%TO.P,A1,35,ADC_VREF_35*%
%TO.N,unconnected-(A1-ADC_VREF-Pad35)*%
X339310000Y-113370000D03*
%TO.P,A1,36,3V3_36*%
%TO.N,Net-(A1-3V3)*%
X339310000Y-110830000D03*
%TO.P,A1,37,3V3_EN_37*%
%TO.N,unconnected-(A1-3V3_EN-Pad37)*%
X339310000Y-108290000D03*
D16*
%TO.P,A1,38,GND_38*%
%TO.N,Net-(U1-GND)*%
X339310000Y-105750000D03*
D14*
%TO.P,A1,39,VSYS_39*%
%TO.N,unconnected-(A1-VSYS-Pad39)*%
X339310000Y-103210000D03*
%TO.P,A1,40,VBUS_40*%
%TO.N,unconnected-(A1-VBUS-Pad40)*%
X339310000Y-100670000D03*
%TD*%
%TO.N,COL8*%
D17*
X356275635Y-151300000D02*
X358190000Y-149385635D01*
X152818750Y-82931250D02*
X152818750Y-97218750D01*
X358190000Y-147490000D02*
X357090000Y-146390000D01*
X143293750Y-63881250D02*
X143293750Y-73406250D01*
X188885653Y-151300000D02*
X356275635Y-151300000D01*
X158616903Y-121031250D02*
X188885653Y-151300000D01*
X152818750Y-54356250D02*
X152818750Y-44831250D01*
X143293750Y-63881250D02*
X152818750Y-54356250D01*
X152818750Y-97218750D02*
X157581250Y-101981250D01*
X157581250Y-111506250D02*
X148056250Y-121031250D01*
X148056250Y-121031250D02*
X158616903Y-121031250D01*
X143293750Y-73406250D02*
X152818750Y-82931250D01*
X358190000Y-149385635D02*
X358190000Y-147490000D01*
X157581250Y-101981250D02*
X157581250Y-111506250D01*
%TO.N,COL17*%
X319506250Y-140081250D02*
X319506250Y-130493750D01*
X319506250Y-82931250D02*
X319506250Y-140081250D01*
X334090000Y-115910000D02*
X339310000Y-115910000D01*
X319506250Y-130493750D02*
X334090000Y-115910000D01*
X319506250Y-44831250D02*
X319506250Y-63881250D01*
X319506250Y-63881250D02*
X319506250Y-82931250D01*
%TO.N,COL12*%
X219493750Y-44831250D02*
X219493750Y-63881250D01*
X219493750Y-73406250D02*
X229018750Y-82931250D01*
X231400000Y-142134652D02*
X235036598Y-145771250D01*
X235036598Y-145771250D02*
X334848750Y-145771250D01*
X334848750Y-145771250D02*
X339310000Y-141310000D01*
X231400000Y-140081250D02*
X231400000Y-142134652D01*
X229018750Y-137700000D02*
X231400000Y-140081250D01*
X219493750Y-63881250D02*
X219493750Y-73406250D01*
X229018750Y-82931250D02*
X229018750Y-137700000D01*
%TO.N,COL13*%
X259805902Y-140081250D02*
X265095902Y-145371250D01*
X238543750Y-44831250D02*
X238543750Y-54356250D01*
X265095902Y-145371250D02*
X332708750Y-145371250D01*
X252831250Y-94837500D02*
X245687500Y-101981250D01*
X240925000Y-121031250D02*
X240925000Y-125793750D01*
X248068750Y-78168750D02*
X252831250Y-82931250D01*
X245687500Y-101981250D02*
X245687500Y-116268750D01*
X238543750Y-54356250D02*
X248068750Y-63881250D01*
X252831250Y-82931250D02*
X252831250Y-94837500D01*
X248068750Y-63881250D02*
X248068750Y-78168750D01*
X245687500Y-116268750D02*
X240925000Y-121031250D01*
X332708750Y-145371250D02*
X339310000Y-138770000D01*
X255212500Y-140081250D02*
X259805902Y-140081250D01*
X240925000Y-125793750D02*
X255212500Y-140081250D01*
%TO.N,COL11*%
X209968750Y-97218750D02*
X214731250Y-101981250D01*
X209968750Y-82931250D02*
X209968750Y-97218750D01*
X205206250Y-121031250D02*
X205206250Y-137700000D01*
X200443750Y-44831250D02*
X200443750Y-63881250D01*
X222490000Y-146390000D02*
X339310000Y-146390000D01*
X205206250Y-137700000D02*
X207587500Y-140081250D01*
X216181250Y-140081250D02*
X222490000Y-146390000D01*
X200443750Y-63881250D02*
X200443750Y-73406250D01*
X200443750Y-73406250D02*
X209968750Y-82931250D01*
X207587500Y-140081250D02*
X216181250Y-140081250D01*
X214731250Y-111506250D02*
X205206250Y-121031250D01*
X214731250Y-101981250D02*
X214731250Y-111506250D01*
%TO.N,COL7*%
X124243750Y-63881250D02*
X124243750Y-73406250D01*
X138531250Y-111506250D02*
X129006250Y-121031250D01*
X358590000Y-149551320D02*
X358590000Y-142810000D01*
X133599652Y-121031250D02*
X160838798Y-148270396D01*
X185290363Y-148270396D02*
X188719968Y-151700000D01*
X133768750Y-54356250D02*
X133768750Y-44831250D01*
X358590000Y-142810000D02*
X357090000Y-141310000D01*
X133768750Y-97218750D02*
X138531250Y-101981250D01*
X160838798Y-148270396D02*
X185290363Y-148270396D01*
X124243750Y-73406250D02*
X133768750Y-82931250D01*
X129006250Y-121031250D02*
X133599652Y-121031250D01*
X124243750Y-63881250D02*
X133768750Y-54356250D01*
X356441321Y-151700000D02*
X358590000Y-149551320D01*
X133768750Y-82931250D02*
X133768750Y-97218750D01*
X138531250Y-101981250D02*
X138531250Y-111506250D01*
X188719968Y-151700000D02*
X356441321Y-151700000D01*
%TO.N,COL10*%
X183775000Y-140081250D02*
X188368402Y-140081250D01*
X188368402Y-140081250D02*
X197217152Y-148930000D01*
X186156250Y-137700000D02*
X183775000Y-140081250D01*
X186156250Y-121031250D02*
X186156250Y-137700000D01*
X190918750Y-82931250D02*
X190918750Y-97218750D01*
X197217152Y-148930000D02*
X339310000Y-148930000D01*
X181393750Y-63881250D02*
X181393750Y-73406250D01*
X190918750Y-97218750D02*
X195681250Y-101981250D01*
X181393750Y-73406250D02*
X190918750Y-82931250D01*
X195681250Y-101981250D02*
X195681250Y-111506250D01*
X195681250Y-111506250D02*
X186156250Y-121031250D01*
%TO.N,COL6*%
X354707005Y-154000000D02*
X358990000Y-149717005D01*
X358990000Y-140670000D02*
X357090000Y-138770000D01*
X119481250Y-111506250D02*
X109956250Y-121031250D01*
X105193750Y-63881250D02*
X114718750Y-54356250D01*
X109956250Y-121031250D02*
X109956250Y-137700000D01*
X105193750Y-73406250D02*
X114718750Y-82931250D01*
X130849652Y-154000000D02*
X354707005Y-154000000D01*
X116930902Y-140081250D02*
X130849652Y-154000000D01*
X114718750Y-82931250D02*
X114718750Y-97218750D01*
X109956250Y-137700000D02*
X112337500Y-140081250D01*
X358990000Y-149717005D02*
X358990000Y-140670000D01*
X119481250Y-101981250D02*
X119481250Y-111506250D01*
X114718750Y-97218750D02*
X119481250Y-101981250D01*
X114718750Y-54356250D02*
X114718750Y-44831250D01*
X112337500Y-140081250D02*
X116930902Y-140081250D01*
X105193750Y-63881250D02*
X105193750Y-73406250D01*
%TO.N,COL9*%
X171868750Y-54356250D02*
X171868750Y-44831250D01*
X176631250Y-101981250D02*
X176631250Y-111506250D01*
X189051338Y-150900000D02*
X355120000Y-150900000D01*
X162343750Y-73406250D02*
X171868750Y-82931250D01*
X167106250Y-128954912D02*
X189051338Y-150900000D01*
X162343750Y-63881250D02*
X171868750Y-54356250D01*
X171868750Y-82931250D02*
X171868750Y-97218750D01*
X171868750Y-97218750D02*
X176631250Y-101981250D01*
X167106250Y-121031250D02*
X167106250Y-128954912D01*
X355120000Y-150900000D02*
X357090000Y-148930000D01*
X162343750Y-63881250D02*
X162343750Y-73406250D01*
X176631250Y-111506250D02*
X167106250Y-121031250D01*
%TO.N,COL15*%
X281406250Y-63881250D02*
X281406250Y-82931250D01*
X284242848Y-144971250D02*
X328028750Y-144971250D01*
X281406250Y-44831250D02*
X281406250Y-63881250D01*
X281406250Y-82931250D02*
X281406250Y-140081250D01*
X328028750Y-144971250D02*
X339310000Y-133690000D01*
X281406250Y-140081250D02*
X281406250Y-142134652D01*
X281406250Y-142134652D02*
X284242848Y-144971250D01*
%TO.N,COL2*%
X28993750Y-63881250D02*
X28993750Y-73406250D01*
X360590000Y-150379745D02*
X360590000Y-129570000D01*
X40900000Y-140081250D02*
X67376578Y-140081250D01*
X43281250Y-111506250D02*
X33756250Y-121031250D01*
X33756250Y-132937500D02*
X40900000Y-140081250D01*
X33756250Y-121031250D02*
X33756250Y-132937500D01*
X360590000Y-129570000D02*
X357090000Y-126070000D01*
X28993750Y-44831250D02*
X28993750Y-63881250D01*
X28993750Y-73406250D02*
X38518750Y-82931250D01*
X67376578Y-140081250D02*
X82895329Y-155600000D01*
X43281250Y-101981250D02*
X43281250Y-111506250D01*
X38518750Y-82931250D02*
X38518750Y-97218750D01*
X38518750Y-97218750D02*
X43281250Y-101981250D01*
X355369748Y-155600000D02*
X360590000Y-150379745D01*
X82895329Y-155600000D02*
X355369748Y-155600000D01*
%TO.N,COL4*%
X81381250Y-111506250D02*
X71856250Y-121031250D01*
X92300000Y-154800000D02*
X355038376Y-154800000D01*
X71856250Y-121031250D02*
X71856250Y-134356250D01*
X355038376Y-154800000D02*
X359790000Y-150048375D01*
X359790000Y-136390000D02*
X357090000Y-133690000D01*
X81381250Y-101981250D02*
X81381250Y-111506250D01*
X359790000Y-150048375D02*
X359790000Y-136390000D01*
X71856250Y-134356250D02*
X92300000Y-154800000D01*
X67093750Y-44831250D02*
X67093750Y-63881250D01*
X67093750Y-73406250D02*
X76618750Y-82931250D01*
X76618750Y-82931250D02*
X76618750Y-97218750D01*
X67093750Y-63881250D02*
X67093750Y-73406250D01*
X76618750Y-97218750D02*
X81381250Y-101981250D01*
%TO.N,COL1*%
X360990000Y-150545430D02*
X360990000Y-127430000D01*
X17087500Y-140081250D02*
X35357588Y-140081250D01*
X24231250Y-132937500D02*
X17087500Y-140081250D01*
X19468750Y-82931250D02*
X19468750Y-97218750D01*
X355535434Y-156000000D02*
X360990000Y-150545430D01*
X51276338Y-156000000D02*
X355535434Y-156000000D01*
X19468750Y-97218750D02*
X24231250Y-101981250D01*
X35357588Y-140081250D02*
X51276338Y-156000000D01*
X24231250Y-101981250D02*
X24231250Y-132937500D01*
X9943750Y-63881250D02*
X9943750Y-73406250D01*
X9943750Y-73406250D02*
X19468750Y-82931250D01*
X360990000Y-127430000D02*
X357090000Y-123530000D01*
%TO.N,COL0*%
X-1962500Y-116268750D02*
X2800000Y-121031250D01*
X361390000Y-125290000D02*
X357090000Y-120990000D01*
X-4343750Y-82931250D02*
X-4343750Y-99600000D01*
X-9106250Y-63881250D02*
X-9106250Y-78168750D01*
X-9106250Y-78168750D02*
X-4343750Y-82931250D01*
X-1962500Y-101981250D02*
X-1962500Y-116268750D01*
X2800000Y-130556250D02*
X-6725000Y-140081250D01*
X355701115Y-156400000D02*
X361390000Y-150711115D01*
X11545088Y-140081250D02*
X27863838Y-156400000D01*
X-6725000Y-140081250D02*
X11545088Y-140081250D01*
X361390000Y-150711115D02*
X361390000Y-125290000D01*
X2800000Y-121031250D02*
X2800000Y-130556250D01*
X-4343750Y-99600000D02*
X-1962500Y-101981250D01*
X-9106250Y-44831250D02*
X-9106250Y-63881250D01*
X27863838Y-156400000D02*
X355701115Y-156400000D01*
%TO.N,COL16*%
X308814652Y-143846250D02*
X318743662Y-143846250D01*
X300456250Y-82931250D02*
X300456250Y-121031250D01*
X300456250Y-44831250D02*
X300456250Y-63881250D01*
X305049652Y-140081250D02*
X308814652Y-143846250D01*
X328828750Y-139091250D02*
X339310000Y-128610000D01*
X300456250Y-140081250D02*
X305049652Y-140081250D01*
X300456250Y-121031250D02*
X300456250Y-140081250D01*
X318743662Y-143846250D02*
X323498662Y-139091250D01*
X323498662Y-139091250D02*
X328828750Y-139091250D01*
X300456250Y-63881250D02*
X300456250Y-82931250D01*
%TO.N,COL5*%
X86143750Y-73406250D02*
X95668750Y-82931250D01*
X359390000Y-138530000D02*
X357090000Y-136230000D01*
X90906250Y-124192412D02*
X121113838Y-154400000D01*
X359390000Y-149882690D02*
X359390000Y-138530000D01*
X86143750Y-44831250D02*
X86143750Y-63881250D01*
X90906250Y-121031250D02*
X90906250Y-124192412D01*
X86143750Y-63881250D02*
X86143750Y-73406250D01*
X100431250Y-101981250D02*
X100431250Y-111506250D01*
X354872690Y-154400000D02*
X359390000Y-149882690D01*
X121113838Y-154400000D02*
X354872690Y-154400000D01*
X95668750Y-82931250D02*
X95668750Y-97218750D01*
X95668750Y-97218750D02*
X100431250Y-101981250D01*
X100431250Y-111506250D02*
X90906250Y-121031250D01*
%TO.N,Net-(U1-GND)*%
X358240000Y-104600000D02*
X357090000Y-105750000D01*
X324900000Y-24290000D02*
X361900000Y-61290000D01*
X361900000Y-104600000D02*
X358240000Y-104600000D01*
X361900000Y-61290000D02*
X361900000Y-104600000D01*
%TO.N,Net-(A1-3V3)*%
X341700000Y-43630000D02*
X341700000Y-110700000D01*
X341700000Y-110700000D02*
X341500000Y-110700000D01*
X324900000Y-26830000D02*
X341700000Y-43630000D01*
X341370000Y-110830000D02*
X339310000Y-110830000D01*
X341500000Y-110700000D02*
X341370000Y-110830000D01*
%TO.N,Net-(A1-GPIO26_ADC0)*%
X340415000Y-115459365D02*
X340415000Y-122425000D01*
X336010000Y-40480000D02*
X336010000Y-111965635D01*
X336010000Y-111965635D02*
X338854365Y-114810000D01*
X340415000Y-122425000D02*
X339310000Y-123530000D01*
X324900000Y-29370000D02*
X336010000Y-40480000D01*
X339765635Y-114810000D02*
X340415000Y-115459365D01*
X338854365Y-114810000D02*
X339765635Y-114810000D01*
%TO.N,Net-(A1-GPIO27_ADC1)*%
X323750000Y-28893654D02*
X324423654Y-28220000D01*
X338210000Y-123985635D02*
X338210000Y-122090000D01*
X340815000Y-123580635D02*
X339765635Y-124630000D01*
X340815000Y-113319365D02*
X340815000Y-123580635D01*
X341204314Y-44047968D02*
X341204314Y-108291321D01*
X323750000Y-30760000D02*
X323750000Y-28893654D01*
X338210000Y-110374365D02*
X338210000Y-111285635D01*
X338210000Y-122090000D02*
X339310000Y-120990000D01*
X338854365Y-124630000D02*
X338210000Y-123985635D01*
X339765635Y-112270000D02*
X340815000Y-113319365D01*
X324423654Y-28220000D02*
X325376346Y-28220000D01*
X338210000Y-111285635D02*
X339194365Y-112270000D01*
X324900000Y-31910000D02*
X323750000Y-30760000D01*
X339765635Y-109730000D02*
X338854365Y-109730000D01*
X339194365Y-112270000D02*
X339765635Y-112270000D01*
X325376346Y-28220000D02*
X341204314Y-44047968D01*
X338854365Y-109730000D02*
X338210000Y-110374365D01*
X341204314Y-108291321D02*
X339765635Y-109730000D01*
X339765635Y-124630000D02*
X338854365Y-124630000D01*
%TO.N,COL3*%
X48043750Y-73406250D02*
X57568750Y-82931250D01*
X52806250Y-121031250D02*
X52806250Y-124945236D01*
X83061014Y-155200000D02*
X355204062Y-155200000D01*
X360190000Y-150214060D02*
X360190000Y-131710000D01*
X360190000Y-131710000D02*
X357090000Y-128610000D01*
X62331250Y-101981250D02*
X62331250Y-111506250D01*
X57568750Y-82931250D02*
X57568750Y-97218750D01*
X57568750Y-97218750D02*
X62331250Y-101981250D01*
X355204062Y-155200000D02*
X360190000Y-150214060D01*
X62331250Y-111506250D02*
X52806250Y-121031250D01*
X48043750Y-63881250D02*
X48043750Y-73406250D01*
X52806250Y-124945236D02*
X83061014Y-155200000D01*
X48043750Y-44831250D02*
X48043750Y-63881250D01*
%TD*%
M02*
