ISO-10303-21;
HEADER;
/* Generated by software containing ST-Developer
 * from STEP Tools, Inc. (www.steptools.com) 
 */

FILE_DESCRIPTION(
/* description */ ('KiCad electronic assembly'),
/* implementation_level */ '2;1');

FILE_NAME(
/* name */ 'screen holder 1 step.step',
/* time_stamp */ '2026-08-21T11:39:54+02:00',
/* author */ (''),
/* organization */ (''),
/* preprocessor_version */ 'ST-DEVELOPER v20.1',
/* originating_system */ 'Autodesk Translation Framework v15.8.0.0',
/* authorisation */ '');

FILE_SCHEMA (('AUTOMOTIVE_DESIGN { 1 0 10303 214 3 1 1 }'));
ENDSEC;

DATA;
#10=MECHANICAL_DESIGN_GEOMETRIC_PRESENTATION_REPRESENTATION('',(#13),#676);
#11=SHAPE_REPRESENTATION_RELATIONSHIP('SRR','None',#682,#12);
#12=ADVANCED_BREP_SHAPE_REPRESENTATION('',(#14),#675);
#13=STYLED_ITEM('',(#691),#14);
#14=MANIFOLD_SOLID_BREP('screen holder (1)',#428);
#15=FACE_BOUND('',#56,.T.);
#16=FACE_BOUND('',#59,.T.);
#17=FACE_BOUND('',#63,.T.);
#18=FACE_BOUND('',#65,.T.);
#19=CYLINDRICAL_SURFACE('',#441,2.);
#20=CIRCLE('',#438,2.);
#21=CIRCLE('',#442,2.);
#22=FACE_OUTER_BOUND('',#43,.T.);
#23=FACE_OUTER_BOUND('',#44,.T.);
#24=FACE_OUTER_BOUND('',#45,.T.);
#25=FACE_OUTER_BOUND('',#46,.T.);
#26=FACE_OUTER_BOUND('',#47,.T.);
#27=FACE_OUTER_BOUND('',#48,.T.);
#28=FACE_OUTER_BOUND('',#49,.T.);
#29=FACE_OUTER_BOUND('',#50,.T.);
#30=FACE_OUTER_BOUND('',#51,.T.);
#31=FACE_OUTER_BOUND('',#52,.T.);
#32=FACE_OUTER_BOUND('',#53,.T.);
#33=FACE_OUTER_BOUND('',#54,.T.);
#34=FACE_OUTER_BOUND('',#55,.T.);
#35=FACE_OUTER_BOUND('',#57,.T.);
#36=FACE_OUTER_BOUND('',#58,.T.);
#37=FACE_OUTER_BOUND('',#60,.T.);
#38=FACE_OUTER_BOUND('',#61,.T.);
#39=FACE_OUTER_BOUND('',#62,.T.);
#40=FACE_OUTER_BOUND('',#64,.T.);
#41=FACE_OUTER_BOUND('',#66,.T.);
#42=FACE_OUTER_BOUND('',#67,.T.);
#43=EDGE_LOOP('',(#273,#274,#275,#276));
#44=EDGE_LOOP('',(#277,#278,#279,#280));
#45=EDGE_LOOP('',(#281,#282,#283,#284));
#46=EDGE_LOOP('',(#285,#286,#287,#288));
#47=EDGE_LOOP('',(#289,#290,#291,#292));
#48=EDGE_LOOP('',(#293,#294,#295,#296));
#49=EDGE_LOOP('',(#297,#298,#299,#300));
#50=EDGE_LOOP('',(#301,#302,#303,#304,#305,#306,#307,#308,#309,#310));
#51=EDGE_LOOP('',(#311,#312,#313,#314));
#52=EDGE_LOOP('',(#315,#316,#317,#318));
#53=EDGE_LOOP('',(#319,#320,#321,#322));
#54=EDGE_LOOP('',(#323,#324,#325,#326,#327,#328,#329,#330,#331,#332));
#55=EDGE_LOOP('',(#333,#334,#335,#336));
#56=EDGE_LOOP('',(#337,#338,#339,#340));
#57=EDGE_LOOP('',(#341,#342,#343,#344));
#58=EDGE_LOOP('',(#345,#346,#347,#348));
#59=EDGE_LOOP('',(#349,#350,#351,#352));
#60=EDGE_LOOP('',(#353,#354,#355,#356));
#61=EDGE_LOOP('',(#357,#358,#359,#360));
#62=EDGE_LOOP('',(#361,#362,#363,#364));
#63=EDGE_LOOP('',(#365,#366,#367,#368));
#64=EDGE_LOOP('',(#369,#370,#371,#372));
#65=EDGE_LOOP('',(#373,#374,#375,#376));
#66=EDGE_LOOP('',(#377,#378,#379,#380,#381));
#67=EDGE_LOOP('',(#382,#383,#384,#385,#386));
#68=LINE('',#560,#123);
#69=LINE('',#562,#124);
#70=LINE('',#564,#125);
#71=LINE('',#565,#126);
#72=LINE('',#568,#127);
#73=LINE('',#570,#128);
#74=LINE('',#571,#129);
#75=LINE('',#574,#130);
#76=LINE('',#576,#131);
#77=LINE('',#577,#132);
#78=LINE('',#579,#133);
#79=LINE('',#580,#134);
#80=LINE('',#584,#135);
#81=LINE('',#586,#136);
#82=LINE('',#588,#137);
#83=LINE('',#589,#138);
#84=LINE('',#593,#139);
#85=LINE('',#595,#140);
#86=LINE('',#597,#141);
#87=LINE('',#598,#142);
#88=LINE('',#602,#143);
#89=LINE('',#603,#144);
#90=LINE('',#604,#145);
#91=LINE('',#606,#146);
#92=LINE('',#608,#147);
#93=LINE('',#610,#148);
#94=LINE('',#614,#149);
#95=LINE('',#616,#150);
#96=LINE('',#617,#151);
#97=LINE('',#620,#152);
#98=LINE('',#621,#153);
#99=LINE('',#624,#154);
#100=LINE('',#626,#155);
#101=LINE('',#627,#156);
#102=LINE('',#630,#157);
#103=LINE('',#632,#158);
#104=LINE('',#635,#159);
#105=LINE('',#636,#160);
#106=LINE('',#637,#161);
#107=LINE('',#638,#162);
#108=LINE('',#644,#163);
#109=LINE('',#646,#164);
#110=LINE('',#648,#165);
#111=LINE('',#649,#166);
#112=LINE('',#652,#167);
#113=LINE('',#654,#168);
#114=LINE('',#655,#169);
#115=LINE('',#658,#170);
#116=LINE('',#660,#171);
#117=LINE('',#661,#172);
#118=LINE('',#664,#173);
#119=LINE('',#666,#174);
#120=LINE('',#667,#175);
#121=LINE('',#669,#176);
#122=LINE('',#670,#177);
#123=VECTOR('',#457,10.);
#124=VECTOR('',#458,10.);
#125=VECTOR('',#459,10.);
#126=VECTOR('',#460,10.);
#127=VECTOR('',#463,10.);
#128=VECTOR('',#464,10.);
#129=VECTOR('',#465,10.);
#130=VECTOR('',#468,10.);
#131=VECTOR('',#469,10.);
#132=VECTOR('',#470,10.);
#133=VECTOR('',#473,10.);
#134=VECTOR('',#474,10.);
#135=VECTOR('',#477,10.);
#136=VECTOR('',#478,10.);
#137=VECTOR('',#479,10.);
#138=VECTOR('',#480,10.);
#139=VECTOR('',#483,10.);
#140=VECTOR('',#484,10.);
#141=VECTOR('',#485,10.);
#142=VECTOR('',#486,10.);
#143=VECTOR('',#489,10.);
#144=VECTOR('',#490,10.);
#145=VECTOR('',#491,10.);
#146=VECTOR('',#494,10.);
#147=VECTOR('',#495,10.);
#148=VECTOR('',#496,10.);
#149=VECTOR('',#499,10.);
#150=VECTOR('',#500,10.);
#151=VECTOR('',#501,10.);
#152=VECTOR('',#504,10.);
#153=VECTOR('',#505,10.);
#154=VECTOR('',#508,10.);
#155=VECTOR('',#509,10.);
#156=VECTOR('',#510,10.);
#157=VECTOR('',#513,10.);
#158=VECTOR('',#514,10.);
#159=VECTOR('',#519,10.);
#160=VECTOR('',#520,10.);
#161=VECTOR('',#521,10.);
#162=VECTOR('',#522,10.);
#163=VECTOR('',#529,10.);
#164=VECTOR('',#530,10.);
#165=VECTOR('',#531,10.);
#166=VECTOR('',#532,10.);
#167=VECTOR('',#535,10.);
#168=VECTOR('',#536,10.);
#169=VECTOR('',#537,10.);
#170=VECTOR('',#540,10.);
#171=VECTOR('',#541,10.);
#172=VECTOR('',#542,10.);
#173=VECTOR('',#545,10.);
#174=VECTOR('',#546,10.);
#175=VECTOR('',#547,10.);
#176=VECTOR('',#550,10.);
#177=VECTOR('',#551,10.);
#178=VERTEX_POINT('',#558);
#179=VERTEX_POINT('',#559);
#180=VERTEX_POINT('',#561);
#181=VERTEX_POINT('',#563);
#182=VERTEX_POINT('',#567);
#183=VERTEX_POINT('',#569);
#184=VERTEX_POINT('',#573);
#185=VERTEX_POINT('',#575);
#186=VERTEX_POINT('',#582);
#187=VERTEX_POINT('',#583);
#188=VERTEX_POINT('',#585);
#189=VERTEX_POINT('',#587);
#190=VERTEX_POINT('',#591);
#191=VERTEX_POINT('',#592);
#192=VERTEX_POINT('',#594);
#193=VERTEX_POINT('',#596);
#194=VERTEX_POINT('',#600);
#195=VERTEX_POINT('',#601);
#196=VERTEX_POINT('',#607);
#197=VERTEX_POINT('',#609);
#198=VERTEX_POINT('',#611);
#199=VERTEX_POINT('',#613);
#200=VERTEX_POINT('',#615);
#201=VERTEX_POINT('',#619);
#202=VERTEX_POINT('',#623);
#203=VERTEX_POINT('',#625);
#204=VERTEX_POINT('',#629);
#205=VERTEX_POINT('',#631);
#206=VERTEX_POINT('',#642);
#207=VERTEX_POINT('',#643);
#208=VERTEX_POINT('',#645);
#209=VERTEX_POINT('',#647);
#210=VERTEX_POINT('',#651);
#211=VERTEX_POINT('',#653);
#212=VERTEX_POINT('',#657);
#213=VERTEX_POINT('',#659);
#214=VERTEX_POINT('',#663);
#215=VERTEX_POINT('',#665);
#216=EDGE_CURVE('',#178,#179,#68,.T.);
#217=EDGE_CURVE('',#180,#178,#69,.T.);
#218=EDGE_CURVE('',#181,#180,#70,.T.);
#219=EDGE_CURVE('',#181,#179,#71,.T.);
#220=EDGE_CURVE('',#179,#182,#72,.T.);
#221=EDGE_CURVE('',#183,#181,#73,.T.);
#222=EDGE_CURVE('',#183,#182,#74,.T.);
#223=EDGE_CURVE('',#182,#184,#75,.T.);
#224=EDGE_CURVE('',#185,#183,#76,.T.);
#225=EDGE_CURVE('',#185,#184,#77,.T.);
#226=EDGE_CURVE('',#184,#178,#78,.T.);
#227=EDGE_CURVE('',#180,#185,#79,.T.);
#228=EDGE_CURVE('',#186,#187,#80,.T.);
#229=EDGE_CURVE('',#188,#186,#81,.T.);
#230=EDGE_CURVE('',#189,#188,#82,.T.);
#231=EDGE_CURVE('',#189,#187,#83,.T.);
#232=EDGE_CURVE('',#190,#191,#84,.T.);
#233=EDGE_CURVE('',#190,#192,#85,.T.);
#234=EDGE_CURVE('',#192,#193,#86,.T.);
#235=EDGE_CURVE('',#191,#193,#87,.T.);
#236=EDGE_CURVE('',#194,#195,#88,.T.);
#237=EDGE_CURVE('',#193,#194,#89,.T.);
#238=EDGE_CURVE('',#195,#192,#90,.T.);
#239=EDGE_CURVE('',#188,#190,#91,.T.);
#240=EDGE_CURVE('',#186,#196,#92,.T.);
#241=EDGE_CURVE('',#196,#197,#93,.T.);
#242=EDGE_CURVE('',#197,#198,#20,.T.);
#243=EDGE_CURVE('',#199,#198,#94,.T.);
#244=EDGE_CURVE('',#199,#200,#95,.T.);
#245=EDGE_CURVE('',#200,#195,#96,.T.);
#246=EDGE_CURVE('',#201,#187,#97,.T.);
#247=EDGE_CURVE('',#196,#201,#98,.T.);
#248=EDGE_CURVE('',#202,#199,#99,.T.);
#249=EDGE_CURVE('',#203,#202,#100,.T.);
#250=EDGE_CURVE('',#200,#203,#101,.T.);
#251=EDGE_CURVE('',#198,#204,#102,.T.);
#252=EDGE_CURVE('',#205,#197,#103,.T.);
#253=EDGE_CURVE('',#204,#205,#21,.T.);
#254=EDGE_CURVE('',#194,#203,#104,.T.);
#255=EDGE_CURVE('',#204,#202,#105,.T.);
#256=EDGE_CURVE('',#205,#201,#106,.T.);
#257=EDGE_CURVE('',#191,#189,#107,.T.);
#258=EDGE_CURVE('',#206,#207,#108,.T.);
#259=EDGE_CURVE('',#206,#208,#109,.T.);
#260=EDGE_CURVE('',#209,#208,#110,.T.);
#261=EDGE_CURVE('',#207,#209,#111,.T.);
#262=EDGE_CURVE('',#210,#207,#112,.T.);
#263=EDGE_CURVE('',#211,#209,#113,.T.);
#264=EDGE_CURVE('',#210,#211,#114,.T.);
#265=EDGE_CURVE('',#212,#210,#115,.T.);
#266=EDGE_CURVE('',#213,#211,#116,.T.);
#267=EDGE_CURVE('',#212,#213,#117,.T.);
#268=EDGE_CURVE('',#214,#212,#118,.T.);
#269=EDGE_CURVE('',#215,#213,#119,.T.);
#270=EDGE_CURVE('',#214,#215,#120,.T.);
#271=EDGE_CURVE('',#214,#206,#121,.T.);
#272=EDGE_CURVE('',#208,#215,#122,.T.);
#273=ORIENTED_EDGE('',*,*,#216,.F.);
#274=ORIENTED_EDGE('',*,*,#217,.F.);
#275=ORIENTED_EDGE('',*,*,#218,.F.);
#276=ORIENTED_EDGE('',*,*,#219,.T.);
#277=ORIENTED_EDGE('',*,*,#220,.F.);
#278=ORIENTED_EDGE('',*,*,#219,.F.);
#279=ORIENTED_EDGE('',*,*,#221,.F.);
#280=ORIENTED_EDGE('',*,*,#222,.T.);
#281=ORIENTED_EDGE('',*,*,#223,.F.);
#282=ORIENTED_EDGE('',*,*,#222,.F.);
#283=ORIENTED_EDGE('',*,*,#224,.F.);
#284=ORIENTED_EDGE('',*,*,#225,.T.);
#285=ORIENTED_EDGE('',*,*,#226,.F.);
#286=ORIENTED_EDGE('',*,*,#225,.F.);
#287=ORIENTED_EDGE('',*,*,#227,.F.);
#288=ORIENTED_EDGE('',*,*,#217,.T.);
#289=ORIENTED_EDGE('',*,*,#228,.F.);
#290=ORIENTED_EDGE('',*,*,#229,.F.);
#291=ORIENTED_EDGE('',*,*,#230,.F.);
#292=ORIENTED_EDGE('',*,*,#231,.T.);
#293=ORIENTED_EDGE('',*,*,#232,.F.);
#294=ORIENTED_EDGE('',*,*,#233,.T.);
#295=ORIENTED_EDGE('',*,*,#234,.T.);
#296=ORIENTED_EDGE('',*,*,#235,.F.);
#297=ORIENTED_EDGE('',*,*,#236,.F.);
#298=ORIENTED_EDGE('',*,*,#237,.F.);
#299=ORIENTED_EDGE('',*,*,#234,.F.);
#300=ORIENTED_EDGE('',*,*,#238,.F.);
#301=ORIENTED_EDGE('',*,*,#238,.T.);
#302=ORIENTED_EDGE('',*,*,#233,.F.);
#303=ORIENTED_EDGE('',*,*,#239,.F.);
#304=ORIENTED_EDGE('',*,*,#229,.T.);
#305=ORIENTED_EDGE('',*,*,#240,.T.);
#306=ORIENTED_EDGE('',*,*,#241,.T.);
#307=ORIENTED_EDGE('',*,*,#242,.T.);
#308=ORIENTED_EDGE('',*,*,#243,.F.);
#309=ORIENTED_EDGE('',*,*,#244,.T.);
#310=ORIENTED_EDGE('',*,*,#245,.T.);
#311=ORIENTED_EDGE('',*,*,#228,.T.);
#312=ORIENTED_EDGE('',*,*,#246,.F.);
#313=ORIENTED_EDGE('',*,*,#247,.F.);
#314=ORIENTED_EDGE('',*,*,#240,.F.);
#315=ORIENTED_EDGE('',*,*,#248,.F.);
#316=ORIENTED_EDGE('',*,*,#249,.F.);
#317=ORIENTED_EDGE('',*,*,#250,.F.);
#318=ORIENTED_EDGE('',*,*,#244,.F.);
#319=ORIENTED_EDGE('',*,*,#251,.F.);
#320=ORIENTED_EDGE('',*,*,#242,.F.);
#321=ORIENTED_EDGE('',*,*,#252,.F.);
#322=ORIENTED_EDGE('',*,*,#253,.F.);
#323=ORIENTED_EDGE('',*,*,#254,.T.);
#324=ORIENTED_EDGE('',*,*,#249,.T.);
#325=ORIENTED_EDGE('',*,*,#255,.F.);
#326=ORIENTED_EDGE('',*,*,#253,.T.);
#327=ORIENTED_EDGE('',*,*,#256,.T.);
#328=ORIENTED_EDGE('',*,*,#246,.T.);
#329=ORIENTED_EDGE('',*,*,#231,.F.);
#330=ORIENTED_EDGE('',*,*,#257,.F.);
#331=ORIENTED_EDGE('',*,*,#235,.T.);
#332=ORIENTED_EDGE('',*,*,#237,.T.);
#333=ORIENTED_EDGE('',*,*,#241,.F.);
#334=ORIENTED_EDGE('',*,*,#247,.T.);
#335=ORIENTED_EDGE('',*,*,#256,.F.);
#336=ORIENTED_EDGE('',*,*,#252,.T.);
#337=ORIENTED_EDGE('',*,*,#223,.T.);
#338=ORIENTED_EDGE('',*,*,#226,.T.);
#339=ORIENTED_EDGE('',*,*,#216,.T.);
#340=ORIENTED_EDGE('',*,*,#220,.T.);
#341=ORIENTED_EDGE('',*,*,#236,.T.);
#342=ORIENTED_EDGE('',*,*,#245,.F.);
#343=ORIENTED_EDGE('',*,*,#250,.T.);
#344=ORIENTED_EDGE('',*,*,#254,.F.);
#345=ORIENTED_EDGE('',*,*,#258,.F.);
#346=ORIENTED_EDGE('',*,*,#259,.T.);
#347=ORIENTED_EDGE('',*,*,#260,.F.);
#348=ORIENTED_EDGE('',*,*,#261,.F.);
#349=ORIENTED_EDGE('',*,*,#243,.T.);
#350=ORIENTED_EDGE('',*,*,#251,.T.);
#351=ORIENTED_EDGE('',*,*,#255,.T.);
#352=ORIENTED_EDGE('',*,*,#248,.T.);
#353=ORIENTED_EDGE('',*,*,#262,.T.);
#354=ORIENTED_EDGE('',*,*,#261,.T.);
#355=ORIENTED_EDGE('',*,*,#263,.F.);
#356=ORIENTED_EDGE('',*,*,#264,.F.);
#357=ORIENTED_EDGE('',*,*,#265,.T.);
#358=ORIENTED_EDGE('',*,*,#264,.T.);
#359=ORIENTED_EDGE('',*,*,#266,.F.);
#360=ORIENTED_EDGE('',*,*,#267,.F.);
#361=ORIENTED_EDGE('',*,*,#268,.T.);
#362=ORIENTED_EDGE('',*,*,#267,.T.);
#363=ORIENTED_EDGE('',*,*,#269,.F.);
#364=ORIENTED_EDGE('',*,*,#270,.F.);
#365=ORIENTED_EDGE('',*,*,#232,.T.);
#366=ORIENTED_EDGE('',*,*,#257,.T.);
#367=ORIENTED_EDGE('',*,*,#230,.T.);
#368=ORIENTED_EDGE('',*,*,#239,.T.);
#369=ORIENTED_EDGE('',*,*,#271,.F.);
#370=ORIENTED_EDGE('',*,*,#270,.T.);
#371=ORIENTED_EDGE('',*,*,#272,.F.);
#372=ORIENTED_EDGE('',*,*,#259,.F.);
#373=ORIENTED_EDGE('',*,*,#224,.T.);
#374=ORIENTED_EDGE('',*,*,#221,.T.);
#375=ORIENTED_EDGE('',*,*,#218,.T.);
#376=ORIENTED_EDGE('',*,*,#227,.T.);
#377=ORIENTED_EDGE('',*,*,#271,.T.);
#378=ORIENTED_EDGE('',*,*,#258,.T.);
#379=ORIENTED_EDGE('',*,*,#262,.F.);
#380=ORIENTED_EDGE('',*,*,#265,.F.);
#381=ORIENTED_EDGE('',*,*,#268,.F.);
#382=ORIENTED_EDGE('',*,*,#272,.T.);
#383=ORIENTED_EDGE('',*,*,#269,.T.);
#384=ORIENTED_EDGE('',*,*,#266,.T.);
#385=ORIENTED_EDGE('',*,*,#263,.T.);
#386=ORIENTED_EDGE('',*,*,#260,.T.);
#387=PLANE('',#430);
#388=PLANE('',#431);
#389=PLANE('',#432);
#390=PLANE('',#433);
#391=PLANE('',#434);
#392=PLANE('',#435);
#393=PLANE('',#436);
#394=PLANE('',#437);
#395=PLANE('',#439);
#396=PLANE('',#440);
#397=PLANE('',#443);
#398=PLANE('',#444);
#399=PLANE('',#445);
#400=PLANE('',#446);
#401=PLANE('',#447);
#402=PLANE('',#448);
#403=PLANE('',#449);
#404=PLANE('',#450);
#405=PLANE('',#451);
#406=PLANE('',#452);
#407=ADVANCED_FACE('',(#22),#387,.F.);
#408=ADVANCED_FACE('',(#23),#388,.F.);
#409=ADVANCED_FACE('',(#24),#389,.F.);
#410=ADVANCED_FACE('',(#25),#390,.F.);
#411=ADVANCED_FACE('',(#26),#391,.F.);
#412=ADVANCED_FACE('',(#27),#392,.F.);
#413=ADVANCED_FACE('',(#28),#393,.F.);
#414=ADVANCED_FACE('',(#29),#394,.F.);
#415=ADVANCED_FACE('',(#30),#395,.F.);
#416=ADVANCED_FACE('',(#31),#396,.F.);
#417=ADVANCED_FACE('',(#32),#19,.T.);
#418=ADVANCED_FACE('',(#33),#397,.F.);
#419=ADVANCED_FACE('',(#34,#15),#398,.F.);
#420=ADVANCED_FACE('',(#35),#399,.F.);
#421=ADVANCED_FACE('',(#36,#16),#400,.T.);
#422=ADVANCED_FACE('',(#37),#401,.T.);
#423=ADVANCED_FACE('',(#38),#402,.T.);
#424=ADVANCED_FACE('',(#39,#17),#403,.T.);
#425=ADVANCED_FACE('',(#40,#18),#404,.T.);
#426=ADVANCED_FACE('',(#41),#405,.T.);
#427=ADVANCED_FACE('',(#42),#406,.T.);
#428=CLOSED_SHELL('',(#407,#408,#409,#410,#411,#412,#413,#414,#415,#416,
#417,#418,#419,#420,#421,#422,#423,#424,#425,#426,#427));
#429=AXIS2_PLACEMENT_3D('',#556,#453,#454);
#430=AXIS2_PLACEMENT_3D('',#557,#455,#456);
#431=AXIS2_PLACEMENT_3D('',#566,#461,#462);
#432=AXIS2_PLACEMENT_3D('',#572,#466,#467);
#433=AXIS2_PLACEMENT_3D('',#578,#471,#472);
#434=AXIS2_PLACEMENT_3D('',#581,#475,#476);
#435=AXIS2_PLACEMENT_3D('',#590,#481,#482);
#436=AXIS2_PLACEMENT_3D('',#599,#487,#488);
#437=AXIS2_PLACEMENT_3D('',#605,#492,#493);
#438=AXIS2_PLACEMENT_3D('',#612,#497,#498);
#439=AXIS2_PLACEMENT_3D('',#618,#502,#503);
#440=AXIS2_PLACEMENT_3D('',#622,#506,#507);
#441=AXIS2_PLACEMENT_3D('',#628,#511,#512);
#442=AXIS2_PLACEMENT_3D('',#633,#515,#516);
#443=AXIS2_PLACEMENT_3D('',#634,#517,#518);
#444=AXIS2_PLACEMENT_3D('',#639,#523,#524);
#445=AXIS2_PLACEMENT_3D('',#640,#525,#526);
#446=AXIS2_PLACEMENT_3D('',#641,#527,#528);
#447=AXIS2_PLACEMENT_3D('',#650,#533,#534);
#448=AXIS2_PLACEMENT_3D('',#656,#538,#539);
#449=AXIS2_PLACEMENT_3D('',#662,#543,#544);
#450=AXIS2_PLACEMENT_3D('',#668,#548,#549);
#451=AXIS2_PLACEMENT_3D('',#671,#552,#553);
#452=AXIS2_PLACEMENT_3D('',#672,#554,#555);
#453=DIRECTION('axis',(0.,0.,1.));
#454=DIRECTION('refdir',(1.,0.,0.));
#455=DIRECTION('center_axis',(-1.,0.,0.));
#456=DIRECTION('ref_axis',(0.,0.707106781186548,0.707106781186547));
#457=DIRECTION('',(0.,-0.707106781186548,-0.707106781186547));
#458=DIRECTION('',(0.,0.707106781186547,-0.707106781186548));
#459=DIRECTION('',(0.,0.707106781186548,0.707106781186547));
#460=DIRECTION('',(0.,0.707106781186547,-0.707106781186548));
#461=DIRECTION('center_axis',(0.,-0.707106781186548,-0.707106781186547));
#462=DIRECTION('ref_axis',(-1.,0.,0.));
#463=DIRECTION('',(1.,0.,0.));
#464=DIRECTION('',(-1.,0.,0.));
#465=DIRECTION('',(0.,0.707106781186547,-0.707106781186548));
#466=DIRECTION('center_axis',(1.,0.,0.));
#467=DIRECTION('ref_axis',(0.,-0.707106781186548,-0.707106781186547));
#468=DIRECTION('',(0.,0.707106781186548,0.707106781186547));
#469=DIRECTION('',(0.,-0.707106781186548,-0.707106781186547));
#470=DIRECTION('',(0.,0.707106781186547,-0.707106781186548));
#471=DIRECTION('center_axis',(0.,0.707106781186548,0.707106781186547));
#472=DIRECTION('ref_axis',(1.,0.,0.));
#473=DIRECTION('',(-1.,0.,0.));
#474=DIRECTION('',(1.,0.,0.));
#475=DIRECTION('center_axis',(0.,0.,1.));
#476=DIRECTION('ref_axis',(1.,0.,0.));
#477=DIRECTION('',(-1.,0.,0.));
#478=DIRECTION('',(0.,1.,0.));
#479=DIRECTION('',(1.,0.,0.));
#480=DIRECTION('',(0.,1.,0.));
#481=DIRECTION('center_axis',(0.,0.,-1.));
#482=DIRECTION('ref_axis',(-1.,0.,0.));
#483=DIRECTION('',(-1.,0.,0.));
#484=DIRECTION('',(0.,1.,0.));
#485=DIRECTION('',(-1.,0.,0.));
#486=DIRECTION('',(0.,1.,0.));
#487=DIRECTION('center_axis',(0.,1.,0.));
#488=DIRECTION('ref_axis',(0.,0.,1.));
#489=DIRECTION('',(1.,0.,0.));
#490=DIRECTION('',(0.,0.,1.));
#491=DIRECTION('',(0.,0.,-1.));
#492=DIRECTION('center_axis',(1.,0.,0.));
#493=DIRECTION('ref_axis',(0.,0.,-1.));
#494=DIRECTION('',(0.,0.,-1.));
#495=DIRECTION('',(0.,0.,1.));
#496=DIRECTION('',(0.,0.707106781186548,0.707106781186547));
#497=DIRECTION('center_axis',(1.,0.,0.));
#498=DIRECTION('ref_axis',(0.,0.,1.));
#499=DIRECTION('',(0.,-0.94196952634544,0.335698393556698));
#500=DIRECTION('',(0.,-0.707106781186547,-0.707106781186548));
#501=DIRECTION('',(0.,-0.999949544137731,-0.0100453560785328));
#502=DIRECTION('center_axis',(0.,-1.,0.));
#503=DIRECTION('ref_axis',(0.,0.,-1.));
#504=DIRECTION('',(0.,0.,-1.));
#505=DIRECTION('',(-1.,0.,0.));
#506=DIRECTION('center_axis',(0.,0.707106781186548,-0.707106781186547));
#507=DIRECTION('ref_axis',(0.,0.707106781186547,0.707106781186548));
#508=DIRECTION('',(1.,0.,0.));
#509=DIRECTION('',(0.,0.707106781186547,0.707106781186548));
#510=DIRECTION('',(-1.,0.,0.));
#511=DIRECTION('center_axis',(1.,0.,0.));
#512=DIRECTION('ref_axis',(0.,0.,1.));
#513=DIRECTION('',(-1.,0.,0.));
#514=DIRECTION('',(1.,0.,0.));
#515=DIRECTION('center_axis',(-1.,0.,0.));
#516=DIRECTION('ref_axis',(0.,0.,1.));
#517=DIRECTION('center_axis',(-1.,0.,0.));
#518=DIRECTION('ref_axis',(0.,-1.,0.));
#519=DIRECTION('',(0.,0.999949544137731,0.0100453560785328));
#520=DIRECTION('',(0.,0.94196952634544,-0.335698393556698));
#521=DIRECTION('',(0.,-0.707106781186548,-0.707106781186547));
#522=DIRECTION('',(0.,0.,1.));
#523=DIRECTION('center_axis',(0.,-0.707106781186547,0.707106781186548));
#524=DIRECTION('ref_axis',(0.,-0.707106781186548,-0.707106781186547));
#525=DIRECTION('center_axis',(0.,0.0100453560785328,-0.999949544137731));
#526=DIRECTION('ref_axis',(0.,0.999949544137731,0.0100453560785328));
#527=DIRECTION('center_axis',(0.,0.335698393556698,0.94196952634544));
#528=DIRECTION('ref_axis',(0.,-0.94196952634544,0.335698393556698));
#529=DIRECTION('',(0.,0.94196952634544,-0.335698393556698));
#530=DIRECTION('',(1.,0.,0.));
#531=DIRECTION('',(0.,-0.94196952634544,0.335698393556698));
#532=DIRECTION('',(1.,0.,0.));
#533=DIRECTION('center_axis',(0.,0.707106781186548,-0.707106781186547));
#534=DIRECTION('ref_axis',(0.,0.707106781186547,0.707106781186548));
#535=DIRECTION('',(0.,0.707106781186547,0.707106781186548));
#536=DIRECTION('',(0.,0.707106781186547,0.707106781186548));
#537=DIRECTION('',(1.,0.,0.));
#538=DIRECTION('center_axis',(0.,0.0100453560785328,-0.999949544137731));
#539=DIRECTION('ref_axis',(0.,0.999949544137731,0.0100453560785328));
#540=DIRECTION('',(0.,0.999949544137731,0.0100453560785328));
#541=DIRECTION('',(0.,0.999949544137731,0.0100453560785328));
#542=DIRECTION('',(1.,0.,0.));
#543=DIRECTION('center_axis',(0.,-1.,0.));
#544=DIRECTION('ref_axis',(0.,0.,-1.));
#545=DIRECTION('',(0.,0.,-1.));
#546=DIRECTION('',(0.,0.,-1.));
#547=DIRECTION('',(1.,0.,0.));
#548=DIRECTION('center_axis',(0.,-0.707106781186547,0.707106781186548));
#549=DIRECTION('ref_axis',(0.,-0.707106781186548,-0.707106781186547));
#550=DIRECTION('',(0.,0.707106781186548,0.707106781186547));
#551=DIRECTION('',(0.,-0.707106781186548,-0.707106781186547));
#552=DIRECTION('center_axis',(-1.,0.,0.));
#553=DIRECTION('ref_axis',(0.,-1.,0.));
#554=DIRECTION('center_axis',(1.,0.,0.));
#555=DIRECTION('ref_axis',(0.,0.,-1.));
#556=CARTESIAN_POINT('',(0.,0.,0.));
#557=CARTESIAN_POINT('Origin',(135.85,27.5276431698482,23.1181993386072));
#558=CARTESIAN_POINT('',(135.85,118.037311161726,110.799440205739));
#559=CARTESIAN_POINT('',(135.85,28.9418567322213,21.7039857762341));
#560=CARTESIAN_POINT('',(135.85,78.1161836162774,70.8783126602902));
#561=CARTESIAN_POINT('',(135.85,116.623097599353,112.213653768112));
#562=CARTESIAN_POINT('',(135.85,116.623097599353,112.213653768112));
#563=CARTESIAN_POINT('',(135.85,27.5276431698482,23.1181993386072));
#564=CARTESIAN_POINT('',(135.85,76.7019700539043,72.2925262226633));
#565=CARTESIAN_POINT('',(135.85,27.5276431698482,23.1181993386072));
#566=CARTESIAN_POINT('Origin',(210.35,27.5276431698482,23.1181993386072));
#567=CARTESIAN_POINT('',(210.35,28.9418567322213,21.7039857762341));
#568=CARTESIAN_POINT('',(166.725,28.9418567322213,21.7039857762341));
#569=CARTESIAN_POINT('',(210.35,27.5276431698482,23.1181993386072));
#570=CARTESIAN_POINT('',(166.725,27.5276431698482,23.1181993386072));
#571=CARTESIAN_POINT('',(210.35,27.5276431698482,23.1181993386072));
#572=CARTESIAN_POINT('Origin',(210.35,116.623097599353,112.213653768112));
#573=CARTESIAN_POINT('',(210.35,118.037311161726,110.799440205739));
#574=CARTESIAN_POINT('',(210.35,122.66391083103,115.426039875043));
#575=CARTESIAN_POINT('',(210.35,116.623097599353,112.213653768112));
#576=CARTESIAN_POINT('',(210.35,121.249697268657,116.840253437416));
#577=CARTESIAN_POINT('',(210.35,116.623097599353,112.213653768112));
#578=CARTESIAN_POINT('Origin',(135.85,116.623097599353,112.213653768112));
#579=CARTESIAN_POINT('',(129.475,118.037311161726,110.799440205739));
#580=CARTESIAN_POINT('',(129.475,116.623097599353,112.213653768112));
#581=CARTESIAN_POINT('Origin',(125.1,18.274443831241,11.865));
#582=CARTESIAN_POINT('',(221.1,20.274443831241,11.865));
#583=CARTESIAN_POINT('',(125.1,20.274443831241,11.865));
#584=CARTESIAN_POINT('',(124.1,20.274443831241,11.865));
#585=CARTESIAN_POINT('',(221.1,18.274443831241,11.865));
#586=CARTESIAN_POINT('',(221.1,18.274443831241,11.865));
#587=CARTESIAN_POINT('',(125.1,18.274443831241,11.865));
#588=CARTESIAN_POINT('',(124.1,18.274443831241,11.865));
#589=CARTESIAN_POINT('',(125.1,18.274443831241,11.865));
#590=CARTESIAN_POINT('Origin',(221.1,18.274443831241,-5.53499999999995));
#591=CARTESIAN_POINT('',(221.1,18.274443831241,-5.53499999999995));
#592=CARTESIAN_POINT('',(125.1,18.274443831241,-5.53499999999995));
#593=CARTESIAN_POINT('',(172.1,18.274443831241,-5.53499999999995));
#594=CARTESIAN_POINT('',(221.1,23.274443831241,-5.53499999999995));
#595=CARTESIAN_POINT('',(221.1,18.274443831241,-5.53499999999995));
#596=CARTESIAN_POINT('',(125.1,23.274443831241,-5.53499999999995));
#597=CARTESIAN_POINT('',(125.1,23.274443831241,-5.53499999999995));
#598=CARTESIAN_POINT('',(125.1,18.274443831241,-5.53499999999995));
#599=CARTESIAN_POINT('Origin',(173.1,23.274443831241,3.16500000000005));
#600=CARTESIAN_POINT('',(125.1,23.274443831241,-5.48466976842751));
#601=CARTESIAN_POINT('',(221.1,23.274443831241,-5.48466976842752));
#602=CARTESIAN_POINT('',(148.1,23.274443831241,-5.48466976842752));
#603=CARTESIAN_POINT('',(125.1,23.274443831241,11.865));
#604=CARTESIAN_POINT('',(221.1,23.274443831241,-5.53499999999995));
#605=CARTESIAN_POINT('Origin',(221.1,101.276425701309,56.9659265533597));
#606=CARTESIAN_POINT('',(221.1,18.274443831241,12.8650000000001));
#607=CARTESIAN_POINT('',(221.1,20.274443831241,13.0365728752539));
#608=CARTESIAN_POINT('',(221.1,20.274443831241,35.4154632766799));
#609=CARTESIAN_POINT('',(221.1,127.290510500333,120.052639544346));
#610=CARTESIAN_POINT('',(221.1,105.015311052831,97.7774400968436));
#611=CARTESIAN_POINT('',(221.1,127.760235990651,120.795456319606));
#612=CARTESIAN_POINT('Origin',(221.1,125.87629693796,121.466853106719));
#613=CARTESIAN_POINT('',(221.1,182.193130076734,101.396702336307));
#614=CARTESIAN_POINT('',(221.1,125.87629693796,121.466853106719));
#615=CARTESIAN_POINT('',(221.1,75.8398225627147,-4.95660517771267));
#616=CARTESIAN_POINT('',(221.1,97.3908654499167,16.5944377094894));
#617=CARTESIAN_POINT('',(221.1,60.0751072644638,-5.11497534706375));
#618=CARTESIAN_POINT('Origin',(123.1,20.274443831241,13.865));
#619=CARTESIAN_POINT('',(125.1,20.274443831241,13.0365728752539));
#620=CARTESIAN_POINT('',(125.1,20.274443831241,35.4154632766799));
#621=CARTESIAN_POINT('',(123.1,20.274443831241,13.0365728752539));
#622=CARTESIAN_POINT('Origin',(123.1,75.2623409022852,-5.53408683814213));
#623=CARTESIAN_POINT('',(125.1,182.193130076734,101.396702336307));
#624=CARTESIAN_POINT('',(123.1,182.193130076734,101.396702336307));
#625=CARTESIAN_POINT('',(125.1,75.8398225627147,-4.95660517771267));
#626=CARTESIAN_POINT('',(125.1,97.3908654499167,16.5944377094894));
#627=CARTESIAN_POINT('',(123.1,75.8398225627147,-4.95660517771267));
#628=CARTESIAN_POINT('Origin',(123.1,125.87629693796,121.466853106719));
#629=CARTESIAN_POINT('',(125.1,127.760235990651,120.795456319606));
#630=CARTESIAN_POINT('',(123.1,127.760235990651,120.795456319606));
#631=CARTESIAN_POINT('',(125.1,127.290510500333,120.052639544346));
#632=CARTESIAN_POINT('',(123.1,127.290510500333,120.052639544346));
#633=CARTESIAN_POINT('Origin',(125.1,125.87629693796,121.466853106719));
#634=CARTESIAN_POINT('Origin',(125.1,101.276425701309,56.9659265533597));
#635=CARTESIAN_POINT('',(125.1,60.0751072644638,-5.11497534706375));
#636=CARTESIAN_POINT('',(125.1,125.87629693796,121.466853106719));
#637=CARTESIAN_POINT('',(125.1,105.015311052831,97.7774400968436));
#638=CARTESIAN_POINT('',(125.1,18.274443831241,4.16500000000005));
#639=CARTESIAN_POINT('Origin',(123.1,127.290510500333,120.052639544346));
#640=CARTESIAN_POINT('Origin',(123.1,18.254353119084,-5.53510091172449));
#641=CARTESIAN_POINT('Origin',(123.1,184.278407571378,100.653552706204));
#642=CARTESIAN_POINT('',(123.1,125.87629693796,121.466853106719));
#643=CARTESIAN_POINT('',(123.1,184.278407571378,100.653552706204));
#644=CARTESIAN_POINT('',(123.1,125.87629693796,121.466853106719));
#645=CARTESIAN_POINT('',(223.1,125.87629693796,121.466853106719));
#646=CARTESIAN_POINT('',(123.1,125.87629693796,121.466853106719));
#647=CARTESIAN_POINT('',(223.1,184.278407571378,100.653552706204));
#648=CARTESIAN_POINT('',(223.1,125.87629693796,121.466853106719));
#649=CARTESIAN_POINT('',(123.1,184.278407571378,100.653552706204));
#650=CARTESIAN_POINT('Origin',(123.1,76.6765544646583,-6.94830040051522));
#651=CARTESIAN_POINT('',(123.1,76.6765544646583,-6.94830040051522));
#652=CARTESIAN_POINT('',(123.1,76.6765544646583,-6.94830040051522));
#653=CARTESIAN_POINT('',(223.1,76.6765544646583,-6.94830040051522));
#654=CARTESIAN_POINT('',(223.1,76.6765544646583,-6.94830040051522));
#655=CARTESIAN_POINT('',(123.1,76.6765544646583,-6.94830040051522));
#656=CARTESIAN_POINT('Origin',(123.1,18.274443831241,-7.53499999999995));
#657=CARTESIAN_POINT('',(123.1,18.274443831241,-7.53499999999995));
#658=CARTESIAN_POINT('',(123.1,18.274443831241,-7.53499999999995));
#659=CARTESIAN_POINT('',(223.1,18.274443831241,-7.53499999999995));
#660=CARTESIAN_POINT('',(223.1,18.274443831241,-7.53499999999995));
#661=CARTESIAN_POINT('',(123.1,18.274443831241,-7.53499999999995));
#662=CARTESIAN_POINT('Origin',(123.1,18.274443831241,13.865));
#663=CARTESIAN_POINT('',(123.1,18.274443831241,13.865));
#664=CARTESIAN_POINT('',(123.1,18.274443831241,13.865));
#665=CARTESIAN_POINT('',(223.1,18.274443831241,13.865));
#666=CARTESIAN_POINT('',(223.1,18.274443831241,13.865));
#667=CARTESIAN_POINT('',(123.1,18.274443831241,13.865));
#668=CARTESIAN_POINT('Origin',(123.1,125.87629693796,121.466853106719));
#669=CARTESIAN_POINT('',(123.1,18.274443831241,13.865));
#670=CARTESIAN_POINT('',(223.1,18.274443831241,13.865));
#671=CARTESIAN_POINT('Origin',(123.1,101.276425701309,56.9659265533597));
#672=CARTESIAN_POINT('Origin',(223.1,101.276425701309,56.9659265533597));
#673=UNCERTAINTY_MEASURE_WITH_UNIT(LENGTH_MEASURE(0.01),#677,
'DISTANCE_ACCURACY_VALUE',
'Maximum model space distance between geometric entities at asserted c
onnectivities');
#674=UNCERTAINTY_MEASURE_WITH_UNIT(LENGTH_MEASURE(0.01),#677,
'DISTANCE_ACCURACY_VALUE',
'Maximum model space distance between geometric entities at asserted c
onnectivities');
#675=(
GEOMETRIC_REPRESENTATION_CONTEXT(3)
GLOBAL_UNCERTAINTY_ASSIGNED_CONTEXT((#673))
GLOBAL_UNIT_ASSIGNED_CONTEXT((#677,#678,#679))
REPRESENTATION_CONTEXT('','3D')
);
#676=(
GEOMETRIC_REPRESENTATION_CONTEXT(3)
GLOBAL_UNCERTAINTY_ASSIGNED_CONTEXT((#674))
GLOBAL_UNIT_ASSIGNED_CONTEXT((#677,#678,#679))
REPRESENTATION_CONTEXT('','3D')
);
#677=(
LENGTH_UNIT()
NAMED_UNIT(*)
SI_UNIT(.MILLI.,.METRE.)
);
#678=(
NAMED_UNIT(*)
PLANE_ANGLE_UNIT()
SI_UNIT($,.RADIAN.)
);
#679=(
NAMED_UNIT(*)
SI_UNIT($,.STERADIAN.)
SOLID_ANGLE_UNIT()
);
#680=SHAPE_DEFINITION_REPRESENTATION(#681,#682);
#681=PRODUCT_DEFINITION_SHAPE('',$,#684);
#682=SHAPE_REPRESENTATION('',(#429),#675);
#683=PRODUCT_DEFINITION_CONTEXT('part definition',#688,'design');
#684=PRODUCT_DEFINITION('keyboard_pcb_step 1','keyboard_pcb_step v3',#685,
#683);
#685=PRODUCT_DEFINITION_FORMATION('',$,#690);
#686=PRODUCT_RELATED_PRODUCT_CATEGORY('keyboard_pcb_step v3',
'keyboard_pcb_step v3',(#690));
#687=APPLICATION_PROTOCOL_DEFINITION('international standard',
'automotive_design',2009,#688);
#688=APPLICATION_CONTEXT(
'Core Data for Automotive Mechanical Design Process');
#689=PRODUCT_CONTEXT('part definition',#688,'mechanical');
#690=PRODUCT('keyboard_pcb_step 1','keyboard_pcb_step v3',
'KiCad electronic assembly',(#689));
#691=PRESENTATION_STYLE_ASSIGNMENT((#699));
#692=PRESENTATION_STYLE_ASSIGNMENT((#700));
#693=PRESENTATION_STYLE_ASSIGNMENT((#701));
#694=PRESENTATION_STYLE_ASSIGNMENT((#702));
#695=PRESENTATION_STYLE_ASSIGNMENT((#703));
#696=PRESENTATION_STYLE_ASSIGNMENT((#704));
#697=PRESENTATION_STYLE_ASSIGNMENT((#705));
#698=PRESENTATION_STYLE_ASSIGNMENT((#706));
#699=SURFACE_STYLE_USAGE(.BOTH.,#707);
#700=SURFACE_STYLE_USAGE(.BOTH.,#708);
#701=SURFACE_STYLE_USAGE(.BOTH.,#709);
#702=SURFACE_STYLE_USAGE(.BOTH.,#710);
#703=SURFACE_STYLE_USAGE(.BOTH.,#711);
#704=SURFACE_STYLE_USAGE(.BOTH.,#712);
#705=SURFACE_STYLE_USAGE(.BOTH.,#713);
#706=SURFACE_STYLE_USAGE(.BOTH.,#714);
#707=SURFACE_SIDE_STYLE('',(#715));
#708=SURFACE_SIDE_STYLE('',(#716));
#709=SURFACE_SIDE_STYLE('',(#717));
#710=SURFACE_SIDE_STYLE('',(#718));
#711=SURFACE_SIDE_STYLE('',(#719));
#712=SURFACE_SIDE_STYLE('',(#720));
#713=SURFACE_SIDE_STYLE('',(#721));
#714=SURFACE_SIDE_STYLE('',(#722));
#715=SURFACE_STYLE_FILL_AREA(#723);
#716=SURFACE_STYLE_FILL_AREA(#724);
#717=SURFACE_STYLE_FILL_AREA(#725);
#718=SURFACE_STYLE_FILL_AREA(#726);
#719=SURFACE_STYLE_FILL_AREA(#727);
#720=SURFACE_STYLE_FILL_AREA(#728);
#721=SURFACE_STYLE_FILL_AREA(#729);
#722=SURFACE_STYLE_FILL_AREA(#730);
#723=FILL_AREA_STYLE('Steel - Satin',(#731));
#724=FILL_AREA_STYLE('Opaque(145,145,150)',(#732));
#725=FILL_AREA_STYLE('Opaque(202,209,238)',(#733));
#726=FILL_AREA_STYLE('Opaque(26,26,26)',(#734));
#727=FILL_AREA_STYLE('Opaque(247,224,153)',(#735));
#728=FILL_AREA_STYLE('Opaque(74,117,181)',(#736));
#729=FILL_AREA_STYLE('Opaque(246,246,243)',(#737));
#730=FILL_AREA_STYLE('Opaque(255,255,255)',(#738));
#731=FILL_AREA_STYLE_COLOUR('Steel - Satin',#739);
#732=FILL_AREA_STYLE_COLOUR('Opaque(145,145,150)',#740);
#733=FILL_AREA_STYLE_COLOUR('Opaque(202,209,238)',#741);
#734=FILL_AREA_STYLE_COLOUR('Opaque(26,26,26)',#742);
#735=FILL_AREA_STYLE_COLOUR('Opaque(247,224,153)',#743);
#736=FILL_AREA_STYLE_COLOUR('Opaque(74,117,181)',#744);
#737=FILL_AREA_STYLE_COLOUR('Opaque(246,246,243)',#745);
#738=FILL_AREA_STYLE_COLOUR('Opaque(255,255,255)',#746);
#739=COLOUR_RGB('Steel - Satin',0.627450980392157,0.627450980392157,0.627450980392157);
#740=COLOUR_RGB('Opaque(145,145,150)',0.568627450980392,0.568627450980392,
0.588235294117647);
#741=COLOUR_RGB('Opaque(202,209,238)',0.792156862745098,0.819607843137255,
0.933333333333333);
#742=COLOUR_RGB('Opaque(26,26,26)',0.101960784313725,0.101960784313725,
0.101960784313725);
#743=COLOUR_RGB('Opaque(247,224,153)',0.968627450980392,0.87843137254902,
0.6);
#744=COLOUR_RGB('Opaque(74,117,181)',0.290196078431373,0.458823529411765,
0.709803921568627);
#745=COLOUR_RGB('Opaque(246,246,243)',0.964705882352941,0.964705882352941,
0.952941176470588);
#746=COLOUR_RGB('Opaque(255,255,255)',1.,1.,1.);
ENDSEC;
END-ISO-10303-21;
