ISO-10303-21;
HEADER;
/* Generated by software containing ST-Developer
 * from STEP Tools, Inc. (www.steptools.com) 
 */

FILE_DESCRIPTION(
/* description */ ('KiCad electronic assembly'),
/* implementation_level */ '2;1');

FILE_NAME(
/* name */ 'screen holder step.step',
/* time_stamp */ '2026-08-21T11:39:17+02:00',
/* author */ (''),
/* organization */ (''),
/* preprocessor_version */ 'ST-DEVELOPER v20.1',
/* originating_system */ 'Autodesk Translation Framework v15.8.0.0',
/* authorisation */ '');

FILE_SCHEMA (('AUTOMOTIVE_DESIGN { 1 0 10303 214 3 1 1 }'));
ENDSEC;

DATA;
#10=MECHANICAL_DESIGN_GEOMETRIC_PRESENTATION_REPRESENTATION('',(#13),#453);
#11=SHAPE_REPRESENTATION_RELATIONSHIP('SRR','None',#459,#12);
#12=ADVANCED_BREP_SHAPE_REPRESENTATION('',(#14),#452);
#13=STYLED_ITEM('',(#468),#14);
#14=MANIFOLD_SOLID_BREP('screen holder',#281);
#15=FACE_BOUND('',#42,.T.);
#16=FACE_BOUND('',#54,.T.);
#17=FACE_BOUND('',#56,.T.);
#18=CIRCLE('',#285,1.99999999999999);
#19=CIRCLE('',#286,1.99999999999999);
#20=CIRCLE('',#288,1.99999999999999);
#21=CIRCLE('',#295,1.99999999999999);
#22=CYLINDRICAL_SURFACE('',#284,1.99999999999999);
#23=CYLINDRICAL_SURFACE('',#294,1.99999999999999);
#24=FACE_OUTER_BOUND('',#39,.T.);
#25=FACE_OUTER_BOUND('',#40,.T.);
#26=FACE_OUTER_BOUND('',#41,.T.);
#27=FACE_OUTER_BOUND('',#43,.T.);
#28=FACE_OUTER_BOUND('',#44,.T.);
#29=FACE_OUTER_BOUND('',#45,.T.);
#30=FACE_OUTER_BOUND('',#46,.T.);
#31=FACE_OUTER_BOUND('',#47,.T.);
#32=FACE_OUTER_BOUND('',#48,.T.);
#33=FACE_OUTER_BOUND('',#49,.T.);
#34=FACE_OUTER_BOUND('',#50,.T.);
#35=FACE_OUTER_BOUND('',#51,.T.);
#36=FACE_OUTER_BOUND('',#52,.T.);
#37=FACE_OUTER_BOUND('',#53,.T.);
#38=FACE_OUTER_BOUND('',#55,.T.);
#39=EDGE_LOOP('',(#181,#182,#183,#184));
#40=EDGE_LOOP('',(#185,#186,#187,#188));
#41=EDGE_LOOP('',(#189,#190,#191,#192));
#42=EDGE_LOOP('',(#193,#194,#195,#196));
#43=EDGE_LOOP('',(#197,#198,#199,#200));
#44=EDGE_LOOP('',(#201,#202,#203,#204));
#45=EDGE_LOOP('',(#205,#206,#207,#208));
#46=EDGE_LOOP('',(#209,#210,#211,#212));
#47=EDGE_LOOP('',(#213,#214,#215,#216));
#48=EDGE_LOOP('',(#217,#218,#219,#220));
#49=EDGE_LOOP('',(#221,#222,#223,#224));
#50=EDGE_LOOP('',(#225,#226,#227,#228));
#51=EDGE_LOOP('',(#229,#230,#231,#232));
#52=EDGE_LOOP('',(#233,#234,#235,#236));
#53=EDGE_LOOP('',(#237,#238,#239,#240));
#54=EDGE_LOOP('',(#241,#242,#243,#244));
#55=EDGE_LOOP('',(#245,#246,#247,#248));
#56=EDGE_LOOP('',(#249,#250,#251,#252));
#57=LINE('',#378,#89);
#58=LINE('',#380,#90);
#59=LINE('',#382,#91);
#60=LINE('',#383,#92);
#61=LINE('',#388,#93);
#62=LINE('',#393,#94);
#63=LINE('',#395,#95);
#64=LINE('',#397,#96);
#65=LINE('',#398,#97);
#66=LINE('',#400,#98);
#67=LINE('',#404,#99);
#68=LINE('',#406,#100);
#69=LINE('',#407,#101);
#70=LINE('',#410,#102);
#71=LINE('',#411,#103);
#72=LINE('',#414,#104);
#73=LINE('',#415,#105);
#74=LINE('',#417,#106);
#75=LINE('',#420,#107);
#76=LINE('',#421,#108);
#77=LINE('',#427,#109);
#78=LINE('',#429,#110);
#79=LINE('',#431,#111);
#80=LINE('',#432,#112);
#81=LINE('',#435,#113);
#82=LINE('',#437,#114);
#83=LINE('',#438,#115);
#84=LINE('',#441,#116);
#85=LINE('',#443,#117);
#86=LINE('',#444,#118);
#87=LINE('',#446,#119);
#88=LINE('',#447,#120);
#89=VECTOR('',#306,10.);
#90=VECTOR('',#307,10.);
#91=VECTOR('',#308,10.);
#92=VECTOR('',#309,10.);
#93=VECTOR('',#314,10.);
#94=VECTOR('',#319,10.);
#95=VECTOR('',#320,10.);
#96=VECTOR('',#321,10.);
#97=VECTOR('',#322,10.);
#98=VECTOR('',#323,10.);
#99=VECTOR('',#328,10.);
#100=VECTOR('',#329,10.);
#101=VECTOR('',#330,10.);
#102=VECTOR('',#333,10.);
#103=VECTOR('',#334,10.);
#104=VECTOR('',#337,10.);
#105=VECTOR('',#338,10.);
#106=VECTOR('',#341,10.);
#107=VECTOR('',#344,10.);
#108=VECTOR('',#345,10.);
#109=VECTOR('',#352,10.);
#110=VECTOR('',#353,10.);
#111=VECTOR('',#354,10.);
#112=VECTOR('',#355,10.);
#113=VECTOR('',#358,10.);
#114=VECTOR('',#359,10.);
#115=VECTOR('',#360,10.);
#116=VECTOR('',#363,10.);
#117=VECTOR('',#364,10.);
#118=VECTOR('',#365,10.);
#119=VECTOR('',#368,10.);
#120=VECTOR('',#369,10.);
#121=VERTEX_POINT('',#376);
#122=VERTEX_POINT('',#377);
#123=VERTEX_POINT('',#379);
#124=VERTEX_POINT('',#381);
#125=VERTEX_POINT('',#385);
#126=VERTEX_POINT('',#387);
#127=VERTEX_POINT('',#391);
#128=VERTEX_POINT('',#392);
#129=VERTEX_POINT('',#394);
#130=VERTEX_POINT('',#396);
#131=VERTEX_POINT('',#399);
#132=VERTEX_POINT('',#403);
#133=VERTEX_POINT('',#405);
#134=VERTEX_POINT('',#409);
#135=VERTEX_POINT('',#413);
#136=VERTEX_POINT('',#419);
#137=VERTEX_POINT('',#425);
#138=VERTEX_POINT('',#426);
#139=VERTEX_POINT('',#428);
#140=VERTEX_POINT('',#430);
#141=VERTEX_POINT('',#434);
#142=VERTEX_POINT('',#436);
#143=VERTEX_POINT('',#440);
#144=VERTEX_POINT('',#442);
#145=EDGE_CURVE('',#121,#122,#57,.T.);
#146=EDGE_CURVE('',#123,#122,#58,.T.);
#147=EDGE_CURVE('',#124,#123,#59,.T.);
#148=EDGE_CURVE('',#124,#121,#60,.T.);
#149=EDGE_CURVE('',#122,#125,#18,.T.);
#150=EDGE_CURVE('',#126,#125,#61,.T.);
#151=EDGE_CURVE('',#123,#126,#19,.T.);
#152=EDGE_CURVE('',#127,#128,#62,.T.);
#153=EDGE_CURVE('',#129,#127,#63,.T.);
#154=EDGE_CURVE('',#130,#129,#64,.T.);
#155=EDGE_CURVE('',#128,#130,#65,.T.);
#156=EDGE_CURVE('',#125,#131,#66,.T.);
#157=EDGE_CURVE('',#131,#121,#20,.T.);
#158=EDGE_CURVE('',#129,#132,#67,.T.);
#159=EDGE_CURVE('',#133,#132,#68,.T.);
#160=EDGE_CURVE('',#133,#130,#69,.T.);
#161=EDGE_CURVE('',#134,#133,#70,.T.);
#162=EDGE_CURVE('',#134,#128,#71,.T.);
#163=EDGE_CURVE('',#135,#134,#72,.T.);
#164=EDGE_CURVE('',#135,#127,#73,.T.);
#165=EDGE_CURVE('',#132,#135,#74,.T.);
#166=EDGE_CURVE('',#136,#131,#75,.T.);
#167=EDGE_CURVE('',#126,#136,#76,.T.);
#168=EDGE_CURVE('',#136,#124,#21,.T.);
#169=EDGE_CURVE('',#137,#138,#77,.T.);
#170=EDGE_CURVE('',#137,#139,#78,.T.);
#171=EDGE_CURVE('',#140,#139,#79,.T.);
#172=EDGE_CURVE('',#138,#140,#80,.T.);
#173=EDGE_CURVE('',#138,#141,#81,.T.);
#174=EDGE_CURVE('',#142,#140,#82,.T.);
#175=EDGE_CURVE('',#141,#142,#83,.T.);
#176=EDGE_CURVE('',#141,#143,#84,.T.);
#177=EDGE_CURVE('',#144,#142,#85,.T.);
#178=EDGE_CURVE('',#143,#144,#86,.T.);
#179=EDGE_CURVE('',#143,#137,#87,.T.);
#180=EDGE_CURVE('',#139,#144,#88,.T.);
#181=ORIENTED_EDGE('',*,*,#145,.T.);
#182=ORIENTED_EDGE('',*,*,#146,.F.);
#183=ORIENTED_EDGE('',*,*,#147,.F.);
#184=ORIENTED_EDGE('',*,*,#148,.T.);
#185=ORIENTED_EDGE('',*,*,#149,.T.);
#186=ORIENTED_EDGE('',*,*,#150,.F.);
#187=ORIENTED_EDGE('',*,*,#151,.F.);
#188=ORIENTED_EDGE('',*,*,#146,.T.);
#189=ORIENTED_EDGE('',*,*,#152,.F.);
#190=ORIENTED_EDGE('',*,*,#153,.F.);
#191=ORIENTED_EDGE('',*,*,#154,.F.);
#192=ORIENTED_EDGE('',*,*,#155,.F.);
#193=ORIENTED_EDGE('',*,*,#156,.F.);
#194=ORIENTED_EDGE('',*,*,#149,.F.);
#195=ORIENTED_EDGE('',*,*,#145,.F.);
#196=ORIENTED_EDGE('',*,*,#157,.F.);
#197=ORIENTED_EDGE('',*,*,#154,.T.);
#198=ORIENTED_EDGE('',*,*,#158,.T.);
#199=ORIENTED_EDGE('',*,*,#159,.F.);
#200=ORIENTED_EDGE('',*,*,#160,.T.);
#201=ORIENTED_EDGE('',*,*,#161,.F.);
#202=ORIENTED_EDGE('',*,*,#162,.T.);
#203=ORIENTED_EDGE('',*,*,#155,.T.);
#204=ORIENTED_EDGE('',*,*,#160,.F.);
#205=ORIENTED_EDGE('',*,*,#163,.F.);
#206=ORIENTED_EDGE('',*,*,#164,.T.);
#207=ORIENTED_EDGE('',*,*,#152,.T.);
#208=ORIENTED_EDGE('',*,*,#162,.F.);
#209=ORIENTED_EDGE('',*,*,#158,.F.);
#210=ORIENTED_EDGE('',*,*,#153,.T.);
#211=ORIENTED_EDGE('',*,*,#164,.F.);
#212=ORIENTED_EDGE('',*,*,#165,.F.);
#213=ORIENTED_EDGE('',*,*,#156,.T.);
#214=ORIENTED_EDGE('',*,*,#166,.F.);
#215=ORIENTED_EDGE('',*,*,#167,.F.);
#216=ORIENTED_EDGE('',*,*,#150,.T.);
#217=ORIENTED_EDGE('',*,*,#157,.T.);
#218=ORIENTED_EDGE('',*,*,#148,.F.);
#219=ORIENTED_EDGE('',*,*,#168,.F.);
#220=ORIENTED_EDGE('',*,*,#166,.T.);
#221=ORIENTED_EDGE('',*,*,#169,.F.);
#222=ORIENTED_EDGE('',*,*,#170,.T.);
#223=ORIENTED_EDGE('',*,*,#171,.F.);
#224=ORIENTED_EDGE('',*,*,#172,.F.);
#225=ORIENTED_EDGE('',*,*,#173,.F.);
#226=ORIENTED_EDGE('',*,*,#172,.T.);
#227=ORIENTED_EDGE('',*,*,#174,.F.);
#228=ORIENTED_EDGE('',*,*,#175,.F.);
#229=ORIENTED_EDGE('',*,*,#176,.F.);
#230=ORIENTED_EDGE('',*,*,#175,.T.);
#231=ORIENTED_EDGE('',*,*,#177,.F.);
#232=ORIENTED_EDGE('',*,*,#178,.F.);
#233=ORIENTED_EDGE('',*,*,#179,.F.);
#234=ORIENTED_EDGE('',*,*,#178,.T.);
#235=ORIENTED_EDGE('',*,*,#180,.F.);
#236=ORIENTED_EDGE('',*,*,#170,.F.);
#237=ORIENTED_EDGE('',*,*,#180,.T.);
#238=ORIENTED_EDGE('',*,*,#177,.T.);
#239=ORIENTED_EDGE('',*,*,#174,.T.);
#240=ORIENTED_EDGE('',*,*,#171,.T.);
#241=ORIENTED_EDGE('',*,*,#159,.T.);
#242=ORIENTED_EDGE('',*,*,#165,.T.);
#243=ORIENTED_EDGE('',*,*,#163,.T.);
#244=ORIENTED_EDGE('',*,*,#161,.T.);
#245=ORIENTED_EDGE('',*,*,#179,.T.);
#246=ORIENTED_EDGE('',*,*,#169,.T.);
#247=ORIENTED_EDGE('',*,*,#173,.T.);
#248=ORIENTED_EDGE('',*,*,#176,.T.);
#249=ORIENTED_EDGE('',*,*,#147,.T.);
#250=ORIENTED_EDGE('',*,*,#151,.T.);
#251=ORIENTED_EDGE('',*,*,#167,.T.);
#252=ORIENTED_EDGE('',*,*,#168,.T.);
#253=PLANE('',#283);
#254=PLANE('',#287);
#255=PLANE('',#289);
#256=PLANE('',#290);
#257=PLANE('',#291);
#258=PLANE('',#292);
#259=PLANE('',#293);
#260=PLANE('',#296);
#261=PLANE('',#297);
#262=PLANE('',#298);
#263=PLANE('',#299);
#264=PLANE('',#300);
#265=PLANE('',#301);
#266=ADVANCED_FACE('',(#24),#253,.F.);
#267=ADVANCED_FACE('',(#25),#22,.F.);
#268=ADVANCED_FACE('',(#26,#15),#254,.T.);
#269=ADVANCED_FACE('',(#27),#255,.F.);
#270=ADVANCED_FACE('',(#28),#256,.F.);
#271=ADVANCED_FACE('',(#29),#257,.F.);
#272=ADVANCED_FACE('',(#30),#258,.F.);
#273=ADVANCED_FACE('',(#31),#259,.F.);
#274=ADVANCED_FACE('',(#32),#23,.F.);
#275=ADVANCED_FACE('',(#33),#260,.T.);
#276=ADVANCED_FACE('',(#34),#261,.T.);
#277=ADVANCED_FACE('',(#35),#262,.T.);
#278=ADVANCED_FACE('',(#36),#263,.T.);
#279=ADVANCED_FACE('',(#37,#16),#264,.T.);
#280=ADVANCED_FACE('',(#38,#17),#265,.F.);
#281=CLOSED_SHELL('',(#266,#267,#268,#269,#270,#271,#272,#273,#274,#275,
#276,#277,#278,#279,#280));
#282=AXIS2_PLACEMENT_3D('',#374,#302,#303);
#283=AXIS2_PLACEMENT_3D('',#375,#304,#305);
#284=AXIS2_PLACEMENT_3D('',#384,#310,#311);
#285=AXIS2_PLACEMENT_3D('',#386,#312,#313);
#286=AXIS2_PLACEMENT_3D('',#389,#315,#316);
#287=AXIS2_PLACEMENT_3D('',#390,#317,#318);
#288=AXIS2_PLACEMENT_3D('',#401,#324,#325);
#289=AXIS2_PLACEMENT_3D('',#402,#326,#327);
#290=AXIS2_PLACEMENT_3D('',#408,#331,#332);
#291=AXIS2_PLACEMENT_3D('',#412,#335,#336);
#292=AXIS2_PLACEMENT_3D('',#416,#339,#340);
#293=AXIS2_PLACEMENT_3D('',#418,#342,#343);
#294=AXIS2_PLACEMENT_3D('',#422,#346,#347);
#295=AXIS2_PLACEMENT_3D('',#423,#348,#349);
#296=AXIS2_PLACEMENT_3D('',#424,#350,#351);
#297=AXIS2_PLACEMENT_3D('',#433,#356,#357);
#298=AXIS2_PLACEMENT_3D('',#439,#361,#362);
#299=AXIS2_PLACEMENT_3D('',#445,#366,#367);
#300=AXIS2_PLACEMENT_3D('',#448,#370,#371);
#301=AXIS2_PLACEMENT_3D('',#449,#372,#373);
#302=DIRECTION('axis',(0.,0.,1.));
#303=DIRECTION('refdir',(1.,0.,0.));
#304=DIRECTION('center_axis',(0.,0.,1.));
#305=DIRECTION('ref_axis',(1.,0.,0.));
#306=DIRECTION('',(1.,0.,0.));
#307=DIRECTION('',(0.,1.,0.));
#308=DIRECTION('',(1.,0.,0.));
#309=DIRECTION('',(0.,1.,0.));
#310=DIRECTION('center_axis',(0.,1.,0.));
#311=DIRECTION('ref_axis',(0.,0.,1.));
#312=DIRECTION('center_axis',(0.,1.,0.));
#313=DIRECTION('ref_axis',(0.,0.,1.));
#314=DIRECTION('',(0.,1.,0.));
#315=DIRECTION('center_axis',(0.,1.,0.));
#316=DIRECTION('ref_axis',(0.,0.,1.));
#317=DIRECTION('center_axis',(0.,1.,0.));
#318=DIRECTION('ref_axis',(-1.,0.,0.));
#319=DIRECTION('',(1.,0.,0.));
#320=DIRECTION('',(0.,0.,-1.));
#321=DIRECTION('',(-1.,0.,0.));
#322=DIRECTION('',(0.,0.,1.));
#323=DIRECTION('',(-1.,0.,0.));
#324=DIRECTION('center_axis',(0.,1.,0.));
#325=DIRECTION('ref_axis',(-3.55271367880051E-14,0.,-1.));
#326=DIRECTION('center_axis',(0.,0.,1.));
#327=DIRECTION('ref_axis',(1.,0.,0.));
#328=DIRECTION('',(0.,1.,0.));
#329=DIRECTION('',(-1.,0.,0.));
#330=DIRECTION('',(0.,-1.,0.));
#331=DIRECTION('center_axis',(1.,0.,0.));
#332=DIRECTION('ref_axis',(0.,0.,-1.));
#333=DIRECTION('',(0.,0.,1.));
#334=DIRECTION('',(0.,-1.,0.));
#335=DIRECTION('center_axis',(0.,0.,-1.));
#336=DIRECTION('ref_axis',(-1.,0.,0.));
#337=DIRECTION('',(1.,0.,0.));
#338=DIRECTION('',(0.,-1.,0.));
#339=DIRECTION('center_axis',(-1.,0.,0.));
#340=DIRECTION('ref_axis',(0.,0.,1.));
#341=DIRECTION('',(0.,0.,-1.));
#342=DIRECTION('center_axis',(0.,0.,-1.));
#343=DIRECTION('ref_axis',(-1.,0.,0.));
#344=DIRECTION('',(0.,1.,0.));
#345=DIRECTION('',(-1.,0.,0.));
#346=DIRECTION('center_axis',(0.,1.,0.));
#347=DIRECTION('ref_axis',(-3.55271367880051E-14,0.,-1.));
#348=DIRECTION('center_axis',(0.,1.,0.));
#349=DIRECTION('ref_axis',(-3.55271367880051E-14,0.,-1.));
#350=DIRECTION('center_axis',(-1.,0.,0.));
#351=DIRECTION('ref_axis',(0.,0.,1.));
#352=DIRECTION('',(0.,0.,-1.));
#353=DIRECTION('',(0.,1.,0.));
#354=DIRECTION('',(0.,0.,1.));
#355=DIRECTION('',(0.,1.,0.));
#356=DIRECTION('center_axis',(0.,0.,-1.));
#357=DIRECTION('ref_axis',(-1.,0.,0.));
#358=DIRECTION('',(1.,0.,0.));
#359=DIRECTION('',(-1.,0.,0.));
#360=DIRECTION('',(0.,1.,0.));
#361=DIRECTION('center_axis',(1.,0.,0.));
#362=DIRECTION('ref_axis',(0.,0.,-1.));
#363=DIRECTION('',(0.,0.,1.));
#364=DIRECTION('',(0.,0.,-1.));
#365=DIRECTION('',(0.,1.,0.));
#366=DIRECTION('center_axis',(0.,0.,1.));
#367=DIRECTION('ref_axis',(1.,0.,0.));
#368=DIRECTION('',(-1.,0.,0.));
#369=DIRECTION('',(1.,0.,0.));
#370=DIRECTION('center_axis',(0.,1.,0.));
#371=DIRECTION('ref_axis',(0.,0.,1.));
#372=DIRECTION('center_axis',(0.,1.,0.));
#373=DIRECTION('ref_axis',(-1.,0.,0.));
#374=CARTESIAN_POINT('',(0.,0.,0.));
#375=CARTESIAN_POINT('Origin',(166.33,-26.725556168759,5.66500000000005));
#376=CARTESIAN_POINT('',(166.33,-9.72555616875897,5.66500000000005));
#377=CARTESIAN_POINT('',(179.87,-9.72555616875897,5.66500000000005));
#378=CARTESIAN_POINT('',(169.911845466403,-9.72555616875897,5.66500000000005));
#379=CARTESIAN_POINT('',(179.87,-11.725556168759,5.66500000000005));
#380=CARTESIAN_POINT('',(179.87,-26.725556168759,5.66500000000005));
#381=CARTESIAN_POINT('',(166.33,-11.725556168759,5.66500000000005));
#382=CARTESIAN_POINT('',(169.715,-11.725556168759,5.66500000000005));
#383=CARTESIAN_POINT('',(166.33,-26.725556168759,5.66500000000005));
#384=CARTESIAN_POINT('Origin',(179.87,-26.725556168759,3.66500000000006));
#385=CARTESIAN_POINT('',(179.87,-9.72555616875897,1.66500000000006));
#386=CARTESIAN_POINT('Origin',(179.87,-9.72555616875897,3.66500000000006));
#387=CARTESIAN_POINT('',(179.87,-11.725556168759,1.66500000000006));
#388=CARTESIAN_POINT('',(179.87,-26.725556168759,1.66500000000006));
#389=CARTESIAN_POINT('Origin',(179.87,-11.725556168759,3.66500000000006));
#390=CARTESIAN_POINT('Origin',(173.1,-9.72555616875897,3.16500000000005));
#391=CARTESIAN_POINT('',(125.1,-9.72555616875897,-5.53499999999995));
#392=CARTESIAN_POINT('',(221.1,-9.72555616875897,-5.53499999999995));
#393=CARTESIAN_POINT('',(198.1,-9.72555616875897,-5.53499999999995));
#394=CARTESIAN_POINT('',(125.1,-9.72555616875897,11.865));
#395=CARTESIAN_POINT('',(125.1,-9.72555616875897,-2.18499999999995));
#396=CARTESIAN_POINT('',(221.1,-9.72555616875897,11.865));
#397=CARTESIAN_POINT('',(148.1,-9.72555616875897,11.865));
#398=CARTESIAN_POINT('',(221.1,-9.72555616875897,8.51500000000005));
#399=CARTESIAN_POINT('',(166.33,-9.72555616875897,1.66500000000006));
#400=CARTESIAN_POINT('',(176.681845466403,-9.72555616875897,1.66500000000006));
#401=CARTESIAN_POINT('Origin',(166.33,-9.72555616875897,3.66500000000006));
#402=CARTESIAN_POINT('Origin',(123.1,-11.725556168759,11.865));
#403=CARTESIAN_POINT('',(125.1,18.274443831241,11.865));
#404=CARTESIAN_POINT('',(125.1,-11.725556168759,11.865));
#405=CARTESIAN_POINT('',(221.1,18.274443831241,11.865));
#406=CARTESIAN_POINT('',(223.1,18.274443831241,11.865));
#407=CARTESIAN_POINT('',(221.1,-11.725556168759,11.865));
#408=CARTESIAN_POINT('Origin',(221.1,-11.725556168759,13.865));
#409=CARTESIAN_POINT('',(221.1,18.274443831241,-5.53499999999995));
#410=CARTESIAN_POINT('',(221.1,18.274443831241,-7.53499999999995));
#411=CARTESIAN_POINT('',(221.1,-11.725556168759,-5.53499999999995));
#412=CARTESIAN_POINT('Origin',(223.1,-11.725556168759,-5.53499999999995));
#413=CARTESIAN_POINT('',(125.1,18.274443831241,-5.53499999999995));
#414=CARTESIAN_POINT('',(123.1,18.274443831241,-5.53499999999995));
#415=CARTESIAN_POINT('',(125.1,-11.725556168759,-5.53499999999995));
#416=CARTESIAN_POINT('Origin',(125.1,-11.725556168759,-7.53499999999995));
#417=CARTESIAN_POINT('',(125.1,18.274443831241,13.865));
#418=CARTESIAN_POINT('Origin',(179.87,-26.725556168759,1.66500000000006));
#419=CARTESIAN_POINT('',(166.33,-11.725556168759,1.66500000000006));
#420=CARTESIAN_POINT('',(166.33,-26.725556168759,1.66500000000006));
#421=CARTESIAN_POINT('',(176.485,-11.725556168759,1.66500000000006));
#422=CARTESIAN_POINT('Origin',(166.33,-26.725556168759,3.66500000000006));
#423=CARTESIAN_POINT('Origin',(166.33,-11.725556168759,3.66500000000006));
#424=CARTESIAN_POINT('Origin',(123.1,-11.725556168759,-7.53499999999995));
#425=CARTESIAN_POINT('',(123.1,-11.725556168759,13.865));
#426=CARTESIAN_POINT('',(123.1,-11.725556168759,-7.53499999999995));
#427=CARTESIAN_POINT('',(123.1,-11.725556168759,13.865));
#428=CARTESIAN_POINT('',(123.1,18.274443831241,13.865));
#429=CARTESIAN_POINT('',(123.1,-11.725556168759,13.865));
#430=CARTESIAN_POINT('',(123.1,18.274443831241,-7.53499999999995));
#431=CARTESIAN_POINT('',(123.1,18.274443831241,13.865));
#432=CARTESIAN_POINT('',(123.1,-11.725556168759,-7.53499999999995));
#433=CARTESIAN_POINT('Origin',(223.1,-11.725556168759,-7.53499999999995));
#434=CARTESIAN_POINT('',(223.1,-11.725556168759,-7.53499999999995));
#435=CARTESIAN_POINT('',(123.1,-11.725556168759,-7.53499999999995));
#436=CARTESIAN_POINT('',(223.1,18.274443831241,-7.53499999999995));
#437=CARTESIAN_POINT('',(123.1,18.274443831241,-7.53499999999995));
#438=CARTESIAN_POINT('',(223.1,-11.725556168759,-7.53499999999995));
#439=CARTESIAN_POINT('Origin',(223.1,-11.725556168759,13.865));
#440=CARTESIAN_POINT('',(223.1,-11.725556168759,13.865));
#441=CARTESIAN_POINT('',(223.1,-11.725556168759,-7.53499999999995));
#442=CARTESIAN_POINT('',(223.1,18.274443831241,13.865));
#443=CARTESIAN_POINT('',(223.1,18.274443831241,-7.53499999999995));
#444=CARTESIAN_POINT('',(223.1,-11.725556168759,13.865));
#445=CARTESIAN_POINT('Origin',(123.1,-11.725556168759,13.865));
#446=CARTESIAN_POINT('',(223.1,-11.725556168759,13.865));
#447=CARTESIAN_POINT('',(223.1,18.274443831241,13.865));
#448=CARTESIAN_POINT('Origin',(173.1,18.274443831241,3.16500000000005));
#449=CARTESIAN_POINT('Origin',(173.1,-11.725556168759,3.16500000000005));
#450=UNCERTAINTY_MEASURE_WITH_UNIT(LENGTH_MEASURE(0.01),#454,
'DISTANCE_ACCURACY_VALUE',
'Maximum model space distance between geometric entities at asserted c
onnectivities');
#451=UNCERTAINTY_MEASURE_WITH_UNIT(LENGTH_MEASURE(0.01),#454,
'DISTANCE_ACCURACY_VALUE',
'Maximum model space distance between geometric entities at asserted c
onnectivities');
#452=(
GEOMETRIC_REPRESENTATION_CONTEXT(3)
GLOBAL_UNCERTAINTY_ASSIGNED_CONTEXT((#450))
GLOBAL_UNIT_ASSIGNED_CONTEXT((#454,#455,#456))
REPRESENTATION_CONTEXT('','3D')
);
#453=(
GEOMETRIC_REPRESENTATION_CONTEXT(3)
GLOBAL_UNCERTAINTY_ASSIGNED_CONTEXT((#451))
GLOBAL_UNIT_ASSIGNED_CONTEXT((#454,#455,#456))
REPRESENTATION_CONTEXT('','3D')
);
#454=(
LENGTH_UNIT()
NAMED_UNIT(*)
SI_UNIT(.MILLI.,.METRE.)
);
#455=(
NAMED_UNIT(*)
PLANE_ANGLE_UNIT()
SI_UNIT($,.RADIAN.)
);
#456=(
NAMED_UNIT(*)
SI_UNIT($,.STERADIAN.)
SOLID_ANGLE_UNIT()
);
#457=SHAPE_DEFINITION_REPRESENTATION(#458,#459);
#458=PRODUCT_DEFINITION_SHAPE('',$,#461);
#459=SHAPE_REPRESENTATION('',(#282),#452);
#460=PRODUCT_DEFINITION_CONTEXT('part definition',#465,'design');
#461=PRODUCT_DEFINITION('keyboard_pcb_step 1','keyboard_pcb_step v3',#462,
#460);
#462=PRODUCT_DEFINITION_FORMATION('',$,#467);
#463=PRODUCT_RELATED_PRODUCT_CATEGORY('keyboard_pcb_step v3',
'keyboard_pcb_step v3',(#467));
#464=APPLICATION_PROTOCOL_DEFINITION('international standard',
'automotive_design',2009,#465);
#465=APPLICATION_CONTEXT(
'Core Data for Automotive Mechanical Design Process');
#466=PRODUCT_CONTEXT('part definition',#465,'mechanical');
#467=PRODUCT('keyboard_pcb_step 1','keyboard_pcb_step v3',
'KiCad electronic assembly',(#466));
#468=PRESENTATION_STYLE_ASSIGNMENT((#476));
#469=PRESENTATION_STYLE_ASSIGNMENT((#477));
#470=PRESENTATION_STYLE_ASSIGNMENT((#478));
#471=PRESENTATION_STYLE_ASSIGNMENT((#479));
#472=PRESENTATION_STYLE_ASSIGNMENT((#480));
#473=PRESENTATION_STYLE_ASSIGNMENT((#481));
#474=PRESENTATION_STYLE_ASSIGNMENT((#482));
#475=PRESENTATION_STYLE_ASSIGNMENT((#483));
#476=SURFACE_STYLE_USAGE(.BOTH.,#484);
#477=SURFACE_STYLE_USAGE(.BOTH.,#485);
#478=SURFACE_STYLE_USAGE(.BOTH.,#486);
#479=SURFACE_STYLE_USAGE(.BOTH.,#487);
#480=SURFACE_STYLE_USAGE(.BOTH.,#488);
#481=SURFACE_STYLE_USAGE(.BOTH.,#489);
#482=SURFACE_STYLE_USAGE(.BOTH.,#490);
#483=SURFACE_STYLE_USAGE(.BOTH.,#491);
#484=SURFACE_SIDE_STYLE('',(#492));
#485=SURFACE_SIDE_STYLE('',(#493));
#486=SURFACE_SIDE_STYLE('',(#494));
#487=SURFACE_SIDE_STYLE('',(#495));
#488=SURFACE_SIDE_STYLE('',(#496));
#489=SURFACE_SIDE_STYLE('',(#497));
#490=SURFACE_SIDE_STYLE('',(#498));
#491=SURFACE_SIDE_STYLE('',(#499));
#492=SURFACE_STYLE_FILL_AREA(#500);
#493=SURFACE_STYLE_FILL_AREA(#501);
#494=SURFACE_STYLE_FILL_AREA(#502);
#495=SURFACE_STYLE_FILL_AREA(#503);
#496=SURFACE_STYLE_FILL_AREA(#504);
#497=SURFACE_STYLE_FILL_AREA(#505);
#498=SURFACE_STYLE_FILL_AREA(#506);
#499=SURFACE_STYLE_FILL_AREA(#507);
#500=FILL_AREA_STYLE('Steel - Satin',(#508));
#501=FILL_AREA_STYLE('Opaque(145,145,150)',(#509));
#502=FILL_AREA_STYLE('Opaque(202,209,238)',(#510));
#503=FILL_AREA_STYLE('Opaque(26,26,26)',(#511));
#504=FILL_AREA_STYLE('Opaque(247,224,153)',(#512));
#505=FILL_AREA_STYLE('Opaque(74,117,181)',(#513));
#506=FILL_AREA_STYLE('Opaque(246,246,243)',(#514));
#507=FILL_AREA_STYLE('Opaque(255,255,255)',(#515));
#508=FILL_AREA_STYLE_COLOUR('Steel - Satin',#516);
#509=FILL_AREA_STYLE_COLOUR('Opaque(145,145,150)',#517);
#510=FILL_AREA_STYLE_COLOUR('Opaque(202,209,238)',#518);
#511=FILL_AREA_STYLE_COLOUR('Opaque(26,26,26)',#519);
#512=FILL_AREA_STYLE_COLOUR('Opaque(247,224,153)',#520);
#513=FILL_AREA_STYLE_COLOUR('Opaque(74,117,181)',#521);
#514=FILL_AREA_STYLE_COLOUR('Opaque(246,246,243)',#522);
#515=FILL_AREA_STYLE_COLOUR('Opaque(255,255,255)',#523);
#516=COLOUR_RGB('Steel - Satin',0.627450980392157,0.627450980392157,0.627450980392157);
#517=COLOUR_RGB('Opaque(145,145,150)',0.568627450980392,0.568627450980392,
0.588235294117647);
#518=COLOUR_RGB('Opaque(202,209,238)',0.792156862745098,0.819607843137255,
0.933333333333333);
#519=COLOUR_RGB('Opaque(26,26,26)',0.101960784313725,0.101960784313725,
0.101960784313725);
#520=COLOUR_RGB('Opaque(247,224,153)',0.968627450980392,0.87843137254902,
0.6);
#521=COLOUR_RGB('Opaque(74,117,181)',0.290196078431373,0.458823529411765,
0.709803921568627);
#522=COLOUR_RGB('Opaque(246,246,243)',0.964705882352941,0.964705882352941,
0.952941176470588);
#523=COLOUR_RGB('Opaque(255,255,255)',1.,1.,1.);
ENDSEC;
END-ISO-10303-21;
