ISO-10303-21;
HEADER;
/* Generated by software containing ST-Developer
 * from STEP Tools, Inc. (www.steptools.com) 
 */

FILE_DESCRIPTION(
/* description */ ('KiCad electronic assembly'),
/* implementation_level */ '2;1');

FILE_NAME(
/* name */ 'upper case step.step',
/* time_stamp */ '2026-08-21T11:38:22+02:00',
/* author */ (''),
/* organization */ (''),
/* preprocessor_version */ 'ST-DEVELOPER v20.1',
/* originating_system */ 'Autodesk Translation Framework v15.8.0.0',
/* authorisation */ '');

FILE_SCHEMA (('AUTOMOTIVE_DESIGN { 1 0 10303 214 3 1 1 }'));
ENDSEC;

DATA;
#10=MECHANICAL_DESIGN_GEOMETRIC_PRESENTATION_REPRESENTATION('',(#13),#1669);
#11=SHAPE_REPRESENTATION_RELATIONSHIP('SRR','None',#1675,#12);
#12=ADVANCED_BREP_SHAPE_REPRESENTATION('',(#14),#1668);
#13=STYLED_ITEM('',(#1684),#14);
#14=MANIFOLD_SOLID_BREP('upper case',#1065);
#15=FACE_BOUND('',#88,.T.);
#16=FACE_BOUND('',#90,.T.);
#17=FACE_BOUND('',#91,.T.);
#18=FACE_BOUND('',#92,.T.);
#19=FACE_BOUND('',#93,.T.);
#20=FACE_BOUND('',#103,.T.);
#21=FACE_BOUND('',#105,.T.);
#22=FACE_BOUND('',#139,.T.);
#23=FACE_BOUND('',#140,.T.);
#24=FACE_BOUND('',#141,.T.);
#25=FACE_BOUND('',#142,.T.);
#26=FACE_OUTER_BOUND('',#79,.T.);
#27=FACE_OUTER_BOUND('',#80,.T.);
#28=FACE_OUTER_BOUND('',#81,.T.);
#29=FACE_OUTER_BOUND('',#82,.T.);
#30=FACE_OUTER_BOUND('',#83,.T.);
#31=FACE_OUTER_BOUND('',#84,.T.);
#32=FACE_OUTER_BOUND('',#85,.T.);
#33=FACE_OUTER_BOUND('',#86,.T.);
#34=FACE_OUTER_BOUND('',#87,.T.);
#35=FACE_OUTER_BOUND('',#89,.T.);
#36=FACE_OUTER_BOUND('',#94,.T.);
#37=FACE_OUTER_BOUND('',#95,.T.);
#38=FACE_OUTER_BOUND('',#96,.T.);
#39=FACE_OUTER_BOUND('',#97,.T.);
#40=FACE_OUTER_BOUND('',#98,.T.);
#41=FACE_OUTER_BOUND('',#99,.T.);
#42=FACE_OUTER_BOUND('',#100,.T.);
#43=FACE_OUTER_BOUND('',#101,.T.);
#44=FACE_OUTER_BOUND('',#102,.T.);
#45=FACE_OUTER_BOUND('',#104,.T.);
#46=FACE_OUTER_BOUND('',#106,.T.);
#47=FACE_OUTER_BOUND('',#107,.T.);
#48=FACE_OUTER_BOUND('',#108,.T.);
#49=FACE_OUTER_BOUND('',#109,.T.);
#50=FACE_OUTER_BOUND('',#110,.T.);
#51=FACE_OUTER_BOUND('',#111,.T.);
#52=FACE_OUTER_BOUND('',#112,.T.);
#53=FACE_OUTER_BOUND('',#113,.T.);
#54=FACE_OUTER_BOUND('',#114,.T.);
#55=FACE_OUTER_BOUND('',#115,.T.);
#56=FACE_OUTER_BOUND('',#116,.T.);
#57=FACE_OUTER_BOUND('',#117,.T.);
#58=FACE_OUTER_BOUND('',#118,.T.);
#59=FACE_OUTER_BOUND('',#119,.T.);
#60=FACE_OUTER_BOUND('',#120,.T.);
#61=FACE_OUTER_BOUND('',#121,.T.);
#62=FACE_OUTER_BOUND('',#122,.T.);
#63=FACE_OUTER_BOUND('',#123,.T.);
#64=FACE_OUTER_BOUND('',#124,.T.);
#65=FACE_OUTER_BOUND('',#125,.T.);
#66=FACE_OUTER_BOUND('',#126,.T.);
#67=FACE_OUTER_BOUND('',#127,.T.);
#68=FACE_OUTER_BOUND('',#128,.T.);
#69=FACE_OUTER_BOUND('',#129,.T.);
#70=FACE_OUTER_BOUND('',#130,.T.);
#71=FACE_OUTER_BOUND('',#131,.T.);
#72=FACE_OUTER_BOUND('',#132,.T.);
#73=FACE_OUTER_BOUND('',#133,.T.);
#74=FACE_OUTER_BOUND('',#134,.T.);
#75=FACE_OUTER_BOUND('',#135,.T.);
#76=FACE_OUTER_BOUND('',#136,.T.);
#77=FACE_OUTER_BOUND('',#137,.T.);
#78=FACE_OUTER_BOUND('',#138,.T.);
#79=EDGE_LOOP('',(#671,#672,#673,#674));
#80=EDGE_LOOP('',(#675,#676,#677,#678));
#81=EDGE_LOOP('',(#679,#680,#681,#682));
#82=EDGE_LOOP('',(#683,#684,#685,#686));
#83=EDGE_LOOP('',(#687,#688,#689,#690));
#84=EDGE_LOOP('',(#691,#692,#693,#694));
#85=EDGE_LOOP('',(#695,#696,#697,#698));
#86=EDGE_LOOP('',(#699,#700,#701,#702));
#87=EDGE_LOOP('',(#703,#704,#705,#706));
#88=EDGE_LOOP('',(#707,#708,#709,#710));
#89=EDGE_LOOP('',(#711,#712,#713,#714));
#90=EDGE_LOOP('',(#715,#716,#717,#718,#719,#720,#721,#722,#723,#724,#725,
#726,#727,#728,#729,#730));
#91=EDGE_LOOP('',(#731,#732,#733,#734,#735,#736,#737,#738));
#92=EDGE_LOOP('',(#739,#740,#741,#742));
#93=EDGE_LOOP('',(#743,#744,#745,#746));
#94=EDGE_LOOP('',(#747,#748,#749,#750));
#95=EDGE_LOOP('',(#751,#752,#753,#754));
#96=EDGE_LOOP('',(#755,#756,#757,#758));
#97=EDGE_LOOP('',(#759,#760,#761,#762));
#98=EDGE_LOOP('',(#763,#764,#765,#766));
#99=EDGE_LOOP('',(#767,#768,#769,#770));
#100=EDGE_LOOP('',(#771,#772,#773,#774));
#101=EDGE_LOOP('',(#775,#776,#777,#778));
#102=EDGE_LOOP('',(#779,#780,#781,#782));
#103=EDGE_LOOP('',(#783,#784,#785,#786));
#104=EDGE_LOOP('',(#787,#788,#789,#790));
#105=EDGE_LOOP('',(#791,#792,#793,#794));
#106=EDGE_LOOP('',(#795,#796,#797,#798));
#107=EDGE_LOOP('',(#799,#800,#801,#802));
#108=EDGE_LOOP('',(#803,#804,#805,#806));
#109=EDGE_LOOP('',(#807,#808,#809,#810));
#110=EDGE_LOOP('',(#811,#812,#813,#814));
#111=EDGE_LOOP('',(#815,#816,#817,#818));
#112=EDGE_LOOP('',(#819,#820,#821,#822));
#113=EDGE_LOOP('',(#823,#824,#825,#826));
#114=EDGE_LOOP('',(#827,#828,#829,#830));
#115=EDGE_LOOP('',(#831,#832,#833,#834));
#116=EDGE_LOOP('',(#835,#836,#837,#838));
#117=EDGE_LOOP('',(#839,#840,#841,#842));
#118=EDGE_LOOP('',(#843,#844,#845,#846));
#119=EDGE_LOOP('',(#847,#848,#849,#850));
#120=EDGE_LOOP('',(#851,#852,#853,#854));
#121=EDGE_LOOP('',(#855,#856,#857,#858));
#122=EDGE_LOOP('',(#859,#860,#861,#862));
#123=EDGE_LOOP('',(#863,#864,#865,#866));
#124=EDGE_LOOP('',(#867,#868,#869,#870));
#125=EDGE_LOOP('',(#871,#872,#873,#874));
#126=EDGE_LOOP('',(#875,#876,#877,#878));
#127=EDGE_LOOP('',(#879,#880,#881,#882));
#128=EDGE_LOOP('',(#883,#884,#885,#886));
#129=EDGE_LOOP('',(#887,#888,#889,#890));
#130=EDGE_LOOP('',(#891,#892,#893,#894));
#131=EDGE_LOOP('',(#895,#896,#897,#898));
#132=EDGE_LOOP('',(#899,#900,#901,#902));
#133=EDGE_LOOP('',(#903,#904,#905,#906));
#134=EDGE_LOOP('',(#907,#908,#909,#910));
#135=EDGE_LOOP('',(#911,#912,#913,#914));
#136=EDGE_LOOP('',(#915,#916,#917,#918));
#137=EDGE_LOOP('',(#919,#920,#921,#922));
#138=EDGE_LOOP('',(#923,#924,#925,#926));
#139=EDGE_LOOP('',(#927,#928,#929,#930));
#140=EDGE_LOOP('',(#931,#932,#933,#934));
#141=EDGE_LOOP('',(#935,#936,#937,#938,#939,#940,#941,#942));
#142=EDGE_LOOP('',(#943,#944,#945,#946,#947,#948,#949,#950,#951,#952,#953,
#954,#955,#956,#957,#958));
#143=LINE('',#1376,#287);
#144=LINE('',#1378,#288);
#145=LINE('',#1380,#289);
#146=LINE('',#1381,#290);
#147=LINE('',#1385,#291);
#148=LINE('',#1386,#292);
#149=LINE('',#1387,#293);
#150=LINE('',#1391,#294);
#151=LINE('',#1393,#295);
#152=LINE('',#1395,#296);
#153=LINE('',#1396,#297);
#154=LINE('',#1399,#298);
#155=LINE('',#1401,#299);
#156=LINE('',#1402,#300);
#157=LINE('',#1405,#301);
#158=LINE('',#1407,#302);
#159=LINE('',#1408,#303);
#160=LINE('',#1410,#304);
#161=LINE('',#1411,#305);
#162=LINE('',#1414,#306);
#163=LINE('',#1416,#307);
#164=LINE('',#1417,#308);
#165=LINE('',#1419,#309);
#166=LINE('',#1420,#310);
#167=LINE('',#1425,#311);
#168=LINE('',#1427,#312);
#169=LINE('',#1429,#313);
#170=LINE('',#1430,#314);
#171=LINE('',#1433,#315);
#172=LINE('',#1435,#316);
#173=LINE('',#1437,#317);
#174=LINE('',#1439,#318);
#175=LINE('',#1441,#319);
#176=LINE('',#1443,#320);
#177=LINE('',#1445,#321);
#178=LINE('',#1447,#322);
#179=LINE('',#1449,#323);
#180=LINE('',#1451,#324);
#181=LINE('',#1453,#325);
#182=LINE('',#1455,#326);
#183=LINE('',#1457,#327);
#184=LINE('',#1459,#328);
#185=LINE('',#1461,#329);
#186=LINE('',#1462,#330);
#187=LINE('',#1465,#331);
#188=LINE('',#1467,#332);
#189=LINE('',#1469,#333);
#190=LINE('',#1471,#334);
#191=LINE('',#1473,#335);
#192=LINE('',#1475,#336);
#193=LINE('',#1477,#337);
#194=LINE('',#1478,#338);
#195=LINE('',#1481,#339);
#196=LINE('',#1483,#340);
#197=LINE('',#1485,#341);
#198=LINE('',#1486,#342);
#199=LINE('',#1489,#343);
#200=LINE('',#1491,#344);
#201=LINE('',#1492,#345);
#202=LINE('',#1495,#346);
#203=LINE('',#1496,#347);
#204=LINE('',#1499,#348);
#205=LINE('',#1500,#349);
#206=LINE('',#1502,#350);
#207=LINE('',#1506,#351);
#208=LINE('',#1508,#352);
#209=LINE('',#1510,#353);
#210=LINE('',#1511,#354);
#211=LINE('',#1514,#355);
#212=LINE('',#1516,#356);
#213=LINE('',#1517,#357);
#214=LINE('',#1520,#358);
#215=LINE('',#1522,#359);
#216=LINE('',#1523,#360);
#217=LINE('',#1525,#361);
#218=LINE('',#1526,#362);
#219=LINE('',#1531,#363);
#220=LINE('',#1533,#364);
#221=LINE('',#1535,#365);
#222=LINE('',#1536,#366);
#223=LINE('',#1539,#367);
#224=LINE('',#1541,#368);
#225=LINE('',#1542,#369);
#226=LINE('',#1545,#370);
#227=LINE('',#1546,#371);
#228=LINE('',#1549,#372);
#229=LINE('',#1550,#373);
#230=LINE('',#1553,#374);
#231=LINE('',#1554,#375);
#232=LINE('',#1557,#376);
#233=LINE('',#1558,#377);
#234=LINE('',#1561,#378);
#235=LINE('',#1562,#379);
#236=LINE('',#1565,#380);
#237=LINE('',#1566,#381);
#238=LINE('',#1569,#382);
#239=LINE('',#1570,#383);
#240=LINE('',#1573,#384);
#241=LINE('',#1574,#385);
#242=LINE('',#1577,#386);
#243=LINE('',#1578,#387);
#244=LINE('',#1581,#388);
#245=LINE('',#1582,#389);
#246=LINE('',#1585,#390);
#247=LINE('',#1586,#391);
#248=LINE('',#1589,#392);
#249=LINE('',#1590,#393);
#250=LINE('',#1593,#394);
#251=LINE('',#1594,#395);
#252=LINE('',#1597,#396);
#253=LINE('',#1598,#397);
#254=LINE('',#1600,#398);
#255=LINE('',#1603,#399);
#256=LINE('',#1605,#400);
#257=LINE('',#1606,#401);
#258=LINE('',#1609,#402);
#259=LINE('',#1610,#403);
#260=LINE('',#1613,#404);
#261=LINE('',#1614,#405);
#262=LINE('',#1617,#406);
#263=LINE('',#1618,#407);
#264=LINE('',#1621,#408);
#265=LINE('',#1622,#409);
#266=LINE('',#1625,#410);
#267=LINE('',#1626,#411);
#268=LINE('',#1629,#412);
#269=LINE('',#1630,#413);
#270=LINE('',#1632,#414);
#271=LINE('',#1635,#415);
#272=LINE('',#1637,#416);
#273=LINE('',#1638,#417);
#274=LINE('',#1641,#418);
#275=LINE('',#1642,#419);
#276=LINE('',#1645,#420);
#277=LINE('',#1646,#421);
#278=LINE('',#1648,#422);
#279=LINE('',#1651,#423);
#280=LINE('',#1653,#424);
#281=LINE('',#1654,#425);
#282=LINE('',#1657,#426);
#283=LINE('',#1658,#427);
#284=LINE('',#1661,#428);
#285=LINE('',#1662,#429);
#286=LINE('',#1664,#430);
#287=VECTOR('',#1124,10.);
#288=VECTOR('',#1125,10.);
#289=VECTOR('',#1126,10.);
#290=VECTOR('',#1127,10.);
#291=VECTOR('',#1130,10.);
#292=VECTOR('',#1131,10.);
#293=VECTOR('',#1132,10.);
#294=VECTOR('',#1135,10.);
#295=VECTOR('',#1136,10.);
#296=VECTOR('',#1137,10.);
#297=VECTOR('',#1138,10.);
#298=VECTOR('',#1141,10.);
#299=VECTOR('',#1142,10.);
#300=VECTOR('',#1143,10.);
#301=VECTOR('',#1146,10.);
#302=VECTOR('',#1147,10.);
#303=VECTOR('',#1148,10.);
#304=VECTOR('',#1151,10.);
#305=VECTOR('',#1152,10.);
#306=VECTOR('',#1155,10.);
#307=VECTOR('',#1156,10.);
#308=VECTOR('',#1157,10.);
#309=VECTOR('',#1160,10.);
#310=VECTOR('',#1161,10.);
#311=VECTOR('',#1166,10.);
#312=VECTOR('',#1167,10.);
#313=VECTOR('',#1168,10.);
#314=VECTOR('',#1169,10.);
#315=VECTOR('',#1170,10.);
#316=VECTOR('',#1171,10.);
#317=VECTOR('',#1172,10.);
#318=VECTOR('',#1173,10.);
#319=VECTOR('',#1174,10.);
#320=VECTOR('',#1175,10.);
#321=VECTOR('',#1176,10.);
#322=VECTOR('',#1177,10.);
#323=VECTOR('',#1178,10.);
#324=VECTOR('',#1179,10.);
#325=VECTOR('',#1180,10.);
#326=VECTOR('',#1181,10.);
#327=VECTOR('',#1182,10.);
#328=VECTOR('',#1183,10.);
#329=VECTOR('',#1184,10.);
#330=VECTOR('',#1185,10.);
#331=VECTOR('',#1186,10.);
#332=VECTOR('',#1187,10.);
#333=VECTOR('',#1188,10.);
#334=VECTOR('',#1189,10.);
#335=VECTOR('',#1190,10.);
#336=VECTOR('',#1191,10.);
#337=VECTOR('',#1192,10.);
#338=VECTOR('',#1193,10.);
#339=VECTOR('',#1194,10.);
#340=VECTOR('',#1195,10.);
#341=VECTOR('',#1196,10.);
#342=VECTOR('',#1197,10.);
#343=VECTOR('',#1200,10.);
#344=VECTOR('',#1201,10.);
#345=VECTOR('',#1202,10.);
#346=VECTOR('',#1205,10.);
#347=VECTOR('',#1206,10.);
#348=VECTOR('',#1209,10.);
#349=VECTOR('',#1210,10.);
#350=VECTOR('',#1213,10.);
#351=VECTOR('',#1216,10.);
#352=VECTOR('',#1217,10.);
#353=VECTOR('',#1218,10.);
#354=VECTOR('',#1219,10.);
#355=VECTOR('',#1222,10.);
#356=VECTOR('',#1223,10.);
#357=VECTOR('',#1224,10.);
#358=VECTOR('',#1227,10.);
#359=VECTOR('',#1228,10.);
#360=VECTOR('',#1229,10.);
#361=VECTOR('',#1232,10.);
#362=VECTOR('',#1233,10.);
#363=VECTOR('',#1238,10.);
#364=VECTOR('',#1239,10.);
#365=VECTOR('',#1240,10.);
#366=VECTOR('',#1241,10.);
#367=VECTOR('',#1244,10.);
#368=VECTOR('',#1245,10.);
#369=VECTOR('',#1246,10.);
#370=VECTOR('',#1249,10.);
#371=VECTOR('',#1250,10.);
#372=VECTOR('',#1253,10.);
#373=VECTOR('',#1254,10.);
#374=VECTOR('',#1257,10.);
#375=VECTOR('',#1258,10.);
#376=VECTOR('',#1261,10.);
#377=VECTOR('',#1262,10.);
#378=VECTOR('',#1265,10.);
#379=VECTOR('',#1266,10.);
#380=VECTOR('',#1269,10.);
#381=VECTOR('',#1270,10.);
#382=VECTOR('',#1273,10.);
#383=VECTOR('',#1274,10.);
#384=VECTOR('',#1277,10.);
#385=VECTOR('',#1278,10.);
#386=VECTOR('',#1281,10.);
#387=VECTOR('',#1282,10.);
#388=VECTOR('',#1285,10.);
#389=VECTOR('',#1286,10.);
#390=VECTOR('',#1289,10.);
#391=VECTOR('',#1290,10.);
#392=VECTOR('',#1293,10.);
#393=VECTOR('',#1294,10.);
#394=VECTOR('',#1297,10.);
#395=VECTOR('',#1298,10.);
#396=VECTOR('',#1301,10.);
#397=VECTOR('',#1302,10.);
#398=VECTOR('',#1305,10.);
#399=VECTOR('',#1308,10.);
#400=VECTOR('',#1309,10.);
#401=VECTOR('',#1310,10.);
#402=VECTOR('',#1313,10.);
#403=VECTOR('',#1314,10.);
#404=VECTOR('',#1317,10.);
#405=VECTOR('',#1318,10.);
#406=VECTOR('',#1321,10.);
#407=VECTOR('',#1322,10.);
#408=VECTOR('',#1325,10.);
#409=VECTOR('',#1326,10.);
#410=VECTOR('',#1329,10.);
#411=VECTOR('',#1330,10.);
#412=VECTOR('',#1333,10.);
#413=VECTOR('',#1334,10.);
#414=VECTOR('',#1337,10.);
#415=VECTOR('',#1340,10.);
#416=VECTOR('',#1341,10.);
#417=VECTOR('',#1342,10.);
#418=VECTOR('',#1345,10.);
#419=VECTOR('',#1346,10.);
#420=VECTOR('',#1349,10.);
#421=VECTOR('',#1350,10.);
#422=VECTOR('',#1353,10.);
#423=VECTOR('',#1356,10.);
#424=VECTOR('',#1357,10.);
#425=VECTOR('',#1358,10.);
#426=VECTOR('',#1361,10.);
#427=VECTOR('',#1362,10.);
#428=VECTOR('',#1365,10.);
#429=VECTOR('',#1366,10.);
#430=VECTOR('',#1369,10.);
#431=VERTEX_POINT('',#1374);
#432=VERTEX_POINT('',#1375);
#433=VERTEX_POINT('',#1377);
#434=VERTEX_POINT('',#1379);
#435=VERTEX_POINT('',#1383);
#436=VERTEX_POINT('',#1384);
#437=VERTEX_POINT('',#1389);
#438=VERTEX_POINT('',#1390);
#439=VERTEX_POINT('',#1392);
#440=VERTEX_POINT('',#1394);
#441=VERTEX_POINT('',#1398);
#442=VERTEX_POINT('',#1400);
#443=VERTEX_POINT('',#1404);
#444=VERTEX_POINT('',#1406);
#445=VERTEX_POINT('',#1413);
#446=VERTEX_POINT('',#1415);
#447=VERTEX_POINT('',#1423);
#448=VERTEX_POINT('',#1424);
#449=VERTEX_POINT('',#1426);
#450=VERTEX_POINT('',#1428);
#451=VERTEX_POINT('',#1431);
#452=VERTEX_POINT('',#1432);
#453=VERTEX_POINT('',#1434);
#454=VERTEX_POINT('',#1436);
#455=VERTEX_POINT('',#1438);
#456=VERTEX_POINT('',#1440);
#457=VERTEX_POINT('',#1442);
#458=VERTEX_POINT('',#1444);
#459=VERTEX_POINT('',#1446);
#460=VERTEX_POINT('',#1448);
#461=VERTEX_POINT('',#1450);
#462=VERTEX_POINT('',#1452);
#463=VERTEX_POINT('',#1454);
#464=VERTEX_POINT('',#1456);
#465=VERTEX_POINT('',#1458);
#466=VERTEX_POINT('',#1460);
#467=VERTEX_POINT('',#1463);
#468=VERTEX_POINT('',#1464);
#469=VERTEX_POINT('',#1466);
#470=VERTEX_POINT('',#1468);
#471=VERTEX_POINT('',#1470);
#472=VERTEX_POINT('',#1472);
#473=VERTEX_POINT('',#1474);
#474=VERTEX_POINT('',#1476);
#475=VERTEX_POINT('',#1479);
#476=VERTEX_POINT('',#1480);
#477=VERTEX_POINT('',#1482);
#478=VERTEX_POINT('',#1484);
#479=VERTEX_POINT('',#1488);
#480=VERTEX_POINT('',#1490);
#481=VERTEX_POINT('',#1494);
#482=VERTEX_POINT('',#1498);
#483=VERTEX_POINT('',#1504);
#484=VERTEX_POINT('',#1505);
#485=VERTEX_POINT('',#1507);
#486=VERTEX_POINT('',#1509);
#487=VERTEX_POINT('',#1513);
#488=VERTEX_POINT('',#1515);
#489=VERTEX_POINT('',#1519);
#490=VERTEX_POINT('',#1521);
#491=VERTEX_POINT('',#1529);
#492=VERTEX_POINT('',#1530);
#493=VERTEX_POINT('',#1532);
#494=VERTEX_POINT('',#1534);
#495=VERTEX_POINT('',#1538);
#496=VERTEX_POINT('',#1540);
#497=VERTEX_POINT('',#1544);
#498=VERTEX_POINT('',#1548);
#499=VERTEX_POINT('',#1552);
#500=VERTEX_POINT('',#1556);
#501=VERTEX_POINT('',#1560);
#502=VERTEX_POINT('',#1564);
#503=VERTEX_POINT('',#1568);
#504=VERTEX_POINT('',#1572);
#505=VERTEX_POINT('',#1576);
#506=VERTEX_POINT('',#1580);
#507=VERTEX_POINT('',#1584);
#508=VERTEX_POINT('',#1588);
#509=VERTEX_POINT('',#1592);
#510=VERTEX_POINT('',#1596);
#511=VERTEX_POINT('',#1602);
#512=VERTEX_POINT('',#1604);
#513=VERTEX_POINT('',#1608);
#514=VERTEX_POINT('',#1612);
#515=VERTEX_POINT('',#1616);
#516=VERTEX_POINT('',#1620);
#517=VERTEX_POINT('',#1624);
#518=VERTEX_POINT('',#1628);
#519=VERTEX_POINT('',#1634);
#520=VERTEX_POINT('',#1636);
#521=VERTEX_POINT('',#1640);
#522=VERTEX_POINT('',#1644);
#523=VERTEX_POINT('',#1650);
#524=VERTEX_POINT('',#1652);
#525=VERTEX_POINT('',#1656);
#526=VERTEX_POINT('',#1660);
#527=EDGE_CURVE('',#431,#432,#143,.T.);
#528=EDGE_CURVE('',#433,#432,#144,.T.);
#529=EDGE_CURVE('',#434,#433,#145,.T.);
#530=EDGE_CURVE('',#431,#434,#146,.T.);
#531=EDGE_CURVE('',#435,#436,#147,.T.);
#532=EDGE_CURVE('',#432,#436,#148,.T.);
#533=EDGE_CURVE('',#435,#431,#149,.T.);
#534=EDGE_CURVE('',#437,#438,#150,.T.);
#535=EDGE_CURVE('',#437,#439,#151,.T.);
#536=EDGE_CURVE('',#440,#439,#152,.T.);
#537=EDGE_CURVE('',#438,#440,#153,.T.);
#538=EDGE_CURVE('',#441,#437,#154,.T.);
#539=EDGE_CURVE('',#441,#442,#155,.T.);
#540=EDGE_CURVE('',#439,#442,#156,.T.);
#541=EDGE_CURVE('',#443,#433,#157,.T.);
#542=EDGE_CURVE('',#444,#443,#158,.T.);
#543=EDGE_CURVE('',#434,#444,#159,.T.);
#544=EDGE_CURVE('',#436,#443,#160,.T.);
#545=EDGE_CURVE('',#444,#435,#161,.T.);
#546=EDGE_CURVE('',#438,#445,#162,.T.);
#547=EDGE_CURVE('',#446,#440,#163,.T.);
#548=EDGE_CURVE('',#445,#446,#164,.T.);
#549=EDGE_CURVE('',#445,#441,#165,.T.);
#550=EDGE_CURVE('',#442,#446,#166,.T.);
#551=EDGE_CURVE('',#447,#448,#167,.T.);
#552=EDGE_CURVE('',#448,#449,#168,.T.);
#553=EDGE_CURVE('',#449,#450,#169,.T.);
#554=EDGE_CURVE('',#450,#447,#170,.T.);
#555=EDGE_CURVE('',#451,#452,#171,.T.);
#556=EDGE_CURVE('',#453,#451,#172,.T.);
#557=EDGE_CURVE('',#454,#453,#173,.T.);
#558=EDGE_CURVE('',#455,#454,#174,.T.);
#559=EDGE_CURVE('',#456,#455,#175,.T.);
#560=EDGE_CURVE('',#457,#456,#176,.T.);
#561=EDGE_CURVE('',#458,#457,#177,.T.);
#562=EDGE_CURVE('',#459,#458,#178,.T.);
#563=EDGE_CURVE('',#460,#459,#179,.T.);
#564=EDGE_CURVE('',#461,#460,#180,.T.);
#565=EDGE_CURVE('',#462,#461,#181,.T.);
#566=EDGE_CURVE('',#463,#462,#182,.T.);
#567=EDGE_CURVE('',#464,#463,#183,.T.);
#568=EDGE_CURVE('',#465,#464,#184,.T.);
#569=EDGE_CURVE('',#466,#465,#185,.T.);
#570=EDGE_CURVE('',#452,#466,#186,.T.);
#571=EDGE_CURVE('',#467,#468,#187,.T.);
#572=EDGE_CURVE('',#469,#467,#188,.T.);
#573=EDGE_CURVE('',#470,#469,#189,.T.);
#574=EDGE_CURVE('',#471,#470,#190,.T.);
#575=EDGE_CURVE('',#472,#471,#191,.T.);
#576=EDGE_CURVE('',#473,#472,#192,.T.);
#577=EDGE_CURVE('',#474,#473,#193,.T.);
#578=EDGE_CURVE('',#468,#474,#194,.T.);
#579=EDGE_CURVE('',#475,#476,#195,.T.);
#580=EDGE_CURVE('',#477,#475,#196,.T.);
#581=EDGE_CURVE('',#478,#477,#197,.T.);
#582=EDGE_CURVE('',#476,#478,#198,.T.);
#583=EDGE_CURVE('',#447,#479,#199,.T.);
#584=EDGE_CURVE('',#480,#479,#200,.T.);
#585=EDGE_CURVE('',#448,#480,#201,.T.);
#586=EDGE_CURVE('',#481,#480,#202,.T.);
#587=EDGE_CURVE('',#449,#481,#203,.T.);
#588=EDGE_CURVE('',#482,#481,#204,.T.);
#589=EDGE_CURVE('',#450,#482,#205,.T.);
#590=EDGE_CURVE('',#479,#482,#206,.T.);
#591=EDGE_CURVE('',#483,#484,#207,.T.);
#592=EDGE_CURVE('',#483,#485,#208,.T.);
#593=EDGE_CURVE('',#486,#485,#209,.T.);
#594=EDGE_CURVE('',#484,#486,#210,.T.);
#595=EDGE_CURVE('',#484,#487,#211,.T.);
#596=EDGE_CURVE('',#488,#486,#212,.T.);
#597=EDGE_CURVE('',#487,#488,#213,.T.);
#598=EDGE_CURVE('',#487,#489,#214,.T.);
#599=EDGE_CURVE('',#490,#488,#215,.T.);
#600=EDGE_CURVE('',#489,#490,#216,.T.);
#601=EDGE_CURVE('',#489,#483,#217,.T.);
#602=EDGE_CURVE('',#485,#490,#218,.T.);
#603=EDGE_CURVE('',#491,#492,#219,.T.);
#604=EDGE_CURVE('',#493,#491,#220,.T.);
#605=EDGE_CURVE('',#494,#493,#221,.T.);
#606=EDGE_CURVE('',#492,#494,#222,.T.);
#607=EDGE_CURVE('',#451,#495,#223,.T.);
#608=EDGE_CURVE('',#496,#495,#224,.T.);
#609=EDGE_CURVE('',#453,#496,#225,.T.);
#610=EDGE_CURVE('',#497,#496,#226,.T.);
#611=EDGE_CURVE('',#454,#497,#227,.T.);
#612=EDGE_CURVE('',#498,#497,#228,.T.);
#613=EDGE_CURVE('',#455,#498,#229,.T.);
#614=EDGE_CURVE('',#499,#498,#230,.T.);
#615=EDGE_CURVE('',#456,#499,#231,.T.);
#616=EDGE_CURVE('',#500,#499,#232,.T.);
#617=EDGE_CURVE('',#457,#500,#233,.T.);
#618=EDGE_CURVE('',#501,#500,#234,.T.);
#619=EDGE_CURVE('',#458,#501,#235,.T.);
#620=EDGE_CURVE('',#502,#501,#236,.T.);
#621=EDGE_CURVE('',#459,#502,#237,.T.);
#622=EDGE_CURVE('',#503,#502,#238,.T.);
#623=EDGE_CURVE('',#460,#503,#239,.T.);
#624=EDGE_CURVE('',#504,#503,#240,.T.);
#625=EDGE_CURVE('',#461,#504,#241,.T.);
#626=EDGE_CURVE('',#505,#504,#242,.T.);
#627=EDGE_CURVE('',#462,#505,#243,.T.);
#628=EDGE_CURVE('',#506,#505,#244,.T.);
#629=EDGE_CURVE('',#463,#506,#245,.T.);
#630=EDGE_CURVE('',#507,#506,#246,.T.);
#631=EDGE_CURVE('',#464,#507,#247,.T.);
#632=EDGE_CURVE('',#508,#507,#248,.T.);
#633=EDGE_CURVE('',#465,#508,#249,.T.);
#634=EDGE_CURVE('',#509,#508,#250,.T.);
#635=EDGE_CURVE('',#466,#509,#251,.T.);
#636=EDGE_CURVE('',#510,#509,#252,.T.);
#637=EDGE_CURVE('',#452,#510,#253,.T.);
#638=EDGE_CURVE('',#495,#510,#254,.T.);
#639=EDGE_CURVE('',#467,#511,#255,.T.);
#640=EDGE_CURVE('',#512,#511,#256,.T.);
#641=EDGE_CURVE('',#469,#512,#257,.T.);
#642=EDGE_CURVE('',#513,#512,#258,.T.);
#643=EDGE_CURVE('',#470,#513,#259,.T.);
#644=EDGE_CURVE('',#514,#513,#260,.T.);
#645=EDGE_CURVE('',#471,#514,#261,.T.);
#646=EDGE_CURVE('',#515,#514,#262,.T.);
#647=EDGE_CURVE('',#472,#515,#263,.T.);
#648=EDGE_CURVE('',#516,#515,#264,.T.);
#649=EDGE_CURVE('',#473,#516,#265,.T.);
#650=EDGE_CURVE('',#517,#516,#266,.T.);
#651=EDGE_CURVE('',#474,#517,#267,.T.);
#652=EDGE_CURVE('',#518,#517,#268,.T.);
#653=EDGE_CURVE('',#468,#518,#269,.T.);
#654=EDGE_CURVE('',#511,#518,#270,.T.);
#655=EDGE_CURVE('',#475,#519,#271,.T.);
#656=EDGE_CURVE('',#520,#519,#272,.T.);
#657=EDGE_CURVE('',#477,#520,#273,.T.);
#658=EDGE_CURVE('',#521,#520,#274,.T.);
#659=EDGE_CURVE('',#478,#521,#275,.T.);
#660=EDGE_CURVE('',#522,#521,#276,.T.);
#661=EDGE_CURVE('',#476,#522,#277,.T.);
#662=EDGE_CURVE('',#519,#522,#278,.T.);
#663=EDGE_CURVE('',#491,#523,#279,.T.);
#664=EDGE_CURVE('',#524,#523,#280,.T.);
#665=EDGE_CURVE('',#493,#524,#281,.T.);
#666=EDGE_CURVE('',#525,#524,#282,.T.);
#667=EDGE_CURVE('',#494,#525,#283,.T.);
#668=EDGE_CURVE('',#526,#525,#284,.T.);
#669=EDGE_CURVE('',#492,#526,#285,.T.);
#670=EDGE_CURVE('',#523,#526,#286,.T.);
#671=ORIENTED_EDGE('',*,*,#527,.T.);
#672=ORIENTED_EDGE('',*,*,#528,.F.);
#673=ORIENTED_EDGE('',*,*,#529,.F.);
#674=ORIENTED_EDGE('',*,*,#530,.F.);
#675=ORIENTED_EDGE('',*,*,#531,.T.);
#676=ORIENTED_EDGE('',*,*,#532,.F.);
#677=ORIENTED_EDGE('',*,*,#527,.F.);
#678=ORIENTED_EDGE('',*,*,#533,.F.);
#679=ORIENTED_EDGE('',*,*,#534,.F.);
#680=ORIENTED_EDGE('',*,*,#535,.T.);
#681=ORIENTED_EDGE('',*,*,#536,.F.);
#682=ORIENTED_EDGE('',*,*,#537,.F.);
#683=ORIENTED_EDGE('',*,*,#538,.F.);
#684=ORIENTED_EDGE('',*,*,#539,.T.);
#685=ORIENTED_EDGE('',*,*,#540,.F.);
#686=ORIENTED_EDGE('',*,*,#535,.F.);
#687=ORIENTED_EDGE('',*,*,#529,.T.);
#688=ORIENTED_EDGE('',*,*,#541,.F.);
#689=ORIENTED_EDGE('',*,*,#542,.F.);
#690=ORIENTED_EDGE('',*,*,#543,.F.);
#691=ORIENTED_EDGE('',*,*,#542,.T.);
#692=ORIENTED_EDGE('',*,*,#544,.F.);
#693=ORIENTED_EDGE('',*,*,#531,.F.);
#694=ORIENTED_EDGE('',*,*,#545,.F.);
#695=ORIENTED_EDGE('',*,*,#546,.F.);
#696=ORIENTED_EDGE('',*,*,#537,.T.);
#697=ORIENTED_EDGE('',*,*,#547,.F.);
#698=ORIENTED_EDGE('',*,*,#548,.F.);
#699=ORIENTED_EDGE('',*,*,#549,.F.);
#700=ORIENTED_EDGE('',*,*,#548,.T.);
#701=ORIENTED_EDGE('',*,*,#550,.F.);
#702=ORIENTED_EDGE('',*,*,#539,.F.);
#703=ORIENTED_EDGE('',*,*,#550,.T.);
#704=ORIENTED_EDGE('',*,*,#547,.T.);
#705=ORIENTED_EDGE('',*,*,#536,.T.);
#706=ORIENTED_EDGE('',*,*,#540,.T.);
#707=ORIENTED_EDGE('',*,*,#544,.T.);
#708=ORIENTED_EDGE('',*,*,#541,.T.);
#709=ORIENTED_EDGE('',*,*,#528,.T.);
#710=ORIENTED_EDGE('',*,*,#532,.T.);
#711=ORIENTED_EDGE('',*,*,#551,.T.);
#712=ORIENTED_EDGE('',*,*,#552,.T.);
#713=ORIENTED_EDGE('',*,*,#553,.T.);
#714=ORIENTED_EDGE('',*,*,#554,.T.);
#715=ORIENTED_EDGE('',*,*,#555,.F.);
#716=ORIENTED_EDGE('',*,*,#556,.F.);
#717=ORIENTED_EDGE('',*,*,#557,.F.);
#718=ORIENTED_EDGE('',*,*,#558,.F.);
#719=ORIENTED_EDGE('',*,*,#559,.F.);
#720=ORIENTED_EDGE('',*,*,#560,.F.);
#721=ORIENTED_EDGE('',*,*,#561,.F.);
#722=ORIENTED_EDGE('',*,*,#562,.F.);
#723=ORIENTED_EDGE('',*,*,#563,.F.);
#724=ORIENTED_EDGE('',*,*,#564,.F.);
#725=ORIENTED_EDGE('',*,*,#565,.F.);
#726=ORIENTED_EDGE('',*,*,#566,.F.);
#727=ORIENTED_EDGE('',*,*,#567,.F.);
#728=ORIENTED_EDGE('',*,*,#568,.F.);
#729=ORIENTED_EDGE('',*,*,#569,.F.);
#730=ORIENTED_EDGE('',*,*,#570,.F.);
#731=ORIENTED_EDGE('',*,*,#571,.F.);
#732=ORIENTED_EDGE('',*,*,#572,.F.);
#733=ORIENTED_EDGE('',*,*,#573,.F.);
#734=ORIENTED_EDGE('',*,*,#574,.F.);
#735=ORIENTED_EDGE('',*,*,#575,.F.);
#736=ORIENTED_EDGE('',*,*,#576,.F.);
#737=ORIENTED_EDGE('',*,*,#577,.F.);
#738=ORIENTED_EDGE('',*,*,#578,.F.);
#739=ORIENTED_EDGE('',*,*,#579,.F.);
#740=ORIENTED_EDGE('',*,*,#580,.F.);
#741=ORIENTED_EDGE('',*,*,#581,.F.);
#742=ORIENTED_EDGE('',*,*,#582,.F.);
#743=ORIENTED_EDGE('',*,*,#538,.T.);
#744=ORIENTED_EDGE('',*,*,#534,.T.);
#745=ORIENTED_EDGE('',*,*,#546,.T.);
#746=ORIENTED_EDGE('',*,*,#549,.T.);
#747=ORIENTED_EDGE('',*,*,#551,.F.);
#748=ORIENTED_EDGE('',*,*,#583,.T.);
#749=ORIENTED_EDGE('',*,*,#584,.F.);
#750=ORIENTED_EDGE('',*,*,#585,.F.);
#751=ORIENTED_EDGE('',*,*,#552,.F.);
#752=ORIENTED_EDGE('',*,*,#585,.T.);
#753=ORIENTED_EDGE('',*,*,#586,.F.);
#754=ORIENTED_EDGE('',*,*,#587,.F.);
#755=ORIENTED_EDGE('',*,*,#553,.F.);
#756=ORIENTED_EDGE('',*,*,#587,.T.);
#757=ORIENTED_EDGE('',*,*,#588,.F.);
#758=ORIENTED_EDGE('',*,*,#589,.F.);
#759=ORIENTED_EDGE('',*,*,#554,.F.);
#760=ORIENTED_EDGE('',*,*,#589,.T.);
#761=ORIENTED_EDGE('',*,*,#590,.F.);
#762=ORIENTED_EDGE('',*,*,#583,.F.);
#763=ORIENTED_EDGE('',*,*,#591,.F.);
#764=ORIENTED_EDGE('',*,*,#592,.T.);
#765=ORIENTED_EDGE('',*,*,#593,.F.);
#766=ORIENTED_EDGE('',*,*,#594,.F.);
#767=ORIENTED_EDGE('',*,*,#595,.F.);
#768=ORIENTED_EDGE('',*,*,#594,.T.);
#769=ORIENTED_EDGE('',*,*,#596,.F.);
#770=ORIENTED_EDGE('',*,*,#597,.F.);
#771=ORIENTED_EDGE('',*,*,#598,.F.);
#772=ORIENTED_EDGE('',*,*,#597,.T.);
#773=ORIENTED_EDGE('',*,*,#599,.F.);
#774=ORIENTED_EDGE('',*,*,#600,.F.);
#775=ORIENTED_EDGE('',*,*,#601,.F.);
#776=ORIENTED_EDGE('',*,*,#600,.T.);
#777=ORIENTED_EDGE('',*,*,#602,.F.);
#778=ORIENTED_EDGE('',*,*,#592,.F.);
#779=ORIENTED_EDGE('',*,*,#602,.T.);
#780=ORIENTED_EDGE('',*,*,#599,.T.);
#781=ORIENTED_EDGE('',*,*,#596,.T.);
#782=ORIENTED_EDGE('',*,*,#593,.T.);
#783=ORIENTED_EDGE('',*,*,#590,.T.);
#784=ORIENTED_EDGE('',*,*,#588,.T.);
#785=ORIENTED_EDGE('',*,*,#586,.T.);
#786=ORIENTED_EDGE('',*,*,#584,.T.);
#787=ORIENTED_EDGE('',*,*,#603,.F.);
#788=ORIENTED_EDGE('',*,*,#604,.F.);
#789=ORIENTED_EDGE('',*,*,#605,.F.);
#790=ORIENTED_EDGE('',*,*,#606,.F.);
#791=ORIENTED_EDGE('',*,*,#591,.T.);
#792=ORIENTED_EDGE('',*,*,#595,.T.);
#793=ORIENTED_EDGE('',*,*,#598,.T.);
#794=ORIENTED_EDGE('',*,*,#601,.T.);
#795=ORIENTED_EDGE('',*,*,#556,.T.);
#796=ORIENTED_EDGE('',*,*,#607,.T.);
#797=ORIENTED_EDGE('',*,*,#608,.F.);
#798=ORIENTED_EDGE('',*,*,#609,.F.);
#799=ORIENTED_EDGE('',*,*,#557,.T.);
#800=ORIENTED_EDGE('',*,*,#609,.T.);
#801=ORIENTED_EDGE('',*,*,#610,.F.);
#802=ORIENTED_EDGE('',*,*,#611,.F.);
#803=ORIENTED_EDGE('',*,*,#558,.T.);
#804=ORIENTED_EDGE('',*,*,#611,.T.);
#805=ORIENTED_EDGE('',*,*,#612,.F.);
#806=ORIENTED_EDGE('',*,*,#613,.F.);
#807=ORIENTED_EDGE('',*,*,#559,.T.);
#808=ORIENTED_EDGE('',*,*,#613,.T.);
#809=ORIENTED_EDGE('',*,*,#614,.F.);
#810=ORIENTED_EDGE('',*,*,#615,.F.);
#811=ORIENTED_EDGE('',*,*,#560,.T.);
#812=ORIENTED_EDGE('',*,*,#615,.T.);
#813=ORIENTED_EDGE('',*,*,#616,.F.);
#814=ORIENTED_EDGE('',*,*,#617,.F.);
#815=ORIENTED_EDGE('',*,*,#561,.T.);
#816=ORIENTED_EDGE('',*,*,#617,.T.);
#817=ORIENTED_EDGE('',*,*,#618,.F.);
#818=ORIENTED_EDGE('',*,*,#619,.F.);
#819=ORIENTED_EDGE('',*,*,#562,.T.);
#820=ORIENTED_EDGE('',*,*,#619,.T.);
#821=ORIENTED_EDGE('',*,*,#620,.F.);
#822=ORIENTED_EDGE('',*,*,#621,.F.);
#823=ORIENTED_EDGE('',*,*,#563,.T.);
#824=ORIENTED_EDGE('',*,*,#621,.T.);
#825=ORIENTED_EDGE('',*,*,#622,.F.);
#826=ORIENTED_EDGE('',*,*,#623,.F.);
#827=ORIENTED_EDGE('',*,*,#564,.T.);
#828=ORIENTED_EDGE('',*,*,#623,.T.);
#829=ORIENTED_EDGE('',*,*,#624,.F.);
#830=ORIENTED_EDGE('',*,*,#625,.F.);
#831=ORIENTED_EDGE('',*,*,#565,.T.);
#832=ORIENTED_EDGE('',*,*,#625,.T.);
#833=ORIENTED_EDGE('',*,*,#626,.F.);
#834=ORIENTED_EDGE('',*,*,#627,.F.);
#835=ORIENTED_EDGE('',*,*,#566,.T.);
#836=ORIENTED_EDGE('',*,*,#627,.T.);
#837=ORIENTED_EDGE('',*,*,#628,.F.);
#838=ORIENTED_EDGE('',*,*,#629,.F.);
#839=ORIENTED_EDGE('',*,*,#567,.T.);
#840=ORIENTED_EDGE('',*,*,#629,.T.);
#841=ORIENTED_EDGE('',*,*,#630,.F.);
#842=ORIENTED_EDGE('',*,*,#631,.F.);
#843=ORIENTED_EDGE('',*,*,#568,.T.);
#844=ORIENTED_EDGE('',*,*,#631,.T.);
#845=ORIENTED_EDGE('',*,*,#632,.F.);
#846=ORIENTED_EDGE('',*,*,#633,.F.);
#847=ORIENTED_EDGE('',*,*,#569,.T.);
#848=ORIENTED_EDGE('',*,*,#633,.T.);
#849=ORIENTED_EDGE('',*,*,#634,.F.);
#850=ORIENTED_EDGE('',*,*,#635,.F.);
#851=ORIENTED_EDGE('',*,*,#570,.T.);
#852=ORIENTED_EDGE('',*,*,#635,.T.);
#853=ORIENTED_EDGE('',*,*,#636,.F.);
#854=ORIENTED_EDGE('',*,*,#637,.F.);
#855=ORIENTED_EDGE('',*,*,#555,.T.);
#856=ORIENTED_EDGE('',*,*,#637,.T.);
#857=ORIENTED_EDGE('',*,*,#638,.F.);
#858=ORIENTED_EDGE('',*,*,#607,.F.);
#859=ORIENTED_EDGE('',*,*,#572,.T.);
#860=ORIENTED_EDGE('',*,*,#639,.T.);
#861=ORIENTED_EDGE('',*,*,#640,.F.);
#862=ORIENTED_EDGE('',*,*,#641,.F.);
#863=ORIENTED_EDGE('',*,*,#573,.T.);
#864=ORIENTED_EDGE('',*,*,#641,.T.);
#865=ORIENTED_EDGE('',*,*,#642,.F.);
#866=ORIENTED_EDGE('',*,*,#643,.F.);
#867=ORIENTED_EDGE('',*,*,#574,.T.);
#868=ORIENTED_EDGE('',*,*,#643,.T.);
#869=ORIENTED_EDGE('',*,*,#644,.F.);
#870=ORIENTED_EDGE('',*,*,#645,.F.);
#871=ORIENTED_EDGE('',*,*,#575,.T.);
#872=ORIENTED_EDGE('',*,*,#645,.T.);
#873=ORIENTED_EDGE('',*,*,#646,.F.);
#874=ORIENTED_EDGE('',*,*,#647,.F.);
#875=ORIENTED_EDGE('',*,*,#576,.T.);
#876=ORIENTED_EDGE('',*,*,#647,.T.);
#877=ORIENTED_EDGE('',*,*,#648,.F.);
#878=ORIENTED_EDGE('',*,*,#649,.F.);
#879=ORIENTED_EDGE('',*,*,#577,.T.);
#880=ORIENTED_EDGE('',*,*,#649,.T.);
#881=ORIENTED_EDGE('',*,*,#650,.F.);
#882=ORIENTED_EDGE('',*,*,#651,.F.);
#883=ORIENTED_EDGE('',*,*,#578,.T.);
#884=ORIENTED_EDGE('',*,*,#651,.T.);
#885=ORIENTED_EDGE('',*,*,#652,.F.);
#886=ORIENTED_EDGE('',*,*,#653,.F.);
#887=ORIENTED_EDGE('',*,*,#571,.T.);
#888=ORIENTED_EDGE('',*,*,#653,.T.);
#889=ORIENTED_EDGE('',*,*,#654,.F.);
#890=ORIENTED_EDGE('',*,*,#639,.F.);
#891=ORIENTED_EDGE('',*,*,#580,.T.);
#892=ORIENTED_EDGE('',*,*,#655,.T.);
#893=ORIENTED_EDGE('',*,*,#656,.F.);
#894=ORIENTED_EDGE('',*,*,#657,.F.);
#895=ORIENTED_EDGE('',*,*,#581,.T.);
#896=ORIENTED_EDGE('',*,*,#657,.T.);
#897=ORIENTED_EDGE('',*,*,#658,.F.);
#898=ORIENTED_EDGE('',*,*,#659,.F.);
#899=ORIENTED_EDGE('',*,*,#582,.T.);
#900=ORIENTED_EDGE('',*,*,#659,.T.);
#901=ORIENTED_EDGE('',*,*,#660,.F.);
#902=ORIENTED_EDGE('',*,*,#661,.F.);
#903=ORIENTED_EDGE('',*,*,#579,.T.);
#904=ORIENTED_EDGE('',*,*,#661,.T.);
#905=ORIENTED_EDGE('',*,*,#662,.F.);
#906=ORIENTED_EDGE('',*,*,#655,.F.);
#907=ORIENTED_EDGE('',*,*,#604,.T.);
#908=ORIENTED_EDGE('',*,*,#663,.T.);
#909=ORIENTED_EDGE('',*,*,#664,.F.);
#910=ORIENTED_EDGE('',*,*,#665,.F.);
#911=ORIENTED_EDGE('',*,*,#605,.T.);
#912=ORIENTED_EDGE('',*,*,#665,.T.);
#913=ORIENTED_EDGE('',*,*,#666,.F.);
#914=ORIENTED_EDGE('',*,*,#667,.F.);
#915=ORIENTED_EDGE('',*,*,#606,.T.);
#916=ORIENTED_EDGE('',*,*,#667,.T.);
#917=ORIENTED_EDGE('',*,*,#668,.F.);
#918=ORIENTED_EDGE('',*,*,#669,.F.);
#919=ORIENTED_EDGE('',*,*,#603,.T.);
#920=ORIENTED_EDGE('',*,*,#669,.T.);
#921=ORIENTED_EDGE('',*,*,#670,.F.);
#922=ORIENTED_EDGE('',*,*,#663,.F.);
#923=ORIENTED_EDGE('',*,*,#670,.T.);
#924=ORIENTED_EDGE('',*,*,#668,.T.);
#925=ORIENTED_EDGE('',*,*,#666,.T.);
#926=ORIENTED_EDGE('',*,*,#664,.T.);
#927=ORIENTED_EDGE('',*,*,#543,.T.);
#928=ORIENTED_EDGE('',*,*,#545,.T.);
#929=ORIENTED_EDGE('',*,*,#533,.T.);
#930=ORIENTED_EDGE('',*,*,#530,.T.);
#931=ORIENTED_EDGE('',*,*,#662,.T.);
#932=ORIENTED_EDGE('',*,*,#660,.T.);
#933=ORIENTED_EDGE('',*,*,#658,.T.);
#934=ORIENTED_EDGE('',*,*,#656,.T.);
#935=ORIENTED_EDGE('',*,*,#654,.T.);
#936=ORIENTED_EDGE('',*,*,#652,.T.);
#937=ORIENTED_EDGE('',*,*,#650,.T.);
#938=ORIENTED_EDGE('',*,*,#648,.T.);
#939=ORIENTED_EDGE('',*,*,#646,.T.);
#940=ORIENTED_EDGE('',*,*,#644,.T.);
#941=ORIENTED_EDGE('',*,*,#642,.T.);
#942=ORIENTED_EDGE('',*,*,#640,.T.);
#943=ORIENTED_EDGE('',*,*,#638,.T.);
#944=ORIENTED_EDGE('',*,*,#636,.T.);
#945=ORIENTED_EDGE('',*,*,#634,.T.);
#946=ORIENTED_EDGE('',*,*,#632,.T.);
#947=ORIENTED_EDGE('',*,*,#630,.T.);
#948=ORIENTED_EDGE('',*,*,#628,.T.);
#949=ORIENTED_EDGE('',*,*,#626,.T.);
#950=ORIENTED_EDGE('',*,*,#624,.T.);
#951=ORIENTED_EDGE('',*,*,#622,.T.);
#952=ORIENTED_EDGE('',*,*,#620,.T.);
#953=ORIENTED_EDGE('',*,*,#618,.T.);
#954=ORIENTED_EDGE('',*,*,#616,.T.);
#955=ORIENTED_EDGE('',*,*,#614,.T.);
#956=ORIENTED_EDGE('',*,*,#612,.T.);
#957=ORIENTED_EDGE('',*,*,#610,.T.);
#958=ORIENTED_EDGE('',*,*,#608,.T.);
#959=PLANE('',#1067);
#960=PLANE('',#1068);
#961=PLANE('',#1069);
#962=PLANE('',#1070);
#963=PLANE('',#1071);
#964=PLANE('',#1072);
#965=PLANE('',#1073);
#966=PLANE('',#1074);
#967=PLANE('',#1075);
#968=PLANE('',#1076);
#969=PLANE('',#1077);
#970=PLANE('',#1078);
#971=PLANE('',#1079);
#972=PLANE('',#1080);
#973=PLANE('',#1081);
#974=PLANE('',#1082);
#975=PLANE('',#1083);
#976=PLANE('',#1084);
#977=PLANE('',#1085);
#978=PLANE('',#1086);
#979=PLANE('',#1087);
#980=PLANE('',#1088);
#981=PLANE('',#1089);
#982=PLANE('',#1090);
#983=PLANE('',#1091);
#984=PLANE('',#1092);
#985=PLANE('',#1093);
#986=PLANE('',#1094);
#987=PLANE('',#1095);
#988=PLANE('',#1096);
#989=PLANE('',#1097);
#990=PLANE('',#1098);
#991=PLANE('',#1099);
#992=PLANE('',#1100);
#993=PLANE('',#1101);
#994=PLANE('',#1102);
#995=PLANE('',#1103);
#996=PLANE('',#1104);
#997=PLANE('',#1105);
#998=PLANE('',#1106);
#999=PLANE('',#1107);
#1000=PLANE('',#1108);
#1001=PLANE('',#1109);
#1002=PLANE('',#1110);
#1003=PLANE('',#1111);
#1004=PLANE('',#1112);
#1005=PLANE('',#1113);
#1006=PLANE('',#1114);
#1007=PLANE('',#1115);
#1008=PLANE('',#1116);
#1009=PLANE('',#1117);
#1010=PLANE('',#1118);
#1011=PLANE('',#1119);
#1012=ADVANCED_FACE('',(#26),#959,.T.);
#1013=ADVANCED_FACE('',(#27),#960,.T.);
#1014=ADVANCED_FACE('',(#28),#961,.T.);
#1015=ADVANCED_FACE('',(#29),#962,.T.);
#1016=ADVANCED_FACE('',(#30),#963,.T.);
#1017=ADVANCED_FACE('',(#31),#964,.T.);
#1018=ADVANCED_FACE('',(#32),#965,.T.);
#1019=ADVANCED_FACE('',(#33),#966,.T.);
#1020=ADVANCED_FACE('',(#34,#15),#967,.T.);
#1021=ADVANCED_FACE('',(#35,#16,#17,#18,#19),#968,.F.);
#1022=ADVANCED_FACE('',(#36),#969,.T.);
#1023=ADVANCED_FACE('',(#37),#970,.T.);
#1024=ADVANCED_FACE('',(#38),#971,.T.);
#1025=ADVANCED_FACE('',(#39),#972,.T.);
#1026=ADVANCED_FACE('',(#40),#973,.T.);
#1027=ADVANCED_FACE('',(#41),#974,.T.);
#1028=ADVANCED_FACE('',(#42),#975,.T.);
#1029=ADVANCED_FACE('',(#43),#976,.T.);
#1030=ADVANCED_FACE('',(#44,#20),#977,.T.);
#1031=ADVANCED_FACE('',(#45,#21),#978,.F.);
#1032=ADVANCED_FACE('',(#46),#979,.T.);
#1033=ADVANCED_FACE('',(#47),#980,.T.);
#1034=ADVANCED_FACE('',(#48),#981,.T.);
#1035=ADVANCED_FACE('',(#49),#982,.T.);
#1036=ADVANCED_FACE('',(#50),#983,.T.);
#1037=ADVANCED_FACE('',(#51),#984,.T.);
#1038=ADVANCED_FACE('',(#52),#985,.T.);
#1039=ADVANCED_FACE('',(#53),#986,.T.);
#1040=ADVANCED_FACE('',(#54),#987,.T.);
#1041=ADVANCED_FACE('',(#55),#988,.T.);
#1042=ADVANCED_FACE('',(#56),#989,.T.);
#1043=ADVANCED_FACE('',(#57),#990,.T.);
#1044=ADVANCED_FACE('',(#58),#991,.T.);
#1045=ADVANCED_FACE('',(#59),#992,.T.);
#1046=ADVANCED_FACE('',(#60),#993,.T.);
#1047=ADVANCED_FACE('',(#61),#994,.T.);
#1048=ADVANCED_FACE('',(#62),#995,.T.);
#1049=ADVANCED_FACE('',(#63),#996,.T.);
#1050=ADVANCED_FACE('',(#64),#997,.T.);
#1051=ADVANCED_FACE('',(#65),#998,.T.);
#1052=ADVANCED_FACE('',(#66),#999,.T.);
#1053=ADVANCED_FACE('',(#67),#1000,.T.);
#1054=ADVANCED_FACE('',(#68),#1001,.T.);
#1055=ADVANCED_FACE('',(#69),#1002,.T.);
#1056=ADVANCED_FACE('',(#70),#1003,.T.);
#1057=ADVANCED_FACE('',(#71),#1004,.T.);
#1058=ADVANCED_FACE('',(#72),#1005,.T.);
#1059=ADVANCED_FACE('',(#73),#1006,.T.);
#1060=ADVANCED_FACE('',(#74),#1007,.T.);
#1061=ADVANCED_FACE('',(#75),#1008,.T.);
#1062=ADVANCED_FACE('',(#76),#1009,.T.);
#1063=ADVANCED_FACE('',(#77),#1010,.T.);
#1064=ADVANCED_FACE('',(#78,#22,#23,#24,#25),#1011,.T.);
#1065=CLOSED_SHELL('',(#1012,#1013,#1014,#1015,#1016,#1017,#1018,#1019,
#1020,#1021,#1022,#1023,#1024,#1025,#1026,#1027,#1028,#1029,#1030,#1031,
#1032,#1033,#1034,#1035,#1036,#1037,#1038,#1039,#1040,#1041,#1042,#1043,
#1044,#1045,#1046,#1047,#1048,#1049,#1050,#1051,#1052,#1053,#1054,#1055,
#1056,#1057,#1058,#1059,#1060,#1061,#1062,#1063,#1064));
#1066=AXIS2_PLACEMENT_3D('',#1372,#1120,#1121);
#1067=AXIS2_PLACEMENT_3D('',#1373,#1122,#1123);
#1068=AXIS2_PLACEMENT_3D('',#1382,#1128,#1129);
#1069=AXIS2_PLACEMENT_3D('',#1388,#1133,#1134);
#1070=AXIS2_PLACEMENT_3D('',#1397,#1139,#1140);
#1071=AXIS2_PLACEMENT_3D('',#1403,#1144,#1145);
#1072=AXIS2_PLACEMENT_3D('',#1409,#1149,#1150);
#1073=AXIS2_PLACEMENT_3D('',#1412,#1153,#1154);
#1074=AXIS2_PLACEMENT_3D('',#1418,#1158,#1159);
#1075=AXIS2_PLACEMENT_3D('',#1421,#1162,#1163);
#1076=AXIS2_PLACEMENT_3D('',#1422,#1164,#1165);
#1077=AXIS2_PLACEMENT_3D('',#1487,#1198,#1199);
#1078=AXIS2_PLACEMENT_3D('',#1493,#1203,#1204);
#1079=AXIS2_PLACEMENT_3D('',#1497,#1207,#1208);
#1080=AXIS2_PLACEMENT_3D('',#1501,#1211,#1212);
#1081=AXIS2_PLACEMENT_3D('',#1503,#1214,#1215);
#1082=AXIS2_PLACEMENT_3D('',#1512,#1220,#1221);
#1083=AXIS2_PLACEMENT_3D('',#1518,#1225,#1226);
#1084=AXIS2_PLACEMENT_3D('',#1524,#1230,#1231);
#1085=AXIS2_PLACEMENT_3D('',#1527,#1234,#1235);
#1086=AXIS2_PLACEMENT_3D('',#1528,#1236,#1237);
#1087=AXIS2_PLACEMENT_3D('',#1537,#1242,#1243);
#1088=AXIS2_PLACEMENT_3D('',#1543,#1247,#1248);
#1089=AXIS2_PLACEMENT_3D('',#1547,#1251,#1252);
#1090=AXIS2_PLACEMENT_3D('',#1551,#1255,#1256);
#1091=AXIS2_PLACEMENT_3D('',#1555,#1259,#1260);
#1092=AXIS2_PLACEMENT_3D('',#1559,#1263,#1264);
#1093=AXIS2_PLACEMENT_3D('',#1563,#1267,#1268);
#1094=AXIS2_PLACEMENT_3D('',#1567,#1271,#1272);
#1095=AXIS2_PLACEMENT_3D('',#1571,#1275,#1276);
#1096=AXIS2_PLACEMENT_3D('',#1575,#1279,#1280);
#1097=AXIS2_PLACEMENT_3D('',#1579,#1283,#1284);
#1098=AXIS2_PLACEMENT_3D('',#1583,#1287,#1288);
#1099=AXIS2_PLACEMENT_3D('',#1587,#1291,#1292);
#1100=AXIS2_PLACEMENT_3D('',#1591,#1295,#1296);
#1101=AXIS2_PLACEMENT_3D('',#1595,#1299,#1300);
#1102=AXIS2_PLACEMENT_3D('',#1599,#1303,#1304);
#1103=AXIS2_PLACEMENT_3D('',#1601,#1306,#1307);
#1104=AXIS2_PLACEMENT_3D('',#1607,#1311,#1312);
#1105=AXIS2_PLACEMENT_3D('',#1611,#1315,#1316);
#1106=AXIS2_PLACEMENT_3D('',#1615,#1319,#1320);
#1107=AXIS2_PLACEMENT_3D('',#1619,#1323,#1324);
#1108=AXIS2_PLACEMENT_3D('',#1623,#1327,#1328);
#1109=AXIS2_PLACEMENT_3D('',#1627,#1331,#1332);
#1110=AXIS2_PLACEMENT_3D('',#1631,#1335,#1336);
#1111=AXIS2_PLACEMENT_3D('',#1633,#1338,#1339);
#1112=AXIS2_PLACEMENT_3D('',#1639,#1343,#1344);
#1113=AXIS2_PLACEMENT_3D('',#1643,#1347,#1348);
#1114=AXIS2_PLACEMENT_3D('',#1647,#1351,#1352);
#1115=AXIS2_PLACEMENT_3D('',#1649,#1354,#1355);
#1116=AXIS2_PLACEMENT_3D('',#1655,#1359,#1360);
#1117=AXIS2_PLACEMENT_3D('',#1659,#1363,#1364);
#1118=AXIS2_PLACEMENT_3D('',#1663,#1367,#1368);
#1119=AXIS2_PLACEMENT_3D('',#1665,#1370,#1371);
#1120=DIRECTION('axis',(0.,0.,1.));
#1121=DIRECTION('refdir',(1.,0.,0.));
#1122=DIRECTION('center_axis',(0.,1.,0.));
#1123=DIRECTION('ref_axis',(1.,0.,0.));
#1124=DIRECTION('',(0.,0.,-1.));
#1125=DIRECTION('',(1.,0.,0.));
#1126=DIRECTION('',(0.,0.,-1.));
#1127=DIRECTION('',(-1.,0.,0.));
#1128=DIRECTION('center_axis',(-1.,0.,0.));
#1129=DIRECTION('ref_axis',(0.,1.,0.));
#1130=DIRECTION('',(0.,0.,-1.));
#1131=DIRECTION('',(0.,1.,0.));
#1132=DIRECTION('',(0.,-1.,0.));
#1133=DIRECTION('center_axis',(0.,-1.,0.));
#1134=DIRECTION('ref_axis',(-1.,0.,0.));
#1135=DIRECTION('',(1.,0.,0.));
#1136=DIRECTION('',(0.,0.,-1.));
#1137=DIRECTION('',(-1.,0.,0.));
#1138=DIRECTION('',(0.,0.,-1.));
#1139=DIRECTION('center_axis',(-1.,0.,0.));
#1140=DIRECTION('ref_axis',(0.,1.,0.));
#1141=DIRECTION('',(0.,-1.,0.));
#1142=DIRECTION('',(0.,0.,-1.));
#1143=DIRECTION('',(0.,1.,0.));
#1144=DIRECTION('center_axis',(1.,0.,0.));
#1145=DIRECTION('ref_axis',(0.,-1.,0.));
#1146=DIRECTION('',(0.,-1.,0.));
#1147=DIRECTION('',(0.,0.,-1.));
#1148=DIRECTION('',(0.,1.,0.));
#1149=DIRECTION('center_axis',(0.,-1.,0.));
#1150=DIRECTION('ref_axis',(-1.,0.,0.));
#1151=DIRECTION('',(-1.,0.,0.));
#1152=DIRECTION('',(1.,0.,0.));
#1153=DIRECTION('center_axis',(1.,0.,0.));
#1154=DIRECTION('ref_axis',(0.,-1.,0.));
#1155=DIRECTION('',(0.,1.,0.));
#1156=DIRECTION('',(0.,-1.,0.));
#1157=DIRECTION('',(0.,0.,-1.));
#1158=DIRECTION('center_axis',(0.,1.,0.));
#1159=DIRECTION('ref_axis',(1.,0.,0.));
#1160=DIRECTION('',(-1.,0.,0.));
#1161=DIRECTION('',(1.,0.,0.));
#1162=DIRECTION('center_axis',(0.,0.,-1.));
#1163=DIRECTION('ref_axis',(-1.,0.,0.));
#1164=DIRECTION('center_axis',(0.,0.,1.));
#1165=DIRECTION('ref_axis',(-1.,0.,0.));
#1166=DIRECTION('',(0.,-1.,0.));
#1167=DIRECTION('',(-1.,0.,0.));
#1168=DIRECTION('',(0.,1.,0.));
#1169=DIRECTION('',(1.,1.16010767993718E-17,0.));
#1170=DIRECTION('',(0.,1.,0.));
#1171=DIRECTION('',(1.,0.,0.));
#1172=DIRECTION('',(0.,-1.,0.));
#1173=DIRECTION('',(1.,0.,0.));
#1174=DIRECTION('',(0.,1.,0.));
#1175=DIRECTION('',(1.,0.,0.));
#1176=DIRECTION('',(0.,-1.,0.));
#1177=DIRECTION('',(1.,0.,0.));
#1178=DIRECTION('',(0.,1.,0.));
#1179=DIRECTION('',(1.,0.,0.));
#1180=DIRECTION('',(0.,-1.,0.));
#1181=DIRECTION('',(1.,0.,0.));
#1182=DIRECTION('',(0.,1.,0.));
#1183=DIRECTION('',(-1.,0.,0.));
#1184=DIRECTION('',(0.,-1.,0.));
#1185=DIRECTION('',(1.,0.,0.));
#1186=DIRECTION('',(0.,-1.,0.));
#1187=DIRECTION('',(1.,0.,0.));
#1188=DIRECTION('',(0.,1.,0.));
#1189=DIRECTION('',(1.,0.,0.));
#1190=DIRECTION('',(0.,1.,0.));
#1191=DIRECTION('',(-1.,0.,0.));
#1192=DIRECTION('',(0.,-1.,0.));
#1193=DIRECTION('',(1.,0.,0.));
#1194=DIRECTION('',(0.,-1.,0.));
#1195=DIRECTION('',(1.,0.,0.));
#1196=DIRECTION('',(0.,1.,0.));
#1197=DIRECTION('',(-1.,0.,0.));
#1198=DIRECTION('center_axis',(-1.,0.,0.));
#1199=DIRECTION('ref_axis',(0.,1.,0.));
#1200=DIRECTION('',(0.,0.,-1.));
#1201=DIRECTION('',(0.,1.,0.));
#1202=DIRECTION('',(0.,0.,-1.));
#1203=DIRECTION('center_axis',(0.,1.,0.));
#1204=DIRECTION('ref_axis',(1.,0.,0.));
#1205=DIRECTION('',(1.,0.,0.));
#1206=DIRECTION('',(0.,0.,-1.));
#1207=DIRECTION('center_axis',(1.,0.,0.));
#1208=DIRECTION('ref_axis',(0.,-1.,0.));
#1209=DIRECTION('',(0.,-1.,0.));
#1210=DIRECTION('',(0.,0.,-1.));
#1211=DIRECTION('center_axis',(1.16010767993718E-17,-1.,0.));
#1212=DIRECTION('ref_axis',(-1.,-1.16010767993718E-17,0.));
#1213=DIRECTION('',(-1.,-1.16010767993718E-17,0.));
#1214=DIRECTION('center_axis',(1.,0.,0.));
#1215=DIRECTION('ref_axis',(0.,-1.,0.));
#1216=DIRECTION('',(0.,1.,0.));
#1217=DIRECTION('',(0.,0.,-1.));
#1218=DIRECTION('',(0.,-1.,0.));
#1219=DIRECTION('',(0.,0.,-1.));
#1220=DIRECTION('center_axis',(0.,1.,0.));
#1221=DIRECTION('ref_axis',(1.,0.,0.));
#1222=DIRECTION('',(-1.,0.,0.));
#1223=DIRECTION('',(1.,0.,0.));
#1224=DIRECTION('',(0.,0.,-1.));
#1225=DIRECTION('center_axis',(-1.,0.,0.));
#1226=DIRECTION('ref_axis',(0.,1.,0.));
#1227=DIRECTION('',(0.,-1.,0.));
#1228=DIRECTION('',(0.,1.,0.));
#1229=DIRECTION('',(0.,0.,-1.));
#1230=DIRECTION('center_axis',(0.,-1.,0.));
#1231=DIRECTION('ref_axis',(-1.,0.,0.));
#1232=DIRECTION('',(1.,0.,0.));
#1233=DIRECTION('',(-1.,0.,0.));
#1234=DIRECTION('center_axis',(0.,0.,-1.));
#1235=DIRECTION('ref_axis',(-1.,0.,0.));
#1236=DIRECTION('center_axis',(0.,0.,1.));
#1237=DIRECTION('ref_axis',(-1.,0.,0.));
#1238=DIRECTION('',(-1.,0.,0.));
#1239=DIRECTION('',(0.,1.,0.));
#1240=DIRECTION('',(1.,0.,0.));
#1241=DIRECTION('',(0.,-1.,0.));
#1242=DIRECTION('center_axis',(0.,-1.,0.));
#1243=DIRECTION('ref_axis',(1.,0.,0.));
#1244=DIRECTION('',(0.,0.,1.));
#1245=DIRECTION('',(1.,0.,0.));
#1246=DIRECTION('',(0.,0.,1.));
#1247=DIRECTION('center_axis',(-1.,0.,0.));
#1248=DIRECTION('ref_axis',(0.,-1.,0.));
#1249=DIRECTION('',(0.,-1.,0.));
#1250=DIRECTION('',(0.,0.,1.));
#1251=DIRECTION('center_axis',(0.,-1.,0.));
#1252=DIRECTION('ref_axis',(1.,0.,0.));
#1253=DIRECTION('',(1.,0.,0.));
#1254=DIRECTION('',(0.,0.,1.));
#1255=DIRECTION('center_axis',(1.,0.,0.));
#1256=DIRECTION('ref_axis',(0.,1.,0.));
#1257=DIRECTION('',(0.,1.,0.));
#1258=DIRECTION('',(0.,0.,1.));
#1259=DIRECTION('center_axis',(0.,-1.,0.));
#1260=DIRECTION('ref_axis',(1.,0.,0.));
#1261=DIRECTION('',(1.,0.,0.));
#1262=DIRECTION('',(0.,0.,1.));
#1263=DIRECTION('center_axis',(-1.,0.,0.));
#1264=DIRECTION('ref_axis',(0.,-1.,0.));
#1265=DIRECTION('',(0.,-1.,0.));
#1266=DIRECTION('',(0.,0.,1.));
#1267=DIRECTION('center_axis',(0.,-1.,0.));
#1268=DIRECTION('ref_axis',(1.,0.,0.));
#1269=DIRECTION('',(1.,0.,0.));
#1270=DIRECTION('',(0.,0.,1.));
#1271=DIRECTION('center_axis',(1.,0.,0.));
#1272=DIRECTION('ref_axis',(0.,1.,0.));
#1273=DIRECTION('',(0.,1.,0.));
#1274=DIRECTION('',(0.,0.,1.));
#1275=DIRECTION('center_axis',(0.,-1.,0.));
#1276=DIRECTION('ref_axis',(1.,0.,0.));
#1277=DIRECTION('',(1.,0.,0.));
#1278=DIRECTION('',(0.,0.,1.));
#1279=DIRECTION('center_axis',(-1.,0.,0.));
#1280=DIRECTION('ref_axis',(0.,-1.,0.));
#1281=DIRECTION('',(0.,-1.,0.));
#1282=DIRECTION('',(0.,0.,1.));
#1283=DIRECTION('center_axis',(0.,-1.,0.));
#1284=DIRECTION('ref_axis',(1.,0.,0.));
#1285=DIRECTION('',(1.,0.,0.));
#1286=DIRECTION('',(0.,0.,1.));
#1287=DIRECTION('center_axis',(1.,0.,0.));
#1288=DIRECTION('ref_axis',(0.,1.,0.));
#1289=DIRECTION('',(0.,1.,0.));
#1290=DIRECTION('',(0.,0.,1.));
#1291=DIRECTION('center_axis',(0.,1.,0.));
#1292=DIRECTION('ref_axis',(-1.,0.,0.));
#1293=DIRECTION('',(-1.,0.,0.));
#1294=DIRECTION('',(0.,0.,1.));
#1295=DIRECTION('center_axis',(-1.,0.,0.));
#1296=DIRECTION('ref_axis',(0.,-1.,0.));
#1297=DIRECTION('',(0.,-1.,0.));
#1298=DIRECTION('',(0.,0.,1.));
#1299=DIRECTION('center_axis',(0.,-1.,0.));
#1300=DIRECTION('ref_axis',(1.,0.,0.));
#1301=DIRECTION('',(1.,0.,0.));
#1302=DIRECTION('',(0.,0.,1.));
#1303=DIRECTION('center_axis',(1.,0.,0.));
#1304=DIRECTION('ref_axis',(0.,1.,0.));
#1305=DIRECTION('',(0.,1.,0.));
#1306=DIRECTION('center_axis',(0.,-1.,0.));
#1307=DIRECTION('ref_axis',(1.,0.,0.));
#1308=DIRECTION('',(0.,0.,1.));
#1309=DIRECTION('',(1.,0.,0.));
#1310=DIRECTION('',(0.,0.,1.));
#1311=DIRECTION('center_axis',(1.,0.,0.));
#1312=DIRECTION('ref_axis',(0.,1.,0.));
#1313=DIRECTION('',(0.,1.,0.));
#1314=DIRECTION('',(0.,0.,1.));
#1315=DIRECTION('center_axis',(0.,-1.,0.));
#1316=DIRECTION('ref_axis',(1.,0.,0.));
#1317=DIRECTION('',(1.,0.,0.));
#1318=DIRECTION('',(0.,0.,1.));
#1319=DIRECTION('center_axis',(1.,0.,0.));
#1320=DIRECTION('ref_axis',(0.,1.,0.));
#1321=DIRECTION('',(0.,1.,0.));
#1322=DIRECTION('',(0.,0.,1.));
#1323=DIRECTION('center_axis',(0.,1.,0.));
#1324=DIRECTION('ref_axis',(-1.,0.,0.));
#1325=DIRECTION('',(-1.,0.,0.));
#1326=DIRECTION('',(0.,0.,1.));
#1327=DIRECTION('center_axis',(-1.,0.,0.));
#1328=DIRECTION('ref_axis',(0.,-1.,0.));
#1329=DIRECTION('',(0.,-1.,0.));
#1330=DIRECTION('',(0.,0.,1.));
#1331=DIRECTION('center_axis',(0.,-1.,0.));
#1332=DIRECTION('ref_axis',(1.,0.,0.));
#1333=DIRECTION('',(1.,0.,0.));
#1334=DIRECTION('',(0.,0.,1.));
#1335=DIRECTION('center_axis',(-1.,0.,0.));
#1336=DIRECTION('ref_axis',(0.,-1.,0.));
#1337=DIRECTION('',(0.,-1.,0.));
#1338=DIRECTION('center_axis',(0.,-1.,0.));
#1339=DIRECTION('ref_axis',(1.,0.,0.));
#1340=DIRECTION('',(0.,0.,1.));
#1341=DIRECTION('',(1.,0.,0.));
#1342=DIRECTION('',(0.,0.,1.));
#1343=DIRECTION('center_axis',(1.,0.,0.));
#1344=DIRECTION('ref_axis',(0.,1.,0.));
#1345=DIRECTION('',(0.,1.,0.));
#1346=DIRECTION('',(0.,0.,1.));
#1347=DIRECTION('center_axis',(0.,1.,0.));
#1348=DIRECTION('ref_axis',(-1.,0.,0.));
#1349=DIRECTION('',(-1.,0.,0.));
#1350=DIRECTION('',(0.,0.,1.));
#1351=DIRECTION('center_axis',(-1.,0.,0.));
#1352=DIRECTION('ref_axis',(0.,-1.,0.));
#1353=DIRECTION('',(0.,-1.,0.));
#1354=DIRECTION('center_axis',(1.,0.,0.));
#1355=DIRECTION('ref_axis',(0.,1.,0.));
#1356=DIRECTION('',(0.,0.,1.));
#1357=DIRECTION('',(0.,1.,0.));
#1358=DIRECTION('',(0.,0.,1.));
#1359=DIRECTION('center_axis',(0.,-1.,0.));
#1360=DIRECTION('ref_axis',(1.,0.,0.));
#1361=DIRECTION('',(1.,0.,0.));
#1362=DIRECTION('',(0.,0.,1.));
#1363=DIRECTION('center_axis',(-1.,0.,0.));
#1364=DIRECTION('ref_axis',(0.,-1.,0.));
#1365=DIRECTION('',(0.,-1.,0.));
#1366=DIRECTION('',(0.,0.,1.));
#1367=DIRECTION('center_axis',(0.,1.,0.));
#1368=DIRECTION('ref_axis',(-1.,0.,0.));
#1369=DIRECTION('',(-1.,0.,0.));
#1370=DIRECTION('center_axis',(0.,0.,1.));
#1371=DIRECTION('ref_axis',(1.,0.,0.));
#1372=CARTESIAN_POINT('',(0.,0.,0.));
#1373=CARTESIAN_POINT('Origin',(291.018302501832,-34.3149517164744,13.865));
#1374=CARTESIAN_POINT('',(321.980394223649,-34.3149517164744,13.865));
#1375=CARTESIAN_POINT('',(321.980394223649,-34.3149517164744,6.86499999999999));
#1376=CARTESIAN_POINT('',(321.980394223649,-34.3149517164744,13.865));
#1377=CARTESIAN_POINT('',(291.018302501832,-34.3149517164744,6.86499999999999));
#1378=CARTESIAN_POINT('',(321.980394223649,-34.3149517164744,6.86499999999999));
#1379=CARTESIAN_POINT('',(291.018302501832,-34.3149517164744,13.865));
#1380=CARTESIAN_POINT('',(291.018302501832,-34.3149517164744,13.865));
#1381=CARTESIAN_POINT('',(247.540197111825,-34.3149517164744,13.865));
#1382=CARTESIAN_POINT('Origin',(321.980394223649,-34.3149517164744,13.865));
#1383=CARTESIAN_POINT('',(321.980394223649,-21.8671480554105,13.865));
#1384=CARTESIAN_POINT('',(321.980394223649,-21.8671480554105,6.86499999999999));
#1385=CARTESIAN_POINT('',(321.980394223649,-21.8671480554105,13.865));
#1386=CARTESIAN_POINT('',(321.980394223649,-21.8671480554105,6.86499999999999));
#1387=CARTESIAN_POINT('',(321.980394223649,-54.2835740724087,13.865));
#1388=CARTESIAN_POINT('Origin',(322.980394223649,-35.3149517164744,13.865));
#1389=CARTESIAN_POINT('',(290.018302501832,-35.3149517164744,12.865));
#1390=CARTESIAN_POINT('',(322.980394223649,-35.3149517164744,12.865));
#1391=CARTESIAN_POINT('',(248.040197111825,-35.3149517164744,12.865));
#1392=CARTESIAN_POINT('',(290.018302501832,-35.3149517164744,6.86499999999999));
#1393=CARTESIAN_POINT('',(290.018302501832,-35.3149517164744,13.865));
#1394=CARTESIAN_POINT('',(322.980394223649,-35.3149517164744,6.86499999999999));
#1395=CARTESIAN_POINT('',(322.980394223649,-35.3149517164744,6.86499999999999));
#1396=CARTESIAN_POINT('',(322.980394223649,-35.3149517164744,13.865));
#1397=CARTESIAN_POINT('Origin',(290.018302501832,-35.3149517164744,13.865));
#1398=CARTESIAN_POINT('',(290.018302501832,-20.8671480554105,12.865));
#1399=CARTESIAN_POINT('',(290.018302501832,-61.0074759029407,12.865));
#1400=CARTESIAN_POINT('',(290.018302501832,-20.8671480554105,6.86499999999999));
#1401=CARTESIAN_POINT('',(290.018302501832,-20.8671480554105,13.865));
#1402=CARTESIAN_POINT('',(290.018302501832,-35.3149517164744,6.86499999999999));
#1403=CARTESIAN_POINT('Origin',(291.018302501832,-21.8671480554105,13.865));
#1404=CARTESIAN_POINT('',(291.018302501832,-21.8671480554105,6.86499999999999));
#1405=CARTESIAN_POINT('',(291.018302501832,-34.3149517164744,6.86499999999999));
#1406=CARTESIAN_POINT('',(291.018302501832,-21.8671480554105,13.865));
#1407=CARTESIAN_POINT('',(291.018302501832,-21.8671480554105,13.865));
#1408=CARTESIAN_POINT('',(291.018302501832,-60.5074759029407,13.865));
#1409=CARTESIAN_POINT('Origin',(321.980394223649,-21.8671480554105,13.865));
#1410=CARTESIAN_POINT('',(291.018302501832,-21.8671480554105,6.86499999999999));
#1411=CARTESIAN_POINT('',(232.059151250916,-21.8671480554105,13.865));
#1412=CARTESIAN_POINT('Origin',(322.980394223649,-20.8671480554105,13.865));
#1413=CARTESIAN_POINT('',(322.980394223649,-20.8671480554105,12.865));
#1414=CARTESIAN_POINT('',(322.980394223649,-53.7835740724087,12.865));
#1415=CARTESIAN_POINT('',(322.980394223649,-20.8671480554105,6.86499999999999));
#1416=CARTESIAN_POINT('',(322.980394223649,-20.8671480554105,6.86499999999999));
#1417=CARTESIAN_POINT('',(322.980394223649,-20.8671480554105,13.865));
#1418=CARTESIAN_POINT('Origin',(290.018302501832,-20.8671480554105,13.865));
#1419=CARTESIAN_POINT('',(231.559151250916,-20.8671480554105,12.865));
#1420=CARTESIAN_POINT('',(290.018302501832,-20.8671480554105,6.86499999999999));
#1421=CARTESIAN_POINT('Origin',(306.49934836274,-28.0910498859424,6.86499999999999));
#1422=CARTESIAN_POINT('Origin',(173.1,-86.700000089407,12.865));
#1423=CARTESIAN_POINT('',(364.499991808087,-16.4999996758997,12.865));
#1424=CARTESIAN_POINT('',(364.499991808087,-156.899996448308,12.865));
#1425=CARTESIAN_POINT('',(364.499991808087,-121.799998268858,12.865));
#1426=CARTESIAN_POINT('',(-18.2999995462596,-156.899996448308,12.865));
#1427=CARTESIAN_POINT('',(77.4000002268702,-156.899996448308,12.865));
#1428=CARTESIAN_POINT('',(-18.2999995462596,-16.4999996758997,12.865));
#1429=CARTESIAN_POINT('',(-18.2999995462596,-51.5999998826533,12.865));
#1430=CARTESIAN_POINT('',(268.799995904043,-16.4999996758997,12.865));
#1431=CARTESIAN_POINT('',(195.,-55.,12.865));
#1432=CARTESIAN_POINT('',(195.,-37.7690368050317,12.865));
#1433=CARTESIAN_POINT('',(195.,-37.7690368050317,12.865));
#1434=CARTESIAN_POINT('',(184.595930801842,-55.,12.865));
#1435=CARTESIAN_POINT('',(195.,-55.,12.865));
#1436=CARTESIAN_POINT('',(184.595930801842,-37.7690368050317,12.865));
#1437=CARTESIAN_POINT('',(184.595930801842,-55.,12.865));
#1438=CARTESIAN_POINT('',(109.753228296606,-37.7690368050317,12.865));
#1439=CARTESIAN_POINT('',(-14.9050900922869,-37.7690368050317,12.865));
#1440=CARTESIAN_POINT('',(109.753228296606,-56.2661776168273,12.865));
#1441=CARTESIAN_POINT('',(109.753228296606,-37.7690368050317,12.865));
#1442=CARTESIAN_POINT('',(98.8738379574988,-56.2661776168273,12.865));
#1443=CARTESIAN_POINT('',(109.753228296606,-56.2661776168273,12.865));
#1444=CARTESIAN_POINT('',(98.8738379574988,-37.7690368050317,12.865));
#1445=CARTESIAN_POINT('',(98.8738379574988,-56.2661776168273,12.865));
#1446=CARTESIAN_POINT('',(24.117761521829,-37.7690368050317,12.865));
#1447=CARTESIAN_POINT('',(-14.9050900922869,-37.7690368050317,12.865));
#1448=CARTESIAN_POINT('',(24.117761521829,-57.0601068821891,12.865));
#1449=CARTESIAN_POINT('',(24.117761521829,-37.7690368050317,12.865));
#1450=CARTESIAN_POINT('',(5.81973170542465,-57.0601068821891,12.865));
#1451=CARTESIAN_POINT('',(24.117761521829,-57.0601068821891,12.865));
#1452=CARTESIAN_POINT('',(5.81973170542465,-37.7690368050317,12.865));
#1453=CARTESIAN_POINT('',(5.81973170542465,-57.0601068821891,12.865));
#1454=CARTESIAN_POINT('',(-14.9050900922869,-37.7690368050317,12.865));
#1455=CARTESIAN_POINT('',(-14.9050900922869,-37.7690368050317,12.865));
#1456=CARTESIAN_POINT('',(-14.9050900922869,-154.966126522757,12.865));
#1457=CARTESIAN_POINT('',(-14.9050900922869,-154.966126522757,12.865));
#1458=CARTESIAN_POINT('',(270.548457454495,-154.966126522757,12.865));
#1459=CARTESIAN_POINT('',(332.323017582191,-154.966126522757,12.865));
#1460=CARTESIAN_POINT('',(270.548457454495,-37.7690368050317,12.865));
#1461=CARTESIAN_POINT('',(270.548457454495,-37.7690368050317,12.865));
#1462=CARTESIAN_POINT('',(-14.9050900922869,-37.7690368050317,12.865));
#1463=CARTESIAN_POINT('',(313.405865196691,-114.132381310046,12.865));
#1464=CARTESIAN_POINT('',(313.405865196691,-133.000349090237,12.865));
#1465=CARTESIAN_POINT('',(313.405865196691,-114.132381310046,12.865));
#1466=CARTESIAN_POINT('',(295.,-114.132381310046,12.865));
#1467=CARTESIAN_POINT('',(295.,-114.132381310046,12.865));
#1468=CARTESIAN_POINT('',(295.,-133.000349090237,12.865));
#1469=CARTESIAN_POINT('',(295.,-133.000349090237,12.865));
#1470=CARTESIAN_POINT('',(276.070256988767,-133.000349090237,12.865));
#1471=CARTESIAN_POINT('',(276.070256988767,-133.000349090237,12.865));
#1472=CARTESIAN_POINT('',(276.070256988767,-154.966126522757,12.865));
#1473=CARTESIAN_POINT('',(276.070256988767,-154.966126522757,12.865));
#1474=CARTESIAN_POINT('',(332.323017582191,-154.966126522757,12.865));
#1475=CARTESIAN_POINT('',(332.323017582191,-154.966126522757,12.865));
#1476=CARTESIAN_POINT('',(332.323017582191,-133.000349090237,12.865));
#1477=CARTESIAN_POINT('',(332.323017582191,-37.7690368050317,12.865));
#1478=CARTESIAN_POINT('',(313.405865196691,-133.000349090237,12.865));
#1479=CARTESIAN_POINT('',(332.323017582191,-37.7690368050317,12.865));
#1480=CARTESIAN_POINT('',(332.323017582191,-94.374415049658,12.865));
#1481=CARTESIAN_POINT('',(332.323017582191,-37.7690368050317,12.865));
#1482=CARTESIAN_POINT('',(276.070256988767,-37.7690368050317,12.865));
#1483=CARTESIAN_POINT('',(-14.9050900922869,-37.7690368050317,12.865));
#1484=CARTESIAN_POINT('',(276.070256988767,-94.374415049658,12.865));
#1485=CARTESIAN_POINT('',(276.070256988767,-154.966126522757,12.865));
#1486=CARTESIAN_POINT('',(332.323017582191,-94.374415049658,12.865));
#1487=CARTESIAN_POINT('Origin',(364.499991808087,-156.899996448308,12.865));
#1488=CARTESIAN_POINT('',(364.499991808087,-16.4999996758997,11.865));
#1489=CARTESIAN_POINT('',(364.499991808087,-16.4999996758997,12.865));
#1490=CARTESIAN_POINT('',(364.499991808087,-156.899996448308,11.865));
#1491=CARTESIAN_POINT('',(364.499991808087,-156.899996448308,11.865));
#1492=CARTESIAN_POINT('',(364.499991808087,-156.899996448308,12.865));
#1493=CARTESIAN_POINT('Origin',(-18.2999995462596,-156.899996448308,12.865));
#1494=CARTESIAN_POINT('',(-18.2999995462596,-156.899996448308,11.865));
#1495=CARTESIAN_POINT('',(-18.2999995462596,-156.899996448308,11.865));
#1496=CARTESIAN_POINT('',(-18.2999995462596,-156.899996448308,12.865));
#1497=CARTESIAN_POINT('Origin',(-18.2999995462596,-16.4999996758997,12.865));
#1498=CARTESIAN_POINT('',(-18.2999995462596,-16.4999996758997,11.865));
#1499=CARTESIAN_POINT('',(-18.2999995462596,-16.4999996758997,11.865));
#1500=CARTESIAN_POINT('',(-18.2999995462596,-16.4999996758997,12.865));
#1501=CARTESIAN_POINT('Origin',(364.499991808087,-16.4999996758997,12.865));
#1502=CARTESIAN_POINT('',(364.499991808087,-16.4999996758997,11.865));
#1503=CARTESIAN_POINT('Origin',(366.499991808087,-14.4999996758997,12.865));
#1504=CARTESIAN_POINT('',(366.499991808087,-158.899996448308,12.865));
#1505=CARTESIAN_POINT('',(366.499991808087,-14.4999996758997,12.865));
#1506=CARTESIAN_POINT('',(366.499991808087,-50.5999998826534,12.865));
#1507=CARTESIAN_POINT('',(366.499991808087,-158.899996448308,11.865));
#1508=CARTESIAN_POINT('',(366.499991808087,-158.899996448308,12.865));
#1509=CARTESIAN_POINT('',(366.499991808087,-14.4999996758997,11.865));
#1510=CARTESIAN_POINT('',(366.499991808087,-158.899996448308,11.865));
#1511=CARTESIAN_POINT('',(366.499991808087,-14.4999996758997,12.865));
#1512=CARTESIAN_POINT('Origin',(-20.2999995462596,-14.4999996758997,12.865));
#1513=CARTESIAN_POINT('',(-20.2999995462596,-14.4999996758997,12.865));
#1514=CARTESIAN_POINT('',(76.4000002268702,-14.4999996758997,12.865));
#1515=CARTESIAN_POINT('',(-20.2999995462596,-14.4999996758997,11.865));
#1516=CARTESIAN_POINT('',(366.499991808087,-14.4999996758997,11.865));
#1517=CARTESIAN_POINT('',(-20.2999995462596,-14.4999996758997,12.865));
#1518=CARTESIAN_POINT('Origin',(-20.2999995462596,-158.899996448308,12.865));
#1519=CARTESIAN_POINT('',(-20.2999995462596,-158.899996448308,12.865));
#1520=CARTESIAN_POINT('',(-20.2999995462596,-122.799998268858,12.865));
#1521=CARTESIAN_POINT('',(-20.2999995462596,-158.899996448308,11.865));
#1522=CARTESIAN_POINT('',(-20.2999995462596,-14.4999996758997,11.865));
#1523=CARTESIAN_POINT('',(-20.2999995462596,-158.899996448308,12.865));
#1524=CARTESIAN_POINT('Origin',(366.499991808087,-158.899996448308,12.865));
#1525=CARTESIAN_POINT('',(269.799995904043,-158.899996448308,12.865));
#1526=CARTESIAN_POINT('',(-20.2999995462596,-158.899996448308,11.865));
#1527=CARTESIAN_POINT('Origin',(173.099996130913,-86.699998062104,11.865));
#1528=CARTESIAN_POINT('Origin',(173.1,-86.700000089407,12.865));
#1529=CARTESIAN_POINT('',(369.,-12.0000001788139,12.865));
#1530=CARTESIAN_POINT('',(-22.8,-12.0000001788139,12.865));
#1531=CARTESIAN_POINT('',(369.,-12.0000001788139,12.865));
#1532=CARTESIAN_POINT('',(369.,-161.4,12.865));
#1533=CARTESIAN_POINT('',(369.,-161.4,12.865));
#1534=CARTESIAN_POINT('',(-22.8,-161.4,12.865));
#1535=CARTESIAN_POINT('',(-22.8,-161.4,12.865));
#1536=CARTESIAN_POINT('',(-22.8,-12.0000001788139,12.865));
#1537=CARTESIAN_POINT('Origin',(184.595930801842,-55.,12.865));
#1538=CARTESIAN_POINT('',(195.,-55.,13.865));
#1539=CARTESIAN_POINT('',(195.,-55.,12.865));
#1540=CARTESIAN_POINT('',(184.595930801842,-55.,13.865));
#1541=CARTESIAN_POINT('',(195.,-55.,13.865));
#1542=CARTESIAN_POINT('',(184.595930801842,-55.,12.865));
#1543=CARTESIAN_POINT('Origin',(184.595930801842,-37.7690368050317,12.865));
#1544=CARTESIAN_POINT('',(184.595930801842,-37.7690368050317,13.865));
#1545=CARTESIAN_POINT('',(184.595930801842,-55.,13.865));
#1546=CARTESIAN_POINT('',(184.595930801842,-37.7690368050317,12.865));
#1547=CARTESIAN_POINT('Origin',(109.753228296606,-37.7690368050317,12.865));
#1548=CARTESIAN_POINT('',(109.753228296606,-37.7690368050317,13.865));
#1549=CARTESIAN_POINT('',(-14.9050900922869,-37.7690368050317,13.865));
#1550=CARTESIAN_POINT('',(109.753228296606,-37.7690368050317,12.865));
#1551=CARTESIAN_POINT('Origin',(109.753228296606,-56.2661776168273,12.865));
#1552=CARTESIAN_POINT('',(109.753228296606,-56.2661776168273,13.865));
#1553=CARTESIAN_POINT('',(109.753228296606,-37.7690368050317,13.865));
#1554=CARTESIAN_POINT('',(109.753228296606,-56.2661776168273,12.865));
#1555=CARTESIAN_POINT('Origin',(98.8738379574988,-56.2661776168273,12.865));
#1556=CARTESIAN_POINT('',(98.8738379574988,-56.2661776168273,13.865));
#1557=CARTESIAN_POINT('',(109.753228296606,-56.2661776168273,13.865));
#1558=CARTESIAN_POINT('',(98.8738379574988,-56.2661776168273,12.865));
#1559=CARTESIAN_POINT('Origin',(98.8738379574988,-37.7690368050317,12.865));
#1560=CARTESIAN_POINT('',(98.8738379574988,-37.7690368050317,13.865));
#1561=CARTESIAN_POINT('',(98.8738379574988,-56.2661776168273,13.865));
#1562=CARTESIAN_POINT('',(98.8738379574988,-37.7690368050317,12.865));
#1563=CARTESIAN_POINT('Origin',(24.117761521829,-37.7690368050317,12.865));
#1564=CARTESIAN_POINT('',(24.117761521829,-37.7690368050317,13.865));
#1565=CARTESIAN_POINT('',(-14.9050900922869,-37.7690368050317,13.865));
#1566=CARTESIAN_POINT('',(24.117761521829,-37.7690368050317,12.865));
#1567=CARTESIAN_POINT('Origin',(24.117761521829,-57.0601068821891,12.865));
#1568=CARTESIAN_POINT('',(24.117761521829,-57.0601068821891,13.865));
#1569=CARTESIAN_POINT('',(24.117761521829,-37.7690368050317,13.865));
#1570=CARTESIAN_POINT('',(24.117761521829,-57.0601068821891,12.865));
#1571=CARTESIAN_POINT('Origin',(5.81973170542465,-57.0601068821891,12.865));
#1572=CARTESIAN_POINT('',(5.81973170542469,-57.0601068821891,13.865));
#1573=CARTESIAN_POINT('',(24.117761521829,-57.0601068821891,13.865));
#1574=CARTESIAN_POINT('',(5.81973170542465,-57.0601068821891,12.865));
#1575=CARTESIAN_POINT('Origin',(5.81973170542465,-37.7690368050317,12.865));
#1576=CARTESIAN_POINT('',(5.81973170542469,-37.7690368050317,13.865));
#1577=CARTESIAN_POINT('',(5.81973170542465,-57.0601068821891,13.865));
#1578=CARTESIAN_POINT('',(5.81973170542465,-37.7690368050317,12.865));
#1579=CARTESIAN_POINT('Origin',(-14.9050900922869,-37.7690368050317,12.865));
#1580=CARTESIAN_POINT('',(-14.9050900922869,-37.7690368050317,13.865));
#1581=CARTESIAN_POINT('',(-14.9050900922869,-37.7690368050317,13.865));
#1582=CARTESIAN_POINT('',(-14.9050900922869,-37.7690368050317,12.865));
#1583=CARTESIAN_POINT('Origin',(-14.9050900922869,-154.966126522757,12.865));
#1584=CARTESIAN_POINT('',(-14.9050900922869,-154.966126522757,13.865));
#1585=CARTESIAN_POINT('',(-14.9050900922869,-154.966126522757,13.865));
#1586=CARTESIAN_POINT('',(-14.9050900922869,-154.966126522757,12.865));
#1587=CARTESIAN_POINT('Origin',(270.548457454495,-154.966126522757,12.865));
#1588=CARTESIAN_POINT('',(270.548457454495,-154.966126522757,13.865));
#1589=CARTESIAN_POINT('',(332.323017582191,-154.966126522757,13.865));
#1590=CARTESIAN_POINT('',(270.548457454495,-154.966126522757,12.865));
#1591=CARTESIAN_POINT('Origin',(270.548457454495,-37.7690368050317,12.865));
#1592=CARTESIAN_POINT('',(270.548457454495,-37.7690368050317,13.865));
#1593=CARTESIAN_POINT('',(270.548457454495,-37.7690368050317,13.865));
#1594=CARTESIAN_POINT('',(270.548457454495,-37.7690368050317,12.865));
#1595=CARTESIAN_POINT('Origin',(195.,-37.7690368050317,12.865));
#1596=CARTESIAN_POINT('',(195.,-37.7690368050317,13.865));
#1597=CARTESIAN_POINT('',(-14.9050900922869,-37.7690368050317,13.865));
#1598=CARTESIAN_POINT('',(195.,-37.7690368050317,12.865));
#1599=CARTESIAN_POINT('Origin',(195.,-55.,12.865));
#1600=CARTESIAN_POINT('',(195.,-37.7690368050317,13.865));
#1601=CARTESIAN_POINT('Origin',(295.,-114.132381310046,12.865));
#1602=CARTESIAN_POINT('',(313.405865196691,-114.132381310046,13.865));
#1603=CARTESIAN_POINT('',(313.405865196691,-114.132381310046,12.865));
#1604=CARTESIAN_POINT('',(295.,-114.132381310046,13.865));
#1605=CARTESIAN_POINT('',(295.,-114.132381310046,13.865));
#1606=CARTESIAN_POINT('',(295.,-114.132381310046,12.865));
#1607=CARTESIAN_POINT('Origin',(295.,-133.000349090237,12.865));
#1608=CARTESIAN_POINT('',(295.,-133.000349090237,13.865));
#1609=CARTESIAN_POINT('',(295.,-133.000349090237,13.865));
#1610=CARTESIAN_POINT('',(295.,-133.000349090237,12.865));
#1611=CARTESIAN_POINT('Origin',(276.070256988767,-133.000349090237,12.865));
#1612=CARTESIAN_POINT('',(276.070256988767,-133.000349090237,13.865));
#1613=CARTESIAN_POINT('',(276.070256988767,-133.000349090237,13.865));
#1614=CARTESIAN_POINT('',(276.070256988767,-133.000349090237,12.865));
#1615=CARTESIAN_POINT('Origin',(276.070256988767,-154.966126522757,12.865));
#1616=CARTESIAN_POINT('',(276.070256988767,-154.966126522757,13.865));
#1617=CARTESIAN_POINT('',(276.070256988767,-154.966126522757,13.865));
#1618=CARTESIAN_POINT('',(276.070256988767,-154.966126522757,12.865));
#1619=CARTESIAN_POINT('Origin',(332.323017582191,-154.966126522757,12.865));
#1620=CARTESIAN_POINT('',(332.323017582191,-154.966126522757,13.865));
#1621=CARTESIAN_POINT('',(332.323017582191,-154.966126522757,13.865));
#1622=CARTESIAN_POINT('',(332.323017582191,-154.966126522757,12.865));
#1623=CARTESIAN_POINT('Origin',(332.323017582191,-133.000349090237,12.865));
#1624=CARTESIAN_POINT('',(332.323017582191,-133.000349090237,13.865));
#1625=CARTESIAN_POINT('',(332.323017582191,-37.7690368050317,13.865));
#1626=CARTESIAN_POINT('',(332.323017582191,-133.000349090237,12.865));
#1627=CARTESIAN_POINT('Origin',(313.405865196691,-133.000349090237,12.865));
#1628=CARTESIAN_POINT('',(313.405865196691,-133.000349090237,13.865));
#1629=CARTESIAN_POINT('',(313.405865196691,-133.000349090237,13.865));
#1630=CARTESIAN_POINT('',(313.405865196691,-133.000349090237,12.865));
#1631=CARTESIAN_POINT('Origin',(313.405865196691,-114.132381310046,12.865));
#1632=CARTESIAN_POINT('',(313.405865196691,-114.132381310046,13.865));
#1633=CARTESIAN_POINT('Origin',(276.070256988767,-37.7690368050317,12.865));
#1634=CARTESIAN_POINT('',(332.323017582191,-37.7690368050317,13.865));
#1635=CARTESIAN_POINT('',(332.323017582191,-37.7690368050317,12.865));
#1636=CARTESIAN_POINT('',(276.070256988767,-37.7690368050317,13.865));
#1637=CARTESIAN_POINT('',(-14.9050900922869,-37.7690368050317,13.865));
#1638=CARTESIAN_POINT('',(276.070256988767,-37.7690368050317,12.865));
#1639=CARTESIAN_POINT('Origin',(276.070256988767,-94.374415049658,12.865));
#1640=CARTESIAN_POINT('',(276.070256988767,-94.374415049658,13.865));
#1641=CARTESIAN_POINT('',(276.070256988767,-154.966126522757,13.865));
#1642=CARTESIAN_POINT('',(276.070256988767,-94.374415049658,12.865));
#1643=CARTESIAN_POINT('Origin',(332.323017582191,-94.374415049658,12.865));
#1644=CARTESIAN_POINT('',(332.323017582191,-94.374415049658,13.865));
#1645=CARTESIAN_POINT('',(332.323017582191,-94.374415049658,13.865));
#1646=CARTESIAN_POINT('',(332.323017582191,-94.374415049658,12.865));
#1647=CARTESIAN_POINT('Origin',(332.323017582191,-37.7690368050317,12.865));
#1648=CARTESIAN_POINT('',(332.323017582191,-37.7690368050317,13.865));
#1649=CARTESIAN_POINT('Origin',(369.,-161.4,12.865));
#1650=CARTESIAN_POINT('',(369.,-12.0000001788139,13.865));
#1651=CARTESIAN_POINT('',(369.,-12.0000001788139,12.865));
#1652=CARTESIAN_POINT('',(369.,-161.4,13.865));
#1653=CARTESIAN_POINT('',(369.,-161.4,13.865));
#1654=CARTESIAN_POINT('',(369.,-161.4,12.865));
#1655=CARTESIAN_POINT('Origin',(-22.8,-161.4,12.865));
#1656=CARTESIAN_POINT('',(-22.8,-161.4,13.865));
#1657=CARTESIAN_POINT('',(-22.8,-161.4,13.865));
#1658=CARTESIAN_POINT('',(-22.8,-161.4,12.865));
#1659=CARTESIAN_POINT('Origin',(-22.8,-12.0000001788139,12.865));
#1660=CARTESIAN_POINT('',(-22.8,-12.0000001788139,13.865));
#1661=CARTESIAN_POINT('',(-22.8,-12.0000001788139,13.865));
#1662=CARTESIAN_POINT('',(-22.8,-12.0000001788139,12.865));
#1663=CARTESIAN_POINT('Origin',(369.,-12.0000001788139,12.865));
#1664=CARTESIAN_POINT('',(369.,-12.0000001788139,13.865));
#1665=CARTESIAN_POINT('Origin',(173.1,-86.700000089407,13.865));
#1666=UNCERTAINTY_MEASURE_WITH_UNIT(LENGTH_MEASURE(0.01),#1670,
'DISTANCE_ACCURACY_VALUE',
'Maximum model space distance between geometric entities at asserted c
onnectivities');
#1667=UNCERTAINTY_MEASURE_WITH_UNIT(LENGTH_MEASURE(0.01),#1670,
'DISTANCE_ACCURACY_VALUE',
'Maximum model space distance between geometric entities at asserted c
onnectivities');
#1668=(
GEOMETRIC_REPRESENTATION_CONTEXT(3)
GLOBAL_UNCERTAINTY_ASSIGNED_CONTEXT((#1666))
GLOBAL_UNIT_ASSIGNED_CONTEXT((#1670,#1671,#1672))
REPRESENTATION_CONTEXT('','3D')
);
#1669=(
GEOMETRIC_REPRESENTATION_CONTEXT(3)
GLOBAL_UNCERTAINTY_ASSIGNED_CONTEXT((#1667))
GLOBAL_UNIT_ASSIGNED_CONTEXT((#1670,#1671,#1672))
REPRESENTATION_CONTEXT('','3D')
);
#1670=(
LENGTH_UNIT()
NAMED_UNIT(*)
SI_UNIT(.MILLI.,.METRE.)
);
#1671=(
NAMED_UNIT(*)
PLANE_ANGLE_UNIT()
SI_UNIT($,.RADIAN.)
);
#1672=(
NAMED_UNIT(*)
SI_UNIT($,.STERADIAN.)
SOLID_ANGLE_UNIT()
);
#1673=SHAPE_DEFINITION_REPRESENTATION(#1674,#1675);
#1674=PRODUCT_DEFINITION_SHAPE('',$,#1677);
#1675=SHAPE_REPRESENTATION('',(#1066),#1668);
#1676=PRODUCT_DEFINITION_CONTEXT('part definition',#1681,'design');
#1677=PRODUCT_DEFINITION('keyboard_pcb_step 1','keyboard_pcb_step v3',#1678,
#1676);
#1678=PRODUCT_DEFINITION_FORMATION('',$,#1683);
#1679=PRODUCT_RELATED_PRODUCT_CATEGORY('keyboard_pcb_step v3',
'keyboard_pcb_step v3',(#1683));
#1680=APPLICATION_PROTOCOL_DEFINITION('international standard',
'automotive_design',2009,#1681);
#1681=APPLICATION_CONTEXT(
'Core Data for Automotive Mechanical Design Process');
#1682=PRODUCT_CONTEXT('part definition',#1681,'mechanical');
#1683=PRODUCT('keyboard_pcb_step 1','keyboard_pcb_step v3',
'KiCad electronic assembly',(#1682));
#1684=PRESENTATION_STYLE_ASSIGNMENT((#1692));
#1685=PRESENTATION_STYLE_ASSIGNMENT((#1693));
#1686=PRESENTATION_STYLE_ASSIGNMENT((#1694));
#1687=PRESENTATION_STYLE_ASSIGNMENT((#1695));
#1688=PRESENTATION_STYLE_ASSIGNMENT((#1696));
#1689=PRESENTATION_STYLE_ASSIGNMENT((#1697));
#1690=PRESENTATION_STYLE_ASSIGNMENT((#1698));
#1691=PRESENTATION_STYLE_ASSIGNMENT((#1699));
#1692=SURFACE_STYLE_USAGE(.BOTH.,#1700);
#1693=SURFACE_STYLE_USAGE(.BOTH.,#1701);
#1694=SURFACE_STYLE_USAGE(.BOTH.,#1702);
#1695=SURFACE_STYLE_USAGE(.BOTH.,#1703);
#1696=SURFACE_STYLE_USAGE(.BOTH.,#1704);
#1697=SURFACE_STYLE_USAGE(.BOTH.,#1705);
#1698=SURFACE_STYLE_USAGE(.BOTH.,#1706);
#1699=SURFACE_STYLE_USAGE(.BOTH.,#1707);
#1700=SURFACE_SIDE_STYLE('',(#1708));
#1701=SURFACE_SIDE_STYLE('',(#1709));
#1702=SURFACE_SIDE_STYLE('',(#1710));
#1703=SURFACE_SIDE_STYLE('',(#1711));
#1704=SURFACE_SIDE_STYLE('',(#1712));
#1705=SURFACE_SIDE_STYLE('',(#1713));
#1706=SURFACE_SIDE_STYLE('',(#1714));
#1707=SURFACE_SIDE_STYLE('',(#1715));
#1708=SURFACE_STYLE_FILL_AREA(#1716);
#1709=SURFACE_STYLE_FILL_AREA(#1717);
#1710=SURFACE_STYLE_FILL_AREA(#1718);
#1711=SURFACE_STYLE_FILL_AREA(#1719);
#1712=SURFACE_STYLE_FILL_AREA(#1720);
#1713=SURFACE_STYLE_FILL_AREA(#1721);
#1714=SURFACE_STYLE_FILL_AREA(#1722);
#1715=SURFACE_STYLE_FILL_AREA(#1723);
#1716=FILL_AREA_STYLE('Steel - Satin',(#1724));
#1717=FILL_AREA_STYLE('Opaque(145,145,150)',(#1725));
#1718=FILL_AREA_STYLE('Opaque(202,209,238)',(#1726));
#1719=FILL_AREA_STYLE('Opaque(26,26,26)',(#1727));
#1720=FILL_AREA_STYLE('Opaque(247,224,153)',(#1728));
#1721=FILL_AREA_STYLE('Opaque(74,117,181)',(#1729));
#1722=FILL_AREA_STYLE('Opaque(246,246,243)',(#1730));
#1723=FILL_AREA_STYLE('Opaque(255,255,255)',(#1731));
#1724=FILL_AREA_STYLE_COLOUR('Steel - Satin',#1732);
#1725=FILL_AREA_STYLE_COLOUR('Opaque(145,145,150)',#1733);
#1726=FILL_AREA_STYLE_COLOUR('Opaque(202,209,238)',#1734);
#1727=FILL_AREA_STYLE_COLOUR('Opaque(26,26,26)',#1735);
#1728=FILL_AREA_STYLE_COLOUR('Opaque(247,224,153)',#1736);
#1729=FILL_AREA_STYLE_COLOUR('Opaque(74,117,181)',#1737);
#1730=FILL_AREA_STYLE_COLOUR('Opaque(246,246,243)',#1738);
#1731=FILL_AREA_STYLE_COLOUR('Opaque(255,255,255)',#1739);
#1732=COLOUR_RGB('Steel - Satin',0.627450980392157,0.627450980392157,0.627450980392157);
#1733=COLOUR_RGB('Opaque(145,145,150)',0.568627450980392,0.568627450980392,
0.588235294117647);
#1734=COLOUR_RGB('Opaque(202,209,238)',0.792156862745098,0.819607843137255,
0.933333333333333);
#1735=COLOUR_RGB('Opaque(26,26,26)',0.101960784313725,0.101960784313725,
0.101960784313725);
#1736=COLOUR_RGB('Opaque(247,224,153)',0.968627450980392,0.87843137254902,
0.6);
#1737=COLOUR_RGB('Opaque(74,117,181)',0.290196078431373,0.458823529411765,
0.709803921568627);
#1738=COLOUR_RGB('Opaque(246,246,243)',0.964705882352941,0.964705882352941,
0.952941176470588);
#1739=COLOUR_RGB('Opaque(255,255,255)',1.,1.,1.);
ENDSEC;
END-ISO-10303-21;
