ISO-10303-21;
HEADER;
/* Generated by software containing ST-Developer
 * from STEP Tools, Inc. (www.steptools.com) 
 */

FILE_DESCRIPTION(
/* description */ ('KiCad electronic assembly'),
/* implementation_level */ '2;1');

FILE_NAME(
/* name */ 'upper screen holder step.step',
/* time_stamp */ '2026-08-21T11:40:24+02:00',
/* author */ (''),
/* organization */ (''),
/* preprocessor_version */ 'ST-DEVELOPER v20.1',
/* originating_system */ 'Autodesk Translation Framework v15.8.0.0',
/* authorisation */ '');

FILE_SCHEMA (('AUTOMOTIVE_DESIGN { 1 0 10303 214 3 1 1 }'));
ENDSEC;

DATA;
#10=MECHANICAL_DESIGN_GEOMETRIC_PRESENTATION_REPRESENTATION('',(#13),#313);
#11=SHAPE_REPRESENTATION_RELATIONSHIP('SRR','None',#319,#12);
#12=ADVANCED_BREP_SHAPE_REPRESENTATION('',(#14),#312);
#13=STYLED_ITEM('',(#328),#14);
#14=MANIFOLD_SOLID_BREP('screen holder ',#197);
#15=FACE_BOUND('',#38,.T.);
#16=FACE_OUTER_BOUND('',#27,.T.);
#17=FACE_OUTER_BOUND('',#28,.T.);
#18=FACE_OUTER_BOUND('',#29,.T.);
#19=FACE_OUTER_BOUND('',#30,.T.);
#20=FACE_OUTER_BOUND('',#31,.T.);
#21=FACE_OUTER_BOUND('',#32,.T.);
#22=FACE_OUTER_BOUND('',#33,.T.);
#23=FACE_OUTER_BOUND('',#34,.T.);
#24=FACE_OUTER_BOUND('',#35,.T.);
#25=FACE_OUTER_BOUND('',#36,.T.);
#26=FACE_OUTER_BOUND('',#37,.T.);
#27=EDGE_LOOP('',(#127,#128,#129,#130));
#28=EDGE_LOOP('',(#131,#132,#133,#134));
#29=EDGE_LOOP('',(#135,#136,#137,#138));
#30=EDGE_LOOP('',(#139,#140,#141,#142));
#31=EDGE_LOOP('',(#143,#144,#145,#146));
#32=EDGE_LOOP('',(#147,#148,#149,#150));
#33=EDGE_LOOP('',(#151,#152,#153,#154));
#34=EDGE_LOOP('',(#155,#156,#157,#158));
#35=EDGE_LOOP('',(#159,#160,#161,#162));
#36=EDGE_LOOP('',(#163,#164,#165,#166));
#37=EDGE_LOOP('',(#167,#168,#169,#170));
#38=EDGE_LOOP('',(#171,#172,#173,#174));
#39=LINE('',#262,#63);
#40=LINE('',#264,#64);
#41=LINE('',#266,#65);
#42=LINE('',#267,#66);
#43=LINE('',#270,#67);
#44=LINE('',#272,#68);
#45=LINE('',#273,#69);
#46=LINE('',#276,#70);
#47=LINE('',#278,#71);
#48=LINE('',#279,#72);
#49=LINE('',#281,#73);
#50=LINE('',#282,#74);
#51=LINE('',#287,#75);
#52=LINE('',#289,#76);
#53=LINE('',#291,#77);
#54=LINE('',#292,#78);
#55=LINE('',#295,#79);
#56=LINE('',#297,#80);
#57=LINE('',#298,#81);
#58=LINE('',#301,#82);
#59=LINE('',#303,#83);
#60=LINE('',#304,#84);
#61=LINE('',#306,#85);
#62=LINE('',#307,#86);
#63=VECTOR('',#214,10.);
#64=VECTOR('',#215,10.);
#65=VECTOR('',#216,10.);
#66=VECTOR('',#217,10.);
#67=VECTOR('',#220,10.);
#68=VECTOR('',#221,10.);
#69=VECTOR('',#222,10.);
#70=VECTOR('',#225,10.);
#71=VECTOR('',#226,10.);
#72=VECTOR('',#227,10.);
#73=VECTOR('',#230,10.);
#74=VECTOR('',#231,10.);
#75=VECTOR('',#236,10.);
#76=VECTOR('',#237,10.);
#77=VECTOR('',#238,10.);
#78=VECTOR('',#239,10.);
#79=VECTOR('',#242,10.);
#80=VECTOR('',#243,10.);
#81=VECTOR('',#244,10.);
#82=VECTOR('',#247,10.);
#83=VECTOR('',#248,10.);
#84=VECTOR('',#249,10.);
#85=VECTOR('',#252,10.);
#86=VECTOR('',#253,10.);
#87=VERTEX_POINT('',#260);
#88=VERTEX_POINT('',#261);
#89=VERTEX_POINT('',#263);
#90=VERTEX_POINT('',#265);
#91=VERTEX_POINT('',#269);
#92=VERTEX_POINT('',#271);
#93=VERTEX_POINT('',#275);
#94=VERTEX_POINT('',#277);
#95=VERTEX_POINT('',#285);
#96=VERTEX_POINT('',#286);
#97=VERTEX_POINT('',#288);
#98=VERTEX_POINT('',#290);
#99=VERTEX_POINT('',#294);
#100=VERTEX_POINT('',#296);
#101=VERTEX_POINT('',#300);
#102=VERTEX_POINT('',#302);
#103=EDGE_CURVE('',#87,#88,#39,.T.);
#104=EDGE_CURVE('',#87,#89,#40,.T.);
#105=EDGE_CURVE('',#90,#89,#41,.T.);
#106=EDGE_CURVE('',#88,#90,#42,.T.);
#107=EDGE_CURVE('',#88,#91,#43,.T.);
#108=EDGE_CURVE('',#92,#90,#44,.T.);
#109=EDGE_CURVE('',#91,#92,#45,.T.);
#110=EDGE_CURVE('',#91,#93,#46,.T.);
#111=EDGE_CURVE('',#94,#92,#47,.T.);
#112=EDGE_CURVE('',#93,#94,#48,.T.);
#113=EDGE_CURVE('',#93,#87,#49,.T.);
#114=EDGE_CURVE('',#89,#94,#50,.T.);
#115=EDGE_CURVE('',#95,#96,#51,.T.);
#116=EDGE_CURVE('',#95,#97,#52,.T.);
#117=EDGE_CURVE('',#98,#97,#53,.T.);
#118=EDGE_CURVE('',#96,#98,#54,.T.);
#119=EDGE_CURVE('',#96,#99,#55,.T.);
#120=EDGE_CURVE('',#100,#98,#56,.T.);
#121=EDGE_CURVE('',#99,#100,#57,.T.);
#122=EDGE_CURVE('',#99,#101,#58,.T.);
#123=EDGE_CURVE('',#102,#100,#59,.T.);
#124=EDGE_CURVE('',#101,#102,#60,.T.);
#125=EDGE_CURVE('',#101,#95,#61,.T.);
#126=EDGE_CURVE('',#97,#102,#62,.T.);
#127=ORIENTED_EDGE('',*,*,#103,.F.);
#128=ORIENTED_EDGE('',*,*,#104,.T.);
#129=ORIENTED_EDGE('',*,*,#105,.F.);
#130=ORIENTED_EDGE('',*,*,#106,.F.);
#131=ORIENTED_EDGE('',*,*,#107,.F.);
#132=ORIENTED_EDGE('',*,*,#106,.T.);
#133=ORIENTED_EDGE('',*,*,#108,.F.);
#134=ORIENTED_EDGE('',*,*,#109,.F.);
#135=ORIENTED_EDGE('',*,*,#110,.F.);
#136=ORIENTED_EDGE('',*,*,#109,.T.);
#137=ORIENTED_EDGE('',*,*,#111,.F.);
#138=ORIENTED_EDGE('',*,*,#112,.F.);
#139=ORIENTED_EDGE('',*,*,#113,.F.);
#140=ORIENTED_EDGE('',*,*,#112,.T.);
#141=ORIENTED_EDGE('',*,*,#114,.F.);
#142=ORIENTED_EDGE('',*,*,#104,.F.);
#143=ORIENTED_EDGE('',*,*,#114,.T.);
#144=ORIENTED_EDGE('',*,*,#111,.T.);
#145=ORIENTED_EDGE('',*,*,#108,.T.);
#146=ORIENTED_EDGE('',*,*,#105,.T.);
#147=ORIENTED_EDGE('',*,*,#115,.F.);
#148=ORIENTED_EDGE('',*,*,#116,.T.);
#149=ORIENTED_EDGE('',*,*,#117,.F.);
#150=ORIENTED_EDGE('',*,*,#118,.F.);
#151=ORIENTED_EDGE('',*,*,#119,.F.);
#152=ORIENTED_EDGE('',*,*,#118,.T.);
#153=ORIENTED_EDGE('',*,*,#120,.F.);
#154=ORIENTED_EDGE('',*,*,#121,.F.);
#155=ORIENTED_EDGE('',*,*,#122,.F.);
#156=ORIENTED_EDGE('',*,*,#121,.T.);
#157=ORIENTED_EDGE('',*,*,#123,.F.);
#158=ORIENTED_EDGE('',*,*,#124,.F.);
#159=ORIENTED_EDGE('',*,*,#125,.F.);
#160=ORIENTED_EDGE('',*,*,#124,.T.);
#161=ORIENTED_EDGE('',*,*,#126,.F.);
#162=ORIENTED_EDGE('',*,*,#116,.F.);
#163=ORIENTED_EDGE('',*,*,#126,.T.);
#164=ORIENTED_EDGE('',*,*,#123,.T.);
#165=ORIENTED_EDGE('',*,*,#120,.T.);
#166=ORIENTED_EDGE('',*,*,#117,.T.);
#167=ORIENTED_EDGE('',*,*,#125,.T.);
#168=ORIENTED_EDGE('',*,*,#115,.T.);
#169=ORIENTED_EDGE('',*,*,#119,.T.);
#170=ORIENTED_EDGE('',*,*,#122,.T.);
#171=ORIENTED_EDGE('',*,*,#103,.T.);
#172=ORIENTED_EDGE('',*,*,#107,.T.);
#173=ORIENTED_EDGE('',*,*,#110,.T.);
#174=ORIENTED_EDGE('',*,*,#113,.T.);
#175=PLANE('',#199);
#176=PLANE('',#200);
#177=PLANE('',#201);
#178=PLANE('',#202);
#179=PLANE('',#203);
#180=PLANE('',#204);
#181=PLANE('',#205);
#182=PLANE('',#206);
#183=PLANE('',#207);
#184=PLANE('',#208);
#185=PLANE('',#209);
#186=ADVANCED_FACE('',(#16),#175,.T.);
#187=ADVANCED_FACE('',(#17),#176,.T.);
#188=ADVANCED_FACE('',(#18),#177,.T.);
#189=ADVANCED_FACE('',(#19),#178,.T.);
#190=ADVANCED_FACE('',(#20),#179,.T.);
#191=ADVANCED_FACE('',(#21),#180,.T.);
#192=ADVANCED_FACE('',(#22),#181,.T.);
#193=ADVANCED_FACE('',(#23),#182,.T.);
#194=ADVANCED_FACE('',(#24),#183,.T.);
#195=ADVANCED_FACE('',(#25),#184,.T.);
#196=ADVANCED_FACE('',(#26,#15),#185,.F.);
#197=CLOSED_SHELL('',(#186,#187,#188,#189,#190,#191,#192,#193,#194,#195,
#196));
#198=AXIS2_PLACEMENT_3D('',#258,#210,#211);
#199=AXIS2_PLACEMENT_3D('',#259,#212,#213);
#200=AXIS2_PLACEMENT_3D('',#268,#218,#219);
#201=AXIS2_PLACEMENT_3D('',#274,#223,#224);
#202=AXIS2_PLACEMENT_3D('',#280,#228,#229);
#203=AXIS2_PLACEMENT_3D('',#283,#232,#233);
#204=AXIS2_PLACEMENT_3D('',#284,#234,#235);
#205=AXIS2_PLACEMENT_3D('',#293,#240,#241);
#206=AXIS2_PLACEMENT_3D('',#299,#245,#246);
#207=AXIS2_PLACEMENT_3D('',#305,#250,#251);
#208=AXIS2_PLACEMENT_3D('',#308,#254,#255);
#209=AXIS2_PLACEMENT_3D('',#309,#256,#257);
#210=DIRECTION('axis',(0.,0.,1.));
#211=DIRECTION('refdir',(1.,0.,0.));
#212=DIRECTION('center_axis',(0.,-0.941969526345439,0.3356983935567));
#213=DIRECTION('ref_axis',(-1.,0.,0.));
#214=DIRECTION('',(1.,-6.70860154541385E-17,-1.88243326195913E-16));
#215=DIRECTION('',(0.,-0.3356983935567,-0.941969526345439));
#216=DIRECTION('',(-1.,0.,0.));
#217=DIRECTION('',(0.,-0.3356983935567,-0.941969526345439));
#218=DIRECTION('center_axis',(1.,0.,0.));
#219=DIRECTION('ref_axis',(0.,-0.94196952634544,0.335698393556698));
#220=DIRECTION('',(0.,0.94196952634544,-0.335698393556698));
#221=DIRECTION('',(0.,-0.94196952634544,0.335698393556698));
#222=DIRECTION('',(0.,-0.3356983935567,-0.941969526345439));
#223=DIRECTION('center_axis',(0.,0.941969526345439,-0.3356983935567));
#224=DIRECTION('ref_axis',(1.,0.,0.));
#225=DIRECTION('',(-1.,6.70860154541385E-17,1.88243326195913E-16));
#226=DIRECTION('',(1.,0.,0.));
#227=DIRECTION('',(0.,-0.3356983935567,-0.941969526345439));
#228=DIRECTION('center_axis',(-1.,0.,0.));
#229=DIRECTION('ref_axis',(0.,0.94196952634544,-0.335698393556698));
#230=DIRECTION('',(0.,-0.94196952634544,0.335698393556698));
#231=DIRECTION('',(0.,0.94196952634544,-0.335698393556698));
#232=DIRECTION('center_axis',(0.,-0.3356983935567,-0.941969526345439));
#233=DIRECTION('ref_axis',(-1.,0.,0.));
#234=DIRECTION('center_axis',(1.,0.,0.));
#235=DIRECTION('ref_axis',(0.,0.94196952634544,-0.335698393556698));
#236=DIRECTION('',(0.,-0.94196952634544,0.335698393556698));
#237=DIRECTION('',(0.,0.335698393556695,0.941969526345441));
#238=DIRECTION('',(0.,0.94196952634544,-0.335698393556698));
#239=DIRECTION('',(0.,0.335698393556695,0.941969526345441));
#240=DIRECTION('center_axis',(-1.38050658413677E-30,-0.941969526345441,
0.335698393556695));
#241=DIRECTION('ref_axis',(1.,-1.19264027474024E-16,-3.34654802126067E-16));
#242=DIRECTION('',(-1.,1.19264027474024E-16,3.34654802126067E-16));
#243=DIRECTION('',(1.,-1.19264027474024E-16,-3.34654802126067E-16));
#244=DIRECTION('',(0.,0.335698393556695,0.941969526345441));
#245=DIRECTION('center_axis',(-1.,0.,0.));
#246=DIRECTION('ref_axis',(0.,-0.94196952634544,0.335698393556698));
#247=DIRECTION('',(0.,0.94196952634544,-0.335698393556698));
#248=DIRECTION('',(0.,-0.94196952634544,0.335698393556698));
#249=DIRECTION('',(0.,0.335698393556695,0.941969526345441));
#250=DIRECTION('center_axis',(0.,0.941969526345441,-0.335698393556695));
#251=DIRECTION('ref_axis',(-1.,0.,0.));
#252=DIRECTION('',(1.,0.,0.));
#253=DIRECTION('',(-1.,0.,0.));
#254=DIRECTION('center_axis',(0.,0.335698393556695,0.941969526345441));
#255=DIRECTION('ref_axis',(1.,0.,0.));
#256=DIRECTION('center_axis',(1.99840144432528E-16,0.335698393556698,0.94196952634544));
#257=DIRECTION('ref_axis',(-1.,6.70860154541382E-17,1.88243326195913E-16));
#258=CARTESIAN_POINT('',(0.,0.,0.));
#259=CARTESIAN_POINT('Origin',(220.596721206699,128.24273475231,120.62350377268));
#260=CARTESIAN_POINT('',(125.600001579695,128.24273475231,120.62350377268));
#261=CARTESIAN_POINT('',(220.596721206699,128.24273475231,120.62350377268));
#262=CARTESIAN_POINT('',(196.848360603349,128.242734752309,120.62350377268));
#263=CARTESIAN_POINT('',(125.600001579695,127.739187161974,119.210549483162));
#264=CARTESIAN_POINT('',(125.600001579695,128.24273475231,120.62350377268));
#265=CARTESIAN_POINT('',(220.596721206699,127.739187161974,119.210549483162));
#266=CARTESIAN_POINT('',(220.596721206699,127.739187161974,119.210549483162));
#267=CARTESIAN_POINT('',(220.596721206699,128.24273475231,120.62350377268));
#268=CARTESIAN_POINT('Origin',(220.596721206699,181.722112806344,101.564563117983));
#269=CARTESIAN_POINT('',(220.596721206699,181.722112806344,101.564563117983));
#270=CARTESIAN_POINT('',(220.596721206699,168.399732530507,106.312383012222));
#271=CARTESIAN_POINT('',(220.596721206699,181.218565216009,100.151608828465));
#272=CARTESIAN_POINT('',(220.596721206699,181.218565216009,100.151608828465));
#273=CARTESIAN_POINT('',(220.596721206699,181.722112806344,101.564563117983));
#274=CARTESIAN_POINT('Origin',(125.600001579695,181.722112806344,101.564563117983));
#275=CARTESIAN_POINT('',(125.600001579695,181.722112806344,101.564563117983));
#276=CARTESIAN_POINT('',(149.350000789848,181.722112806344,101.564563117983));
#277=CARTESIAN_POINT('',(125.600001579695,181.218565216009,100.151608828465));
#278=CARTESIAN_POINT('',(125.600001579695,181.218565216009,100.151608828465));
#279=CARTESIAN_POINT('',(125.600001579695,181.722112806344,101.564563117983));
#280=CARTESIAN_POINT('Origin',(125.600001579695,128.24273475231,120.62350377268));
#281=CARTESIAN_POINT('',(125.600001579695,141.660043503489,115.841853339571));
#282=CARTESIAN_POINT('',(125.600001579695,127.739187161974,119.210549483162));
#283=CARTESIAN_POINT('Origin',(173.098361393197,154.478876188992,109.681079155813));
#284=CARTESIAN_POINT('Origin',(223.1,125.87629693796,121.466853106719));
#285=CARTESIAN_POINT('',(223.1,184.278407571378,100.653552706204));
#286=CARTESIAN_POINT('',(223.1,125.87629693796,121.466853106719));
#287=CARTESIAN_POINT('',(223.1,184.278407571378,100.653552706204));
#288=CARTESIAN_POINT('',(223.1,184.949804358491,102.537491758895));
#289=CARTESIAN_POINT('',(223.1,184.278407571378,100.653552706204));
#290=CARTESIAN_POINT('',(223.1,126.547693725074,123.35079215941));
#291=CARTESIAN_POINT('',(223.1,184.949804358491,102.537491758895));
#292=CARTESIAN_POINT('',(223.1,125.87629693796,121.466853106719));
#293=CARTESIAN_POINT('Origin',(123.1,125.87629693796,121.466853106719));
#294=CARTESIAN_POINT('',(123.1,125.87629693796,121.466853106719));
#295=CARTESIAN_POINT('',(223.1,125.87629693796,121.466853106719));
#296=CARTESIAN_POINT('',(123.1,126.547693725074,123.35079215941));
#297=CARTESIAN_POINT('',(223.1,126.547693725074,123.35079215941));
#298=CARTESIAN_POINT('',(123.1,125.87629693796,121.466853106719));
#299=CARTESIAN_POINT('Origin',(123.1,184.278407571378,100.653552706204));
#300=CARTESIAN_POINT('',(123.1,184.278407571378,100.653552706204));
#301=CARTESIAN_POINT('',(123.1,125.87629693796,121.466853106719));
#302=CARTESIAN_POINT('',(123.1,184.949804358491,102.537491758895));
#303=CARTESIAN_POINT('',(123.1,126.547693725074,123.35079215941));
#304=CARTESIAN_POINT('',(123.1,184.278407571378,100.653552706204));
#305=CARTESIAN_POINT('Origin',(223.1,184.278407571378,100.653552706204));
#306=CARTESIAN_POINT('',(123.1,184.278407571378,100.653552706204));
#307=CARTESIAN_POINT('',(123.1,184.949804358491,102.537491758895));
#308=CARTESIAN_POINT('Origin',(173.1,155.748749041782,112.944141959152));
#309=CARTESIAN_POINT('Origin',(173.1,155.077352254669,111.060202906462));
#310=UNCERTAINTY_MEASURE_WITH_UNIT(LENGTH_MEASURE(0.01),#314,
'DISTANCE_ACCURACY_VALUE',
'Maximum model space distance between geometric entities at asserted c
onnectivities');
#311=UNCERTAINTY_MEASURE_WITH_UNIT(LENGTH_MEASURE(0.01),#314,
'DISTANCE_ACCURACY_VALUE',
'Maximum model space distance between geometric entities at asserted c
onnectivities');
#312=(
GEOMETRIC_REPRESENTATION_CONTEXT(3)
GLOBAL_UNCERTAINTY_ASSIGNED_CONTEXT((#310))
GLOBAL_UNIT_ASSIGNED_CONTEXT((#314,#315,#316))
REPRESENTATION_CONTEXT('','3D')
);
#313=(
GEOMETRIC_REPRESENTATION_CONTEXT(3)
GLOBAL_UNCERTAINTY_ASSIGNED_CONTEXT((#311))
GLOBAL_UNIT_ASSIGNED_CONTEXT((#314,#315,#316))
REPRESENTATION_CONTEXT('','3D')
);
#314=(
LENGTH_UNIT()
NAMED_UNIT(*)
SI_UNIT(.MILLI.,.METRE.)
);
#315=(
NAMED_UNIT(*)
PLANE_ANGLE_UNIT()
SI_UNIT($,.RADIAN.)
);
#316=(
NAMED_UNIT(*)
SI_UNIT($,.STERADIAN.)
SOLID_ANGLE_UNIT()
);
#317=SHAPE_DEFINITION_REPRESENTATION(#318,#319);
#318=PRODUCT_DEFINITION_SHAPE('',$,#321);
#319=SHAPE_REPRESENTATION('',(#198),#312);
#320=PRODUCT_DEFINITION_CONTEXT('part definition',#325,'design');
#321=PRODUCT_DEFINITION('keyboard_pcb_step 1','keyboard_pcb_step v3',#322,
#320);
#322=PRODUCT_DEFINITION_FORMATION('',$,#327);
#323=PRODUCT_RELATED_PRODUCT_CATEGORY('keyboard_pcb_step v3',
'keyboard_pcb_step v3',(#327));
#324=APPLICATION_PROTOCOL_DEFINITION('international standard',
'automotive_design',2009,#325);
#325=APPLICATION_CONTEXT(
'Core Data for Automotive Mechanical Design Process');
#326=PRODUCT_CONTEXT('part definition',#325,'mechanical');
#327=PRODUCT('keyboard_pcb_step 1','keyboard_pcb_step v3',
'KiCad electronic assembly',(#326));
#328=PRESENTATION_STYLE_ASSIGNMENT((#336));
#329=PRESENTATION_STYLE_ASSIGNMENT((#337));
#330=PRESENTATION_STYLE_ASSIGNMENT((#338));
#331=PRESENTATION_STYLE_ASSIGNMENT((#339));
#332=PRESENTATION_STYLE_ASSIGNMENT((#340));
#333=PRESENTATION_STYLE_ASSIGNMENT((#341));
#334=PRESENTATION_STYLE_ASSIGNMENT((#342));
#335=PRESENTATION_STYLE_ASSIGNMENT((#343));
#336=SURFACE_STYLE_USAGE(.BOTH.,#344);
#337=SURFACE_STYLE_USAGE(.BOTH.,#345);
#338=SURFACE_STYLE_USAGE(.BOTH.,#346);
#339=SURFACE_STYLE_USAGE(.BOTH.,#347);
#340=SURFACE_STYLE_USAGE(.BOTH.,#348);
#341=SURFACE_STYLE_USAGE(.BOTH.,#349);
#342=SURFACE_STYLE_USAGE(.BOTH.,#350);
#343=SURFACE_STYLE_USAGE(.BOTH.,#351);
#344=SURFACE_SIDE_STYLE('',(#352));
#345=SURFACE_SIDE_STYLE('',(#353));
#346=SURFACE_SIDE_STYLE('',(#354));
#347=SURFACE_SIDE_STYLE('',(#355));
#348=SURFACE_SIDE_STYLE('',(#356));
#349=SURFACE_SIDE_STYLE('',(#357));
#350=SURFACE_SIDE_STYLE('',(#358));
#351=SURFACE_SIDE_STYLE('',(#359));
#352=SURFACE_STYLE_FILL_AREA(#360);
#353=SURFACE_STYLE_FILL_AREA(#361);
#354=SURFACE_STYLE_FILL_AREA(#362);
#355=SURFACE_STYLE_FILL_AREA(#363);
#356=SURFACE_STYLE_FILL_AREA(#364);
#357=SURFACE_STYLE_FILL_AREA(#365);
#358=SURFACE_STYLE_FILL_AREA(#366);
#359=SURFACE_STYLE_FILL_AREA(#367);
#360=FILL_AREA_STYLE('Steel - Satin',(#368));
#361=FILL_AREA_STYLE('Opaque(145,145,150)',(#369));
#362=FILL_AREA_STYLE('Opaque(202,209,238)',(#370));
#363=FILL_AREA_STYLE('Opaque(26,26,26)',(#371));
#364=FILL_AREA_STYLE('Opaque(247,224,153)',(#372));
#365=FILL_AREA_STYLE('Opaque(74,117,181)',(#373));
#366=FILL_AREA_STYLE('Opaque(246,246,243)',(#374));
#367=FILL_AREA_STYLE('Opaque(255,255,255)',(#375));
#368=FILL_AREA_STYLE_COLOUR('Steel - Satin',#376);
#369=FILL_AREA_STYLE_COLOUR('Opaque(145,145,150)',#377);
#370=FILL_AREA_STYLE_COLOUR('Opaque(202,209,238)',#378);
#371=FILL_AREA_STYLE_COLOUR('Opaque(26,26,26)',#379);
#372=FILL_AREA_STYLE_COLOUR('Opaque(247,224,153)',#380);
#373=FILL_AREA_STYLE_COLOUR('Opaque(74,117,181)',#381);
#374=FILL_AREA_STYLE_COLOUR('Opaque(246,246,243)',#382);
#375=FILL_AREA_STYLE_COLOUR('Opaque(255,255,255)',#383);
#376=COLOUR_RGB('Steel - Satin',0.627450980392157,0.627450980392157,0.627450980392157);
#377=COLOUR_RGB('Opaque(145,145,150)',0.568627450980392,0.568627450980392,
0.588235294117647);
#378=COLOUR_RGB('Opaque(202,209,238)',0.792156862745098,0.819607843137255,
0.933333333333333);
#379=COLOUR_RGB('Opaque(26,26,26)',0.101960784313725,0.101960784313725,
0.101960784313725);
#380=COLOUR_RGB('Opaque(247,224,153)',0.968627450980392,0.87843137254902,
0.6);
#381=COLOUR_RGB('Opaque(74,117,181)',0.290196078431373,0.458823529411765,
0.709803921568627);
#382=COLOUR_RGB('Opaque(246,246,243)',0.964705882352941,0.964705882352941,
0.952941176470588);
#383=COLOUR_RGB('Opaque(255,255,255)',1.,1.,1.);
ENDSEC;
END-ISO-10303-21;
